<svg width="20" height="20" viewBox="0 0 20 20" fill="none" xmlns="http://www.w3.org/2000/svg">
<path d="M6.11584 8.40416L10 4.52L13.886 8.40584L16.146 6.14584L10 0L3.856 6.144L6.11592 8.404L6.11584 8.40416ZM0 10L2.26008 7.7396L4.52 9.99952L2.25992 12.2596L0 10ZM6.11584 11.5961L10 15.48L13.8859 11.5942L16.1471 13.853L16.146 13.8542L10 20L3.856 13.856L3.8528 13.8528L6.11608 11.5958L6.11584 11.5961ZM15.48 10.001L17.7401 7.74088L20 10.0008L17.74 12.2609L15.48 10.001Z" fill="#F3BA2F"/>
<path d="M12.2917 9.99884H12.2927L9.99956 7.70551L8.3046 9.40002L8.10988 9.59483L7.70828 9.99652L7.70508 9.99964L7.70828 10.0029L9.99956 12.2946L12.2928 10.0012L12.294 9.99996L12.2919 9.99884" fill="#F3BA2F"/>
</svg>
