<svg width="20" height="20" viewBox="0 0 20 20" fill="none" xmlns="http://www.w3.org/2000/svg">
<path d="M10.03 0.108353V0.118205C10.0398 0.167466 10.0398 0.22658 10.0398 0.285693V7.38914C10.03 7.42855 10.0004 7.4384 9.97088 7.45811C9.76398 7.55663 9.56694 7.6453 9.36004 7.73397C9.07432 7.86205 8.77876 7.99998 8.49304 8.12806L7.45856 8.60096C7.17285 8.72904 6.88713 8.85712 6.61127 8.9852C6.27629 9.14284 5.93147 9.29062 5.59649 9.44825C5.31078 9.57633 5.02506 9.71426 4.7295 9.84234C4.49304 9.95072 4.25659 10.0492 4.02999 10.1576C4.01029 10.1675 3.99058 10.1773 3.97088 10.1773C3.96102 10.1773 3.96102 10.1773 3.95117 10.1675L4.21718 9.72412C4.7295 8.87683 5.23196 8.03939 5.74428 7.1921C6.28615 6.28569 6.83787 5.37929 7.37974 4.47289C7.88221 3.63545 8.39452 2.79801 8.89698 1.96057C9.26152 1.34973 9.6359 0.738895 10.0004 0.128057C10.0103 0.108353 10.0201 0.0985008 10.0201 0.0787964H10.03C10.0201 0.0886486 10.03 0.0985008 10.03 0.108353Z" fill="#8A92B2"/>
<path d="M16.1197 10.1671L16.1296 10.177L14.6813 11.0341L10.1296 13.7238C10.1099 13.7336 10.0902 13.7435 10.0803 13.7533C10.0508 13.7533 10.0508 13.7238 10.0508 13.7139V13.6253V7.53658C10.0508 7.50703 10.0508 7.46762 10.0606 7.43806C10.0705 7.39865 10.1 7.40851 10.1296 7.41836C10.2577 7.47747 10.3956 7.53658 10.5237 7.5957C10.9079 7.77304 11.2922 7.95038 11.6764 8.11787C12.0114 8.26565 12.3365 8.42328 12.6715 8.57107C13.0064 8.71885 13.3414 8.87649 13.6764 9.02427C13.9621 9.15235 14.2577 9.29028 14.5434 9.41836C14.8291 9.54644 15.1247 9.68437 15.4104 9.81245C15.637 9.91097 15.8636 10.0193 16.0902 10.1179C16.0902 10.1474 16.1 10.1573 16.1197 10.1671Z" fill="#454A75"/>
<path d="M10.03 19.8721C10.03 19.882 10.0201 19.8918 10.0201 19.9017H10.0103C10.0103 19.882 9.99058 19.8721 9.98073 19.8524C9.36989 18.9953 8.75905 18.1283 8.14822 17.2712C7.52753 16.3943 6.89698 15.5076 6.27629 14.6308C5.67531 13.7835 5.06447 12.9263 4.46349 12.079C4.30585 11.8524 4.14822 11.6357 3.99058 11.4091C3.98073 11.3894 3.97088 11.3795 3.95117 11.35C3.98073 11.35 4.00043 11.3697 4.01029 11.3795C4.86743 11.882 5.71472 12.3845 6.57186 12.8869C7.55708 13.4682 8.53245 14.0495 9.51767 14.6308L10.0201 14.9263C10.0398 14.946 10.0398 14.9657 10.0398 14.9854V19.7342C10.0398 19.7835 10.0398 19.8327 10.03 19.8721Z" fill="#8A92B2"/>
<path d="M3.94141 10.1879V10.178C4.25668 10.0401 4.5621 9.8923 4.87737 9.75437C5.28131 9.56718 5.68525 9.38984 6.08919 9.20265C6.39461 9.06472 6.70988 8.91693 7.0153 8.779C7.4685 8.57211 7.91185 8.37506 8.36505 8.16817C8.67047 8.03024 8.97589 7.8923 9.29116 7.74452C9.50791 7.646 9.73451 7.54748 9.95126 7.44895C9.97096 7.4391 10.0005 7.42925 10.0104 7.40955C10.0202 7.40955 10.0202 7.4194 10.0104 7.42925V13.6854C10.0104 13.715 10.0005 13.7445 10.0202 13.7642C10.0005 13.7938 9.98081 13.7642 9.97096 13.7544C9.88229 13.7051 9.79362 13.6559 9.70495 13.5967C7.80347 12.4736 5.89215 11.3406 3.99067 10.2174C3.98082 10.2076 3.96111 10.1977 3.94141 10.1879Z" fill="#62688F"/>
<path d="M16.1 11.35H16.1098C16.1098 11.3697 16.0901 11.3894 16.0803 11.4091C14.2674 13.9608 12.4546 16.5224 10.6418 19.0741C10.4546 19.3401 10.2576 19.6061 10.0704 19.8721C10.0605 19.8623 10.0605 19.8524 10.0605 19.8426V19.7835V15.0051V14.9165C10.4743 14.6702 10.8783 14.4337 11.2921 14.1874C12.8881 13.2416 14.4842 12.3056 16.0704 11.3598C16.0803 11.3697 16.0901 11.3598 16.1 11.35Z" fill="#62688F"/>
<path d="M10.0607 7.4282V7.4085V7.34939V0.196677C10.0607 0.16712 10.0509 0.147416 10.0706 0.117859C12.0706 3.43806 14.0706 6.7484 16.0607 10.0686C16.0804 10.0982 16.11 10.1376 16.1198 10.177C15.9819 10.1277 15.8538 10.0587 15.7257 9.99963C15.5681 9.93067 15.4006 9.85185 15.243 9.78288C15.1445 9.73362 15.0361 9.69421 14.9376 9.64495C14.7701 9.56613 14.6026 9.49717 14.4351 9.41835C14.3366 9.37894 14.2381 9.32968 14.1395 9.28042L13.4893 8.98485C13.3809 8.93559 13.2725 8.88633 13.1543 8.83707L12.6814 8.63017C12.5829 8.59077 12.4844 8.5415 12.3858 8.49224L11.7356 8.19668C11.6272 8.14742 11.5188 8.09816 11.4006 8.04889L10.9277 7.842C10.8193 7.79274 10.7208 7.74347 10.6124 7.69421C10.4253 7.60554 10.2381 7.51687 10.041 7.43806C10.0706 7.4282 10.0607 7.4282 10.0607 7.4282Z" fill="#62688F"/>
</svg>
