<svg width="24" height="24" viewBox="0 0 24 24" fill="none" xmlns="http://www.w3.org/2000/svg">
<path d="M11.9953 0C18.6257 0 24 5.37321 24 12.0024C24 18.6315 18.6257 24 12 24C5.36954 24 3.11002e-06 18.6268 3.11002e-06 12.0024C-0.00471944 5.37321 5.36954 0 11.9953 0Z" fill="black"/>
<path fill-rule="evenodd" clip-rule="evenodd" d="M1 12.0016L1 12.0024C1 18.0746 5.9219 23 12 23C18.0739 23 23 18.0788 23 12.0024C23 5.92568 18.0736 1 11.9953 1C5.92176 1 0.995674 5.9254 1 12.0016ZM3.11002e-06 12.0024C3.11002e-06 18.6268 5.36954 24 12 24C18.6257 24 24 18.6315 24 12.0024C24 5.37321 18.6257 0 11.9953 0C5.36954 0 -0.00471944 5.37321 3.11002e-06 12.0024Z" fill="#E2E6EE"/>
<path d="M10.0898 14.3946C9.81963 14.3946 9.59146 14.1969 9.546 13.9236L8.00802 4.65996C7.98314 4.51058 8.01659 4.36119 8.10237 4.23817C8.18815 4.11515 8.31509 4.03343 8.46006 4.00794C8.76028 3.9561 9.04592 4.16348 9.09738 4.47104L10.6354 13.7346C10.6602 13.884 10.6268 14.0334 10.541 14.1564C10.4552 14.2794 10.3283 14.3612 10.1833 14.3867C10.1533 14.3919 10.1216 14.3946 10.0898 14.3946Z" fill="#CCFF00"/>
<path d="M10.0898 14.3946C9.81963 14.3946 9.59146 14.1969 9.546 13.9236L8.00802 4.65996C7.98314 4.51058 8.01659 4.36119 8.10237 4.23817C8.18815 4.11515 8.31509 4.03343 8.46006 4.00794C8.76028 3.9561 9.04592 4.16348 9.09738 4.47104L10.6354 13.7346C10.6602 13.884 10.6268 14.0334 10.541 14.1564C10.4552 14.2794 10.3283 14.3612 10.1833 14.3867C10.1533 14.3919 10.1216 14.3946 10.0898 14.3946Z" fill="#CCFF00"/>
<path d="M12.6675 10.1211C11.7884 10.1211 10.9709 10.3908 10.2872 10.8539L10.4734 11.9752C11.0609 11.4506 11.8287 11.1316 12.6675 11.1316C14.5126 11.1316 16.0137 12.6694 16.0137 14.5596C16.0137 16.4497 14.5126 17.9875 12.6675 17.9875C10.8225 17.9875 9.3214 16.4497 9.3214 14.5596C9.3214 14.3074 9.34885 14.0622 9.39945 13.8258L9.10266 12.0411C8.61888 12.7573 8.33496 13.6255 8.33496 14.5604C8.33496 17.0077 10.2787 18.9989 12.6675 18.9989C15.0564 18.9989 17.0001 17.0077 17.0001 14.5604C17.0001 12.1131 15.0573 10.1211 12.6675 10.1211Z" fill="#CCFF00"/>
<path d="M12.4309 17.1505C12.7569 17.1505 13.0211 16.8799 13.0211 16.5459C13.0211 16.212 12.7569 15.9414 12.4309 15.9414C12.105 15.9414 11.8408 16.212 11.8408 16.5459C11.8408 16.8799 12.105 17.1505 12.4309 17.1505Z" fill="#1CD8D2"/>
<path d="M14.2737 16.4474C14.5997 16.4474 14.8639 16.1768 14.8639 15.8429C14.8639 15.509 14.5997 15.2383 14.2737 15.2383C13.9478 15.2383 13.6836 15.509 13.6836 15.8429C13.6836 16.1768 13.9478 16.4474 14.2737 16.4474Z" fill="#1CD8D2"/>
<path d="M12.8255 15.1505C13.1514 15.1505 13.4156 14.8799 13.4156 14.5459C13.4156 14.2121 13.1514 13.9414 12.8255 13.9414C12.4995 13.9414 12.2354 14.2121 12.2354 14.5459C12.2354 14.8799 12.4995 15.1505 12.8255 15.1505Z" fill="#1CD8D2"/>
<path d="M10.9935 15.7677C11.3194 15.7677 11.5836 15.497 11.5836 15.1632C11.5836 14.8293 11.3194 14.5586 10.9935 14.5586C10.6675 14.5586 10.4033 14.8293 10.4033 15.1632C10.4033 15.497 10.6675 15.7677 10.9935 15.7677Z" fill="#1CD8D2"/>
<path d="M14.6516 14.5333C14.9776 14.5333 15.2418 14.2627 15.2418 13.9288C15.2418 13.5949 14.9776 13.3242 14.6516 13.3242C14.3258 13.3242 14.0615 13.5949 14.0615 13.9288C14.0615 14.2627 14.3258 14.5333 14.6516 14.5333Z" fill="#1CD8D2"/>
<path d="M13.2191 13.1505C13.545 13.1505 13.8092 12.8799 13.8092 12.546C13.8092 12.2121 13.545 11.9414 13.2191 11.9414C12.8931 11.9414 12.6289 12.2121 12.6289 12.546C12.6289 12.8799 12.8931 13.1505 13.2191 13.1505Z" fill="#1CD8D2"/>
<path d="M11.3694 13.8537C11.6954 13.8537 11.9596 13.583 11.9596 13.2491C11.9596 12.9152 11.6954 12.6445 11.3694 12.6445C11.0435 12.6445 10.7793 12.9152 10.7793 13.2491C10.7793 13.583 11.0435 13.8537 11.3694 13.8537Z" fill="#1CD8D2"/>
</svg>
