<svg width="24" height="24" viewBox="0 0 24 24" fill="none" xmlns="http://www.w3.org/2000/svg">
<path d="M11.9953 0C18.6257 0 24 5.37321 24 12.0024C24 18.6315 18.6257 24 12 24C5.36954 24 3.11002e-06 18.6268 3.11002e-06 12.0024C-0.00471944 5.37321 5.36954 0 11.9953 0Z" fill="#0C192B"/>
<path d="M10.5263 17.5282C12.7648 17.5282 14.5789 15.7141 14.5789 13.4755C14.5789 11.237 12.7648 9.4229 10.5263 9.4229C8.28779 9.4229 6.47368 11.237 6.47368 13.4755C6.47368 15.7141 8.28779 17.5282 10.5263 17.5282ZM10.5263 19.0018C7.47432 19.0018 5 16.5275 5 13.4755C5 10.4235 7.47432 7.94922 10.5263 7.94922C13.5783 7.94922 16.0526 10.4235 16.0526 13.4755C16.0526 16.5275 13.5783 19.0018 10.5263 19.0018Z" fill="#FBCC5C"/>
<path d="M13.4736 14.5789C15.7121 14.5789 17.5262 12.7648 17.5262 10.5263C17.5262 8.28779 15.7121 6.47368 13.4736 6.47368C11.2351 6.47368 9.42095 8.28779 9.42095 10.5263C9.42095 12.7648 11.2351 14.5789 13.4736 14.5789ZM13.4736 16.0526C10.4216 16.0526 7.94727 13.5783 7.94727 10.5263C7.94727 7.47432 10.4216 5 13.4736 5C16.5256 5 18.9999 7.47432 18.9999 10.5263C18.9999 13.5783 16.5256 16.0526 13.4736 16.0526Z" fill="#35D07F"/>
<path d="M13.6563 16.0545C14.0395 15.5903 14.3136 15.0465 14.4595 14.4614C15.0431 14.3155 15.5868 14.0414 16.0525 13.6583C16.0319 14.3347 15.886 15.0008 15.6222 15.6256C14.9988 15.888 14.3327 16.0338 13.6563 16.0545ZM9.54032 9.54227C8.95674 9.68817 8.41295 9.96227 7.94727 10.3454C7.9679 9.66901 8.11379 9.0029 8.37758 8.37953C9.00095 8.11722 9.66853 7.97132 10.3435 7.94922C9.96032 8.41343 9.68621 8.95722 9.54032 9.54227Z" fill="#5EA33B"/>
<path fill-rule="evenodd" clip-rule="evenodd" d="M1 12.0016L1 12.0024C1 18.0746 5.9219 23 12 23C18.0739 23 23 18.0788 23 12.0024C23 5.92568 18.0736 1 11.9953 1C5.92176 1 0.995674 5.9254 1 12.0016ZM3.11002e-06 12.0024C3.11002e-06 18.6268 5.36954 24 12 24C18.6257 24 24 18.6315 24 12.0024C24 5.37321 18.6257 0 11.9953 0C5.36954 0 -0.00471944 5.37321 3.11002e-06 12.0024Z" fill="#E2E6EE"/>
</svg>
