<svg width="24" height="24" viewBox="0 0 24 24" fill="none" xmlns="http://www.w3.org/2000/svg">
<path d="M0 12C0 5.37258 5.37258 0 12 0C18.6274 0 24 5.37258 24 12C24 18.6274 18.6274 24 12 24C5.37258 24 0 18.6274 0 12Z" fill="#161C2E"/>
<path fill-rule="evenodd" clip-rule="evenodd" d="M1 12C1 18.0751 5.92487 23 12 23C18.0751 23 23 18.0751 23 12C23 5.92487 18.0751 1 12 1C5.92487 1 1 5.92487 1 12ZM12 0C5.37258 0 0 5.37258 0 12C0 18.6274 5.37258 24 12 24C18.6274 24 24 18.6274 24 12C24 5.37258 18.6274 0 12 0Z" fill="#E2E6EE"/>
<path d="M11.9981 4L7 12.1483L11.9981 9.91651V4Z" fill="#8A92B2"/>
<path d="M11.9981 9.91797L7 12.1497L11.9981 15.053V9.91797Z" fill="#62688F"/>
<path d="M16.9971 12.1483L11.998 4V9.91651L16.9971 12.1483Z" fill="#62688F"/>
<path d="M11.998 15.053L16.9971 12.1497L11.998 9.91797V15.053Z" fill="#454A75"/>
<path d="M7 13.0781L11.9981 19.9982V15.9795L7 13.0781Z" fill="#8A92B2"/>
<path d="M11.998 15.9795V19.9982L16.9999 13.0781L11.998 15.9795Z" fill="#62688F"/>
</svg>
