<svg width="24" height="24" viewBox="0 0 24 24" fill="none" xmlns="http://www.w3.org/2000/svg">
<path d="M11.9953 0C18.6257 0 24 5.37321 24 12.0024C24 18.6315 18.6257 24 12 24C5.36954 24 3.11002e-06 18.6268 3.11002e-06 12.0024C-0.00471944 5.37321 5.36954 0 11.9953 0Z" fill="white"/>
<path d="M11.9996 11.2453C14.0003 11.2453 15.6222 9.62337 15.6222 7.62264C15.6222 5.62191 14.0003 4 11.9996 4C9.99887 4 8.37695 5.62191 8.37695 7.62264C8.37695 9.62337 9.99887 11.2453 11.9996 11.2453Z" fill="#88BDF3"/>
<path d="M11.9996 19.9992C14.0003 19.9992 15.6222 18.3773 15.6222 16.3765C15.6222 14.3758 14.0003 12.7539 11.9996 12.7539C9.99887 12.7539 8.37695 14.3758 8.37695 16.3765C8.37695 18.3773 9.99887 19.9992 11.9996 19.9992Z" fill="#3075EE"/>
<path d="M16.3775 15.6242C18.3783 15.6242 20.0002 14.0023 20.0002 12.0015C20.0002 10.0008 18.3783 8.37891 16.3775 8.37891C14.3768 8.37891 12.7549 10.0008 12.7549 12.0015C12.7549 14.0023 14.3768 15.6242 16.3775 15.6242Z" fill="#5795F1"/>
<path d="M7.62264 15.6242C9.62337 15.6242 11.2453 14.0023 11.2453 12.0015C11.2453 10.0008 9.62337 8.37891 7.62264 8.37891C5.62191 8.37891 4 10.0008 4 12.0015C4 14.0023 5.62191 15.6242 7.62264 15.6242Z" fill="#205FEC"/>
<path fill-rule="evenodd" clip-rule="evenodd" d="M11.1437 11.1447C9.831 10.8264 8.79774 9.79315 8.47949 8.48047C9.79218 8.79871 10.8254 9.83198 11.1437 11.1447Z" fill="#134BEF"/>
<path fill-rule="evenodd" clip-rule="evenodd" d="M8.47949 15.5197C8.79774 14.207 9.831 13.1737 11.1437 12.8555C10.8254 14.1682 9.79218 15.2014 8.47949 15.5197Z" fill="#0932E8"/>
<path fill-rule="evenodd" clip-rule="evenodd" d="M12.8564 12.8555C14.1691 13.1737 15.2024 14.207 15.5206 15.5197C14.208 15.2014 13.1747 14.1682 12.8564 12.8555Z" fill="#164BEA"/>
<path fill-rule="evenodd" clip-rule="evenodd" d="M15.5206 8.48047C15.2024 9.79315 14.1691 10.8264 12.8564 11.1447C13.1747 9.83198 14.208 8.79871 15.5206 8.48047Z" fill="#3170F1"/>
<path fill-rule="evenodd" clip-rule="evenodd" d="M1 12.0016L1 12.0024C1 18.0746 5.9219 23 12 23C18.0739 23 23 18.0788 23 12.0024C23 5.92568 18.0736 1 11.9953 1C5.92176 1 0.995674 5.9254 1 12.0016ZM3.11002e-06 12.0024C3.11002e-06 18.6268 5.36954 24 12 24C18.6257 24 24 18.6315 24 12.0024C24 5.37321 18.6257 0 11.9953 0C5.36954 0 -0.00471944 5.37321 3.11002e-06 12.0024Z" fill="#E2E6EE"/>
</svg>
