<svg width="24" height="24" viewBox="0 0 24 24" fill="none" xmlns="http://www.w3.org/2000/svg">
<path d="M11.9953 0C18.6257 0 24 5.37321 24 12.0024C24 18.6315 18.6257 24 12 24C5.36954 24 3.11002e-06 18.6268 3.11002e-06 12.0024C-0.00471944 5.37321 5.36954 0 11.9953 0Z" fill="#FF0420"/>
<path d="M7.1589 16C6.23054 16 5.47041 15.7927 4.87851 15.3782C4.29284 14.9578 4 14.3538 4 13.5781C4 13.4123 4.01869 13.2169 4.05608 12.98C4.15576 12.4471 4.29907 11.8075 4.48598 11.0555C5.01558 9.0185 6.38631 8 8.59192 8C9.19006 8 9.73212 8.09474 10.2056 8.29016C10.6792 8.47372 11.053 8.75796 11.3271 9.13694C11.6013 9.50999 11.7384 9.95411 11.7384 10.4693C11.7384 10.6232 11.7197 10.8187 11.6823 11.0555C11.5639 11.7128 11.4268 12.3583 11.2586 12.98C10.9845 13.9926 10.5172 14.7565 9.84427 15.2598C9.1776 15.7572 8.2804 16 7.1589 16ZM7.32712 14.4012C7.76326 14.4012 8.13086 14.2768 8.43616 14.034C8.74769 13.7913 8.97199 13.4182 9.10283 12.909C9.28352 12.2102 9.42059 11.6062 9.51405 11.0851C9.5452 10.9312 9.56389 10.7713 9.56389 10.6055C9.56389 9.93042 9.19629 9.59289 8.45485 9.59289C8.01871 9.59289 7.64488 9.71725 7.33335 9.96003C7.02805 10.2028 6.80998 10.5759 6.67914 11.0851C6.53584 11.5825 6.39877 12.1865 6.25546 12.909C6.22431 13.057 6.20562 13.211 6.20562 13.3768C6.19939 14.0637 6.57945 14.4012 7.32712 14.4012Z" fill="white"/>
<path d="M12.2805 15.8942C12.1933 15.8942 12.131 15.8705 12.0811 15.8172C12.0437 15.758 12.0313 15.6929 12.0437 15.6159L13.6575 8.39159C13.6699 8.30869 13.7135 8.24356 13.7883 8.19026C13.8568 8.13697 13.9316 8.11328 14.0126 8.11328H17.1216C17.9877 8.11328 18.6793 8.28501 19.2027 8.62253C19.7322 8.96598 20.0002 9.45747 20.0002 10.1029C20.0002 10.2865 19.9752 10.4819 19.9316 10.6832C19.7385 11.5359 19.346 12.1636 18.7478 12.5722C18.1621 12.9808 17.3584 13.1821 16.3366 13.1821H14.7603L14.2244 15.6159C14.2057 15.6988 14.1684 15.7639 14.0936 15.8172C14.0251 15.8705 13.9503 15.8942 13.8693 15.8942H12.2805ZM16.4176 11.6484C16.7478 11.6484 17.0282 11.5655 17.2712 11.3938C17.5204 11.2221 17.6824 10.9793 17.7634 10.6595C17.7883 10.5352 17.8008 10.4227 17.8008 10.3279C17.8008 10.1148 17.7322 9.94896 17.6014 9.83645C17.4706 9.71802 17.24 9.6588 16.9223 9.6588H15.5204L15.078 11.6484H16.4176V11.6484Z" fill="white"/>
<path fill-rule="evenodd" clip-rule="evenodd" d="M1 12.0016L1 12.0024C1 18.0746 5.9219 23 12 23C18.0739 23 23 18.0788 23 12.0024C23 5.92568 18.0736 1 11.9953 1C5.92176 1 0.995674 5.9254 1 12.0016ZM3.11002e-06 12.0024C3.11002e-06 18.6268 5.36954 24 12 24C18.6257 24 24 18.6315 24 12.0024C24 5.37321 18.6257 0 11.9953 0C5.36954 0 -0.00471944 5.37321 3.11002e-06 12.0024Z" fill="#E2E6EE"/>
</svg>
