<svg width="24" height="24" viewBox="0 0 24 24" fill="none" xmlns="http://www.w3.org/2000/svg">
<path d="M11.9953 0C18.6257 0 24 5.37321 24 12.0024C24 18.6315 18.6257 24 12 24C5.36954 24 3.11002e-06 18.6268 3.11002e-06 12.0024C-0.00471944 5.37321 5.36954 0 11.9953 0Z" fill="#541BFC"/>
<path fill-rule="evenodd" clip-rule="evenodd" d="M1 12.0016L1 12.0024C1 18.0746 5.9219 23 12 23C18.0739 23 23 18.0788 23 12.0024C23 5.92568 18.0736 1 11.9953 1C5.92176 1 0.995674 5.9254 1 12.0016ZM3.11002e-06 12.0024C3.11002e-06 18.6268 5.36954 24 12 24C18.6257 24 24 18.6315 24 12.0024C24 5.37321 18.6257 0 11.9953 0C5.36954 0 -0.00471944 5.37321 3.11002e-06 12.0024Z" fill="#E2E6EE"/>
<path fill-rule="evenodd" clip-rule="evenodd" d="M13.4003 5.36418C13.5291 5.21049 13.7241 5.12644 13.9257 5.13773L16.6018 5.28752C16.8055 5.29893 16.9913 5.40633 17.1013 5.57626C17.2113 5.74619 17.2321 5.95801 17.1573 6.14572L16.3581 8.15067L18.53 12.0469C18.5988 12.1702 18.6237 12.3128 18.6007 12.4518C18.5747 12.6087 18.5529 12.801 18.5274 13.026L18.5267 13.0329C18.5017 13.2531 18.4736 13.4996 18.436 13.7331C18.3991 13.9626 18.3486 14.2097 18.27 14.4262C18.202 14.6135 18.0645 14.921 17.7628 15.0943C17.5996 15.188 17.3858 15.2522 17.215 15.2978C17.0255 15.3484 16.8079 15.3961 16.5958 15.4403C16.4809 15.4642 16.3691 15.4869 16.2622 15.5086C16.0717 15.5473 15.8969 15.5828 15.7484 15.6165L15.2985 16.4253C15.2506 16.5114 15.1829 16.5853 15.1009 16.6408C14.3115 17.176 13.0486 17.7357 11.7847 18.1546C10.5287 18.5709 9.16817 18.8829 8.18552 18.8592C7.97649 18.8542 7.78333 18.7478 7.66891 18.5748C7.15168 17.7925 6.69599 16.3824 6.40305 15.0914C6.25341 14.4319 6.13965 13.7743 6.08049 13.2033C6.02376 12.6558 6.00842 12.114 6.10145 11.7276C6.10986 11.6927 6.12127 11.6586 6.13557 11.6256C6.14814 11.5966 6.16276 11.5626 6.17906 11.5246C6.24102 11.3805 6.32731 11.1797 6.41811 10.9821C6.48123 10.8447 6.55477 10.6903 6.63136 10.5475L6.03118 8.72248C5.95789 8.49961 6.01605 8.25493 6.18207 8.08768L7.84829 6.40915C7.96784 6.28872 8.13134 6.22087 8.302 6.22087H12.6821L13.4003 5.36418ZM14.1743 6.41098L13.4704 7.25074C13.3496 7.39482 13.1702 7.4782 12.9809 7.4782H8.56881L7.35964 8.6963L7.92883 10.4271C7.98998 10.6131 7.96016 10.8165 7.84813 10.9777C7.78705 11.0655 7.68853 11.2567 7.57573 11.5022C7.49223 11.6839 7.41456 11.8646 7.35273 12.0085C7.34467 12.0272 7.33688 12.0453 7.32939 12.0627C7.29794 12.242 7.29449 12.5838 7.34539 13.0751C7.39837 13.5864 7.50256 14.194 7.64373 14.8161C7.89027 15.9027 8.23066 16.9501 8.56363 17.5939C9.31029 17.5453 10.3343 17.3092 11.3806 16.9624C12.5196 16.5849 13.5939 16.1067 14.2597 15.684L14.7672 14.7716C14.8484 14.6255 14.9851 14.5173 15.147 14.4708C15.3818 14.4034 15.7284 14.3332 16.0541 14.2672C16.1502 14.2477 16.2445 14.2286 16.3336 14.21C16.5414 14.1667 16.7302 14.1249 16.8836 14.0839C16.9571 14.0643 17.0164 14.0465 17.062 14.0307C17.0654 14.0222 17.0692 14.0125 17.0732 14.0014C17.1116 13.8957 17.1474 13.7398 17.1803 13.5355C17.2125 13.3353 17.2376 13.1175 17.263 12.8929L17.266 12.8668C17.2809 12.735 17.2963 12.599 17.3135 12.4691L15.1002 8.49869C15.0088 8.33468 14.9961 8.13891 15.0655 7.96468L15.6519 6.49369L14.1743 6.41098ZM17.0381 14.0801C17.0381 14.08 17.0387 14.0789 17.0402 14.077C17.0388 14.0792 17.0381 14.0802 17.0381 14.0801Z" fill="white"/>
</svg>
