<svg width="18" height="18" viewBox="0 0 18 18" fill="none" xmlns="http://www.w3.org/2000/svg">
<path d="M11.25 17.0625H6.75C2.6775 17.0625 0.9375 15.3225 0.9375 11.25V6.75C0.9375 2.6775 2.6775 0.9375 6.75 0.9375H11.25C15.3225 0.9375 17.0625 2.6775 17.0625 6.75V11.25C17.0625 15.3225 15.3225 17.0625 11.25 17.0625ZM6.75 2.0625C3.2925 2.0625 2.0625 3.2925 2.0625 6.75V11.25C2.0625 14.7075 3.2925 15.9375 6.75 15.9375H11.25C14.7075 15.9375 15.9375 14.7075 15.9375 11.25V6.75C15.9375 3.2925 14.7075 2.0625 11.25 2.0625H6.75Z" fill="#07B142"/>
<path d="M7.93508 11.6852C7.78508 11.6852 7.64258 11.6252 7.53758 11.5202L5.41508 9.3977C5.19758 9.1802 5.19758 8.8202 5.41508 8.6027C5.63258 8.3852 5.99258 8.3852 6.21008 8.6027L7.93508 10.3277L11.7901 6.4727C12.0076 6.2552 12.3676 6.2552 12.5851 6.4727C12.8026 6.6902 12.8026 7.05019 12.5851 7.26769L8.33258 11.5202C8.22758 11.6252 8.08508 11.6852 7.93508 11.6852Z" fill="#07B142"/>
</svg>
