<svg width="24" height="24" viewBox="0 0 24 24" fill="none" xmlns="http://www.w3.org/2000/svg">
<path d="M0 12C0 5.37258 5.37258 0 12 0C18.6274 0 24 5.37258 24 12C24 18.6274 18.6274 24 12 24C5.37258 24 0 18.6274 0 12Z" fill="white"/>
<path d="M10.424 19V15.75C8.64849 15.75 7.21201 14.2965 7.21201 12.5H4C4 16.0931 6.87296 19 10.424 19Z" fill="#0071FF"/>
<path d="M10.4248 19V15.75C12.2003 15.75 13.6368 14.2965 13.6368 12.5H16.8488C16.8488 16.0931 13.9759 19 10.4248 19Z" fill="#142438"/>
<path d="M13.5762 6V9.25C15.3517 9.25 16.7882 10.7035 16.7882 12.5H20.0002C20.0002 8.90695 17.1272 6 13.5762 6Z" fill="#0071FF"/>
<path d="M13.5754 6V9.25C11.7999 9.25 10.3634 10.7035 10.3634 12.5H7.15137C7.15137 8.90695 10.0243 6 13.5754 6Z" fill="#142438"/>
<path fill-rule="evenodd" clip-rule="evenodd" d="M1 12C1 18.0751 5.92487 23 12 23C18.0751 23 23 18.0751 23 12C23 5.92487 18.0751 1 12 1C5.92487 1 1 5.92487 1 12ZM12 0C5.37258 0 0 5.37258 0 12C0 18.6274 5.37258 24 12 24C18.6274 24 24 18.6274 24 12C24 5.37258 18.6274 0 12 0Z" fill="#E2E6EE"/>
</svg>
