<svg width="24" height="24" viewBox="0 0 24 24" fill="none" xmlns="http://www.w3.org/2000/svg">
<path d="M0 12C0 5.37258 5.37258 0 12 0C18.6274 0 24 5.37258 24 12C24 18.6274 18.6274 24 12 24C5.37258 24 0 18.6274 0 12Z" fill="#F5B4FE"/>
<path fill-rule="evenodd" clip-rule="evenodd" d="M12.7695 5.03489C10.4512 5.59922 8.43517 6.09208 8.28945 6.13012C7.82046 6.25256 7.85609 6.46311 8.60909 8.01688C9.54334 9.94439 9.59232 9.84514 7.46971 10.3225C6.04169 10.6437 6.05253 10.6298 6.01168 12.182C5.96873 13.8209 6.03637 14.2867 6.34698 14.4902C6.56707 14.6344 6.68078 14.6248 7.81013 14.366C9.57084 13.9627 9.48393 14.0815 9.52447 12.0232C9.55769 10.3354 9.5604 10.3174 9.82324 10.0548C10.0543 9.82396 10.54 9.68135 13.5867 8.94983C15.5107 8.48787 17.1865 8.06526 17.3108 8.01066C17.5331 7.91291 17.5366 7.8832 17.5366 6.07261C17.5366 4.19529 17.4959 3.98292 17.1402 4.00099C17.0546 4.0053 15.0878 4.47057 12.7695 5.03489ZM13.8735 10.1578C12.2175 10.5569 10.761 10.938 10.6369 11.0046C10.2779 11.1971 10.3562 11.5982 11.0132 12.9333C11.3444 13.6062 11.6154 14.2134 11.6154 14.2825C11.6154 14.3517 11.5355 14.5068 11.4379 14.6274C11.2945 14.8044 10.8084 14.9507 8.90385 15.3899C7.6077 15.6888 6.44564 15.978 6.32139 16.0328C6.09869 16.131 6.09558 16.1583 6.09558 18.0345C6.09558 19.8263 6.10682 19.9403 6.28948 19.9982C6.47334 20.0566 12.8189 18.6506 13.2964 18.4457C13.4205 18.3924 13.5229 18.2914 13.5238 18.2212C13.5246 18.151 13.2228 17.4488 12.8531 16.6607C11.9049 14.6396 11.7588 14.8334 14.8023 14.0758C16.3246 13.6968 17.301 13.4045 17.411 13.2947C17.5605 13.1454 17.5915 12.8834 17.6185 11.5406C17.6548 9.72892 17.5856 9.40737 17.1628 9.42232C17.0096 9.42774 15.5294 9.75873 13.8735 10.1578Z" fill="black"/>
<path fill-rule="evenodd" clip-rule="evenodd" d="M1 12C1 18.0751 5.92487 23 12 23C18.0751 23 23 18.0751 23 12C23 5.92487 18.0751 1 12 1C5.92487 1 1 5.92487 1 12ZM12 0C5.37258 0 0 5.37258 0 12C0 18.6274 5.37258 24 12 24C18.6274 24 24 18.6274 24 12C24 5.37258 18.6274 0 12 0Z" fill="#E2E6EE"/>
</svg>
