<svg width="20" height="20" viewBox="0 0 20 20" fill="none" xmlns="http://www.w3.org/2000/svg">
<path d="M7.64245 12.9831C7.48411 12.9831 7.32578 12.9248 7.20078 12.7998C6.95911 12.5581 6.95911 12.1581 7.20078 11.9165L11.9174 7.1998C12.1591 6.95814 12.5591 6.95814 12.8008 7.1998C13.0424 7.44147 13.0424 7.84147 12.8008 8.08314L8.08411 12.7998C7.96745 12.9248 7.80078 12.9831 7.64245 12.9831Z" fill="#E74142"/>
<path d="M12.3591 12.9831C12.2008 12.9831 12.0424 12.9248 11.9174 12.7998L7.20078 8.08314C6.95911 7.84147 6.95911 7.44147 7.20078 7.1998C7.44245 6.95814 7.84245 6.95814 8.08411 7.1998L12.8008 11.9165C13.0424 12.1581 13.0424 12.5581 12.8008 12.7998C12.6758 12.9248 12.5174 12.9831 12.3591 12.9831Z" fill="#E74142"/>
<path d="M12.4993 18.9582H7.49935C2.97435 18.9582 1.04102 17.0248 1.04102 12.4998V7.49984C1.04102 2.97484 2.97435 1.0415 7.49935 1.0415H12.4993C17.0243 1.0415 18.9577 2.97484 18.9577 7.49984V12.4998C18.9577 17.0248 17.0243 18.9582 12.4993 18.9582ZM7.49935 2.2915C3.65768 2.2915 2.29102 3.65817 2.29102 7.49984V12.4998C2.29102 16.3415 3.65768 17.7082 7.49935 17.7082H12.4993C16.341 17.7082 17.7077 16.3415 17.7077 12.4998V7.49984C17.7077 3.65817 16.341 2.2915 12.4993 2.2915H7.49935Z" fill="#E74142"/>
</svg>
