<svg width="14" height="14" viewBox="0 0 14 14" fill="none" xmlns="http://www.w3.org/2000/svg">
<rect width="14" height="14" rx="7" fill="#FEBCFE"/>
<path fill-rule="evenodd" clip-rule="evenodd" d="M7.46459 3.72435C6.3839 3.98896 5.44411 4.22011 5.37618 4.238C5.30825 4.25588 5.24069 4.30204 5.22605 4.34055C5.21136 4.37911 5.34591 4.7214 5.525 5.10121C5.70404 5.48102 5.85056 5.80665 5.85056 5.82482C5.85056 5.95352 5.67831 6.03606 5.10601 6.1816C4.76219 6.2691 4.44697 6.37486 4.40552 6.41662C4.34526 6.47736 4.32692 6.62276 4.31419 7.14042C4.28664 8.26074 4.32903 8.30708 5.19232 8.10038C5.50437 8.02567 5.80116 7.92666 5.85192 7.88036C5.93632 7.8033 5.94413 7.7326 5.94413 7.04604C5.94413 6.23063 5.97936 6.08094 6.19461 5.98197C6.25908 5.95238 7.0238 5.75714 7.89402 5.54813C8.76429 5.33916 9.52363 5.14732 9.58155 5.12188C9.68522 5.07634 9.68681 5.06246 9.68681 4.21096C9.68681 3.32797 9.66754 3.22656 9.50202 3.23812C9.46211 3.2409 8.54529 3.45969 7.46459 3.72435ZM7.93393 6.14389C7.13711 6.33696 6.45814 6.51752 6.42516 6.54513C6.31372 6.63838 6.36457 6.84117 6.64612 7.42646C6.80036 7.74718 6.92658 8.04653 6.92658 8.09165C6.92658 8.26886 6.74305 8.34149 5.65337 8.59567C5.05422 8.73541 4.51667 8.87038 4.45876 8.89558C4.3549 8.94079 4.35349 8.95325 4.35349 9.83822C4.35349 10.729 4.35419 10.7352 4.45876 10.761C4.54292 10.7818 5.56411 10.5561 7.66029 10.0532C7.84981 10.0077 7.82656 9.87658 7.51203 9.21678C7.20415 8.57094 7.15564 8.38472 7.27021 8.28882C7.30478 8.25984 7.81425 8.1177 8.40237 7.97286C8.99048 7.82807 9.5073 7.69036 9.5509 7.66681C9.68803 7.59277 9.73359 7.34524 9.73359 6.6742C9.73359 5.91453 9.69982 5.779 9.51254 5.78716C9.44115 5.79027 8.73074 5.95083 7.93393 6.14389Z" fill="black"/>
</svg>
