<svg width="32" height="32" viewBox="0 0 32 32" fill="none" xmlns="http://www.w3.org/2000/svg">
<path d="M15.9984 29.3334C23.3317 29.3334 29.3317 23.3334 29.3317 16.0001C29.3317 8.66675 23.3317 2.66675 15.9984 2.66675C8.66504 2.66675 2.66504 8.66675 2.66504 16.0001C2.66504 23.3334 8.66504 29.3334 15.9984 29.3334Z" fill="#0BDA76" fill-opacity="0.15"/>
<path d="M15.9985 29.3335C23.3318 29.3335 29.3318 23.3335 29.3318 16.0002C29.3318 8.66685 23.3318 2.66685 15.9985 2.66685C8.66518 2.66685 2.66518 8.66685 2.66518 16.0002C2.66518 23.3335 8.66518 29.3335 15.9985 29.3335Z" stroke="#0BDA76" stroke-width="2" stroke-linecap="round" stroke-linejoin="round"/>
<path d="M10.3348 15.9999L14.1082 19.7732L21.6682 12.2266" stroke="#0BDA76" stroke-width="2" stroke-linecap="round" stroke-linejoin="round"/>
</svg>
