<svg width="20" height="20" viewBox="0 0 20 20" fill="none" xmlns="http://www.w3.org/2000/svg">
<path d="M12.5003 18.9582H7.50033C2.97533 18.9582 1.04199 17.0248 1.04199 12.4998V7.49984C1.04199 2.97484 2.97533 1.0415 7.50033 1.0415H12.5003C17.0253 1.0415 18.9587 2.97484 18.9587 7.49984V12.4998C18.9587 17.0248 17.0253 18.9582 12.5003 18.9582ZM7.50033 2.2915C3.65866 2.2915 2.29199 3.65817 2.29199 7.49984V12.4998C2.29199 16.3415 3.65866 17.7082 7.50033 17.7082H12.5003C16.342 17.7082 17.7087 16.3415 17.7087 12.4998V7.49984C17.7087 3.65817 16.342 2.2915 12.5003 2.2915H7.50033Z" fill="#2686FF"/>
<path d="M10 12.425C9.84167 12.425 9.68334 12.3667 9.55834 12.2417L6.61667 9.3C6.37501 9.05833 6.37501 8.65833 6.61667 8.41666C6.85834 8.175 7.25834 8.175 7.50001 8.41666L10 10.9167L12.5 8.41666C12.7417 8.175 13.1417 8.175 13.3833 8.41666C13.625 8.65833 13.625 9.05833 13.3833 9.3L10.4417 12.2417C10.3167 12.3667 10.1583 12.425 10 12.425Z" fill="#2686FF"/>
</svg>
