<svg width="309" height="34" viewBox="0 0 309 34" fill="none" xmlns="http://www.w3.org/2000/svg">
<path d="M229.057 12V3.27273H232.006C232.69 3.27273 233.25 3.39631 233.685 3.64347C234.122 3.88778 234.446 4.21875 234.656 4.63636C234.866 5.05398 234.972 5.51989 234.972 6.03409C234.972 6.5483 234.866 7.01562 234.656 7.43608C234.449 7.85653 234.128 8.19176 233.693 8.44176C233.259 8.68892 232.702 8.8125 232.023 8.8125H229.909V7.875H231.989C232.457 7.875 232.834 7.79403 233.118 7.6321C233.402 7.47017 233.608 7.25142 233.736 6.97585C233.866 6.69744 233.932 6.38352 233.932 6.03409C233.932 5.68466 233.866 5.37216 233.736 5.09659C233.608 4.82102 233.401 4.60511 233.114 4.44886C232.827 4.28977 232.446 4.21023 231.972 4.21023H230.114V12H229.057ZM239.126 12.1364C238.536 12.1364 238.017 11.9957 237.571 11.7145C237.128 11.4332 236.781 11.0398 236.531 10.5341C236.284 10.0284 236.161 9.4375 236.161 8.76136C236.161 8.07955 236.284 7.48437 236.531 6.97585C236.781 6.46733 237.128 6.07244 237.571 5.79119C238.017 5.50994 238.536 5.36932 239.126 5.36932C239.717 5.36932 240.234 5.50994 240.678 5.79119C241.124 6.07244 241.47 6.46733 241.717 6.97585C241.967 7.48437 242.092 8.07955 242.092 8.76136C242.092 9.4375 241.967 10.0284 241.717 10.5341C241.47 11.0398 241.124 11.4332 240.678 11.7145C240.234 11.9957 239.717 12.1364 239.126 12.1364ZM239.126 11.233C239.575 11.233 239.945 11.1179 240.234 10.8878C240.524 10.6577 240.739 10.3551 240.878 9.98011C241.017 9.60511 241.087 9.19886 241.087 8.76136C241.087 8.32386 241.017 7.91619 240.878 7.53835C240.739 7.16051 240.524 6.85511 240.234 6.62216C239.945 6.3892 239.575 6.27273 239.126 6.27273C238.678 6.27273 238.308 6.3892 238.018 6.62216C237.729 6.85511 237.514 7.16051 237.375 7.53835C237.236 7.91619 237.166 8.32386 237.166 8.76136C237.166 9.19886 237.236 9.60511 237.375 9.98011C237.514 10.3551 237.729 10.6577 238.018 10.8878C238.308 11.1179 238.678 11.233 239.126 11.233ZM244.888 12L242.893 5.45455H243.95L245.365 10.4659H245.433L246.831 5.45455H247.905L249.286 10.4489H249.354L250.768 5.45455H251.825L249.831 12H248.842L247.411 6.97159H247.308L245.876 12H244.888ZM255.676 12.1364C255.046 12.1364 254.502 11.9972 254.044 11.7188C253.59 11.4375 253.239 11.0455 252.992 10.5426C252.748 10.0369 252.625 9.44886 252.625 8.77841C252.625 8.10795 252.748 7.51705 252.992 7.00568C253.239 6.49148 253.583 6.09091 254.023 5.80398C254.466 5.5142 254.983 5.36932 255.574 5.36932C255.915 5.36932 256.252 5.42614 256.584 5.53977C256.917 5.65341 257.219 5.83807 257.492 6.09375C257.765 6.34659 257.982 6.68182 258.144 7.09943C258.306 7.51705 258.387 8.03125 258.387 8.64205V9.06818H253.341V8.19886H257.364C257.364 7.82955 257.29 7.5 257.142 7.21023C256.998 6.92045 256.79 6.69176 256.52 6.52415C256.253 6.35653 255.938 6.27273 255.574 6.27273C255.174 6.27273 254.827 6.37216 254.534 6.57102C254.245 6.76705 254.022 7.02273 253.865 7.33807C253.709 7.65341 253.631 7.99148 253.631 8.35227V8.93182C253.631 9.42614 253.716 9.84517 253.887 10.1889C254.06 10.5298 254.3 10.7898 254.607 10.9688C254.914 11.1449 255.27 11.233 255.676 11.233C255.941 11.233 256.179 11.196 256.392 11.1222C256.608 11.0455 256.794 10.9318 256.951 10.7812C257.107 10.6278 257.228 10.4375 257.313 10.2102L258.284 10.483C258.182 10.8125 258.01 11.1023 257.769 11.3523C257.527 11.5994 257.229 11.7926 256.874 11.9318C256.519 12.0682 256.12 12.1364 255.676 12.1364ZM259.917 12V5.45455H260.888V6.44318H260.956C261.076 6.11932 261.292 5.85653 261.604 5.65483C261.917 5.45312 262.269 5.35227 262.661 5.35227C262.735 5.35227 262.827 5.35369 262.938 5.35653C263.049 5.35937 263.132 5.36364 263.189 5.36932V6.39205C263.155 6.38352 263.077 6.37074 262.955 6.35369C262.836 6.33381 262.709 6.32386 262.576 6.32386C262.257 6.32386 261.973 6.39062 261.723 6.52415C261.476 6.65483 261.28 6.83665 261.135 7.0696C260.993 7.29972 260.922 7.5625 260.922 7.85795V12H259.917ZM266.926 12.1364C266.296 12.1364 265.752 11.9972 265.294 11.7188C264.84 11.4375 264.489 11.0455 264.242 10.5426C263.998 10.0369 263.875 9.44886 263.875 8.77841C263.875 8.10795 263.998 7.51705 264.242 7.00568C264.489 6.49148 264.833 6.09091 265.273 5.80398C265.716 5.5142 266.233 5.36932 266.824 5.36932C267.165 5.36932 267.502 5.42614 267.834 5.53977C268.167 5.65341 268.469 5.83807 268.742 6.09375C269.015 6.34659 269.232 6.68182 269.394 7.09943C269.556 7.51705 269.637 8.03125 269.637 8.64205V9.06818H264.591V8.19886H268.614C268.614 7.82955 268.54 7.5 268.392 7.21023C268.248 6.92045 268.04 6.69176 267.77 6.52415C267.503 6.35653 267.188 6.27273 266.824 6.27273C266.424 6.27273 266.077 6.37216 265.784 6.57102C265.495 6.76705 265.272 7.02273 265.115 7.33807C264.959 7.65341 264.881 7.99148 264.881 8.35227V8.93182C264.881 9.42614 264.966 9.84517 265.137 10.1889C265.31 10.5298 265.55 10.7898 265.857 10.9688C266.164 11.1449 266.52 11.233 266.926 11.233C267.191 11.233 267.429 11.196 267.642 11.1222C267.858 11.0455 268.044 10.9318 268.201 10.7812C268.357 10.6278 268.478 10.4375 268.563 10.2102L269.534 10.483C269.432 10.8125 269.26 11.1023 269.019 11.3523C268.777 11.5994 268.479 11.7926 268.124 11.9318C267.769 12.0682 267.37 12.1364 266.926 12.1364ZM273.638 12.1364C273.093 12.1364 272.611 11.9986 272.194 11.723C271.776 11.4446 271.449 11.0526 271.213 10.5469C270.978 10.0384 270.86 9.4375 270.86 8.74432C270.86 8.05682 270.978 7.46023 271.213 6.95455C271.449 6.44886 271.777 6.05824 272.198 5.78267C272.618 5.5071 273.104 5.36932 273.655 5.36932C274.081 5.36932 274.418 5.44034 274.665 5.58239C274.915 5.72159 275.105 5.88068 275.236 6.05966C275.37 6.2358 275.473 6.38068 275.547 6.49432H275.632V3.27273H276.638V12H275.667V10.9943H275.547C275.473 11.1136 275.368 11.2642 275.232 11.446C275.096 11.625 274.901 11.7855 274.648 11.9276C274.395 12.0668 274.059 12.1364 273.638 12.1364ZM273.775 11.233C274.178 11.233 274.519 11.1278 274.797 10.9176C275.076 10.7045 275.287 10.4105 275.432 10.0355C275.577 9.65767 275.65 9.22159 275.65 8.72727C275.65 8.23864 275.578 7.81108 275.436 7.4446C275.294 7.07528 275.084 6.78835 274.806 6.58381C274.527 6.37642 274.184 6.27273 273.775 6.27273C273.348 6.27273 272.993 6.3821 272.709 6.60085C272.428 6.81676 272.216 7.1108 272.074 7.48295C271.935 7.85227 271.865 8.26705 271.865 8.72727C271.865 9.19318 271.936 9.61648 272.078 9.99716C272.223 10.375 272.436 10.6761 272.718 10.9006C273.002 11.1222 273.354 11.233 273.775 11.233ZM282.131 12V3.27273H283.137V6.49432H283.222C283.296 6.38068 283.398 6.2358 283.529 6.05966C283.662 5.88068 283.853 5.72159 284.1 5.58239C284.35 5.44034 284.688 5.36932 285.114 5.36932C285.665 5.36932 286.151 5.5071 286.571 5.78267C286.992 6.05824 287.32 6.44886 287.556 6.95455C287.792 7.46023 287.909 8.05682 287.909 8.74432C287.909 9.4375 287.792 10.0384 287.556 10.5469C287.32 11.0526 286.993 11.4446 286.576 11.723C286.158 11.9986 285.676 12.1364 285.131 12.1364C284.711 12.1364 284.374 12.0668 284.121 11.9276C283.868 11.7855 283.674 11.625 283.537 11.446C283.401 11.2642 283.296 11.1136 283.222 10.9943H283.103V12H282.131ZM283.12 8.72727C283.12 9.22159 283.192 9.65767 283.337 10.0355C283.482 10.4105 283.694 10.7045 283.972 10.9176C284.25 11.1278 284.591 11.233 284.995 11.233C285.415 11.233 285.766 11.1222 286.047 10.9006C286.331 10.6761 286.544 10.375 286.686 9.99716C286.831 9.61648 286.904 9.19318 286.904 8.72727C286.904 8.26705 286.833 7.85227 286.691 7.48295C286.551 7.1108 286.34 6.81676 286.056 6.60085C285.775 6.3821 285.421 6.27273 284.995 6.27273C284.586 6.27273 284.242 6.37642 283.963 6.58381C283.685 6.78835 283.475 7.07528 283.333 7.4446C283.191 7.81108 283.12 8.23864 283.12 8.72727ZM289.861 14.4545C289.691 14.4545 289.539 14.4403 289.405 14.4119C289.272 14.3864 289.179 14.3608 289.128 14.3352L289.384 13.4489C289.628 13.5114 289.844 13.5341 290.032 13.517C290.219 13.5 290.385 13.4162 290.53 13.2656C290.678 13.1179 290.813 12.8778 290.935 12.5455L291.123 12.0341L288.702 5.45455H289.793L291.6 10.6705H291.668L293.475 5.45455H294.566L291.787 12.9545C291.662 13.2926 291.507 13.5724 291.323 13.794C291.138 14.0185 290.924 14.1847 290.679 14.2926C290.438 14.4006 290.165 14.4545 289.861 14.4545ZM229.415 28H228.307L231.511 19.2727H232.602L235.807 28H234.699L232.091 20.6534H232.023L229.415 28ZM229.824 24.5909H234.29V25.5284H229.824V24.5909ZM241.666 22.9205L240.763 23.1761C240.706 23.0256 240.622 22.8793 240.511 22.7372C240.403 22.5923 240.256 22.473 240.068 22.3793C239.881 22.2855 239.641 22.2386 239.348 22.2386C238.947 22.2386 238.614 22.331 238.347 22.5156C238.082 22.6974 237.95 22.929 237.95 23.2102C237.95 23.4602 238.041 23.6577 238.223 23.8026C238.405 23.9474 238.689 24.0682 239.075 24.1648L240.047 24.4034C240.632 24.5455 241.068 24.7628 241.355 25.0554C241.642 25.3452 241.786 25.7187 241.786 26.1761C241.786 26.5511 241.678 26.8864 241.462 27.1818C241.249 27.4773 240.95 27.7102 240.567 27.8807C240.183 28.0511 239.737 28.1364 239.229 28.1364C238.561 28.1364 238.009 27.9915 237.571 27.7017C237.134 27.4119 236.857 26.9886 236.74 26.4318L237.695 26.1932C237.786 26.5455 237.957 26.8097 238.21 26.9858C238.466 27.1619 238.8 27.25 239.212 27.25C239.68 27.25 240.053 27.1506 240.328 26.9517C240.607 26.75 240.746 26.5085 240.746 26.2273C240.746 26 240.666 25.8097 240.507 25.6562C240.348 25.5 240.104 25.3835 239.774 25.3068L238.683 25.0511C238.084 24.9091 237.643 24.6889 237.362 24.3906C237.084 24.0895 236.945 23.7131 236.945 23.2614C236.945 22.892 237.048 22.5653 237.256 22.2812C237.466 21.9972 237.751 21.7741 238.112 21.6122C238.476 21.4503 238.888 21.3693 239.348 21.3693C239.996 21.3693 240.504 21.5114 240.874 21.7955C241.246 22.0795 241.51 22.4545 241.666 22.9205ZM246.146 21.4545V22.3068H242.754V21.4545H246.146ZM243.743 19.8864H244.748V26.125C244.748 26.4091 244.789 26.6222 244.872 26.7642C244.957 26.9034 245.065 26.9972 245.196 27.0455C245.329 27.0909 245.47 27.1136 245.618 27.1136C245.728 27.1136 245.819 27.108 245.89 27.0966C245.961 27.0824 246.018 27.071 246.061 27.0625L246.265 27.9659C246.197 27.9915 246.102 28.017 245.98 28.0426C245.858 28.071 245.703 28.0852 245.515 28.0852C245.231 28.0852 244.953 28.0241 244.68 27.902C244.41 27.7798 244.186 27.5938 244.007 27.3438C243.831 27.0938 243.743 26.7784 243.743 26.3977V19.8864ZM250.333 28.1364C249.702 28.1364 249.158 27.9972 248.701 27.7188C248.246 27.4375 247.895 27.0455 247.648 26.5426C247.404 26.0369 247.282 25.4489 247.282 24.7784C247.282 24.108 247.404 23.517 247.648 23.0057C247.895 22.4915 248.239 22.0909 248.679 21.804C249.123 21.5142 249.64 21.3693 250.23 21.3693C250.571 21.3693 250.908 21.4261 251.24 21.5398C251.573 21.6534 251.875 21.8381 252.148 22.0938C252.421 22.3466 252.638 22.6818 252.8 23.0994C252.962 23.517 253.043 24.0312 253.043 24.642V25.0682H247.998V24.1989H252.02C252.02 23.8295 251.946 23.5 251.799 23.2102C251.654 22.9205 251.446 22.6918 251.176 22.5241C250.909 22.3565 250.594 22.2727 250.23 22.2727C249.83 22.2727 249.483 22.3722 249.191 22.571C248.901 22.767 248.678 23.0227 248.522 23.3381C248.365 23.6534 248.287 23.9915 248.287 24.3523V24.9318C248.287 25.4261 248.373 25.8452 248.543 26.1889C248.716 26.5298 248.956 26.7898 249.263 26.9688C249.57 27.1449 249.926 27.233 250.333 27.233C250.597 27.233 250.836 27.196 251.049 27.1222C251.265 27.0455 251.451 26.9318 251.607 26.7812C251.763 26.6278 251.884 26.4375 251.969 26.2102L252.941 26.483C252.838 26.8125 252.667 27.1023 252.425 27.3523C252.184 27.5994 251.885 27.7926 251.53 27.9318C251.175 28.0682 250.776 28.1364 250.333 28.1364ZM254.573 28V21.4545H255.544V22.4432H255.613C255.732 22.1193 255.948 21.8565 256.26 21.6548C256.573 21.4531 256.925 21.3523 257.317 21.3523C257.391 21.3523 257.483 21.3537 257.594 21.3565C257.705 21.3594 257.789 21.3636 257.846 21.3693V22.392C257.811 22.3835 257.733 22.3707 257.611 22.3537C257.492 22.3338 257.365 22.3239 257.232 22.3239C256.914 22.3239 256.63 22.3906 256.38 22.5241C256.132 22.6548 255.936 22.8366 255.792 23.0696C255.65 23.2997 255.578 23.5625 255.578 23.858V28H254.573ZM259.038 28V21.4545H260.043V28H259.038ZM259.549 20.3636C259.353 20.3636 259.184 20.2969 259.042 20.1634C258.903 20.0298 258.833 19.8693 258.833 19.6818C258.833 19.4943 258.903 19.3338 259.042 19.2003C259.184 19.0668 259.353 19 259.549 19C259.745 19 259.913 19.0668 260.052 19.2003C260.194 19.3338 260.265 19.4943 260.265 19.6818C260.265 19.8693 260.194 20.0298 260.052 20.1634C259.913 20.2969 259.745 20.3636 259.549 20.3636ZM261.698 28V27.233L265.414 22.4602V22.392H261.817V21.4545H266.709V22.2557L263.096 26.9943V27.0625H266.828V28H261.698ZM268.377 28V21.4545H269.349V22.4773H269.434C269.571 22.1278 269.791 21.8565 270.095 21.6634C270.399 21.4673 270.764 21.3693 271.19 21.3693C271.622 21.3693 271.981 21.4673 272.268 21.6634C272.558 21.8565 272.784 22.1278 272.946 22.4773H273.014C273.181 22.1392 273.433 21.8707 273.768 21.6719C274.103 21.4702 274.505 21.3693 274.974 21.3693C275.559 21.3693 276.038 21.5526 276.41 21.919C276.782 22.2827 276.968 22.8494 276.968 23.6193V28H275.963V23.6193C275.963 23.1364 275.831 22.7912 275.566 22.5838C275.302 22.3764 274.991 22.2727 274.633 22.2727C274.173 22.2727 273.816 22.4119 273.564 22.6903C273.311 22.9659 273.184 23.3153 273.184 23.7386V28H272.162V23.517C272.162 23.1449 272.041 22.8452 271.799 22.6179C271.558 22.3878 271.247 22.2727 270.866 22.2727C270.605 22.2727 270.36 22.3423 270.133 22.4815C269.909 22.6207 269.727 22.8139 269.588 23.0611C269.451 23.3054 269.383 23.5881 269.383 23.9091V28H268.377ZM283.188 19.2727V28H282.182V19.2727H283.188ZM286.956 28.1534C286.541 28.1534 286.165 28.0753 285.827 27.919C285.489 27.7599 285.22 27.5312 285.021 27.233C284.822 26.9318 284.723 26.5682 284.723 26.142C284.723 25.767 284.797 25.4631 284.945 25.2301C285.092 24.9943 285.29 24.8097 285.537 24.6761C285.784 24.5426 286.057 24.4432 286.355 24.3778C286.656 24.3097 286.959 24.2557 287.263 24.2159C287.661 24.1648 287.983 24.1264 288.23 24.1009C288.48 24.0724 288.662 24.0256 288.776 23.9602C288.892 23.8949 288.95 23.7812 288.95 23.6193V23.5852C288.95 23.1648 288.835 22.8381 288.605 22.6051C288.378 22.3722 288.033 22.2557 287.57 22.2557C287.089 22.2557 286.713 22.3608 286.44 22.571C286.168 22.7812 285.976 23.0057 285.865 23.2443L284.911 22.9034C285.081 22.5057 285.308 22.196 285.592 21.9744C285.879 21.75 286.192 21.5937 286.53 21.5057C286.871 21.4148 287.206 21.3693 287.536 21.3693C287.746 21.3693 287.987 21.3949 288.26 21.446C288.536 21.4943 288.801 21.5952 289.057 21.7486C289.315 21.902 289.53 22.1335 289.7 22.4432C289.871 22.7528 289.956 23.1676 289.956 23.6875V28H288.95V27.1136H288.899C288.831 27.2557 288.717 27.4077 288.558 27.5696C288.399 27.7315 288.188 27.8693 287.923 27.983C287.659 28.0966 287.337 28.1534 286.956 28.1534ZM287.109 27.25C287.507 27.25 287.842 27.1719 288.115 27.0156C288.391 26.8594 288.598 26.6577 288.737 26.4105C288.879 26.1634 288.95 25.9034 288.95 25.6307V24.7102C288.908 24.7614 288.814 24.8082 288.669 24.8509C288.527 24.8906 288.362 24.9261 288.175 24.9574C287.99 24.9858 287.81 25.0114 287.634 25.0341C287.46 25.054 287.32 25.071 287.212 25.0852C286.95 25.1193 286.706 25.1747 286.479 25.2514C286.254 25.3253 286.072 25.4375 285.933 25.5881C285.797 25.7358 285.729 25.9375 285.729 26.1932C285.729 26.5426 285.858 26.8068 286.116 26.9858C286.378 27.1619 286.709 27.25 287.109 27.25ZM292.205 30.4545C292.034 30.4545 291.882 30.4403 291.749 30.4119C291.615 30.3864 291.523 30.3608 291.472 30.3352L291.728 29.4489C291.972 29.5114 292.188 29.5341 292.375 29.517C292.563 29.5 292.729 29.4162 292.874 29.2656C293.022 29.1179 293.157 28.8778 293.279 28.5455L293.466 28.0341L291.046 21.4545H292.137L293.944 26.6705H294.012L295.819 21.4545H296.909L294.131 28.9545C294.006 29.2926 293.851 29.5724 293.667 29.794C293.482 30.0185 293.267 30.1847 293.023 30.2926C292.782 30.4006 292.509 30.4545 292.205 30.4545ZM300.747 28.1364C300.116 28.1364 299.572 27.9972 299.115 27.7188C298.66 27.4375 298.309 27.0455 298.062 26.5426C297.818 26.0369 297.696 25.4489 297.696 24.7784C297.696 24.108 297.818 23.517 298.062 23.0057C298.309 22.4915 298.653 22.0909 299.093 21.804C299.537 21.5142 300.054 21.3693 300.645 21.3693C300.985 21.3693 301.322 21.4261 301.654 21.5398C301.987 21.6534 302.289 21.8381 302.562 22.0938C302.835 22.3466 303.052 22.6818 303.214 23.0994C303.376 23.517 303.457 24.0312 303.457 24.642V25.0682H298.412V24.1989H302.434C302.434 23.8295 302.36 23.5 302.213 23.2102C302.068 22.9205 301.86 22.6918 301.591 22.5241C301.324 22.3565 301.008 22.2727 300.645 22.2727C300.244 22.2727 299.897 22.3722 299.605 22.571C299.315 22.767 299.092 23.0227 298.936 23.3381C298.779 23.6534 298.701 23.9915 298.701 24.3523V24.9318C298.701 25.4261 298.787 25.8452 298.957 26.1889C299.13 26.5298 299.37 26.7898 299.677 26.9688C299.984 27.1449 300.341 27.233 300.747 27.233C301.011 27.233 301.25 27.196 301.463 27.1222C301.679 27.0455 301.865 26.9318 302.021 26.7812C302.177 26.6278 302.298 26.4375 302.383 26.2102L303.355 26.483C303.252 26.8125 303.081 27.1023 302.839 27.3523C302.598 27.5994 302.299 27.7926 301.944 27.9318C301.589 28.0682 301.19 28.1364 300.747 28.1364ZM304.987 28V21.4545H305.958V22.4432H306.027C306.146 22.1193 306.362 21.8565 306.674 21.6548C306.987 21.4531 307.339 21.3523 307.731 21.3523C307.805 21.3523 307.897 21.3537 308.008 21.3565C308.119 21.3594 308.203 21.3636 308.26 21.3693V22.392C308.225 22.3835 308.147 22.3707 308.025 22.3537C307.906 22.3338 307.779 22.3239 307.646 22.3239C307.328 22.3239 307.044 22.3906 306.794 22.5241C306.547 22.6548 306.35 22.8366 306.206 23.0696C306.064 23.2997 305.993 23.5625 305.993 23.858V28H304.987Z" fill="white"/>
<path d="M51.9964 23.8666L50.5651 20.6431H41.2505L39.8191 23.8666H35.8555L42.902 8.41143H49.0457L56.0922 23.8666H51.9964ZM42.5937 17.6183H49.2439L45.9188 10.1115L42.5937 17.6183Z" fill="white"/>
<path d="M60.5109 18.5677C60.6284 19.3037 61.1055 19.9292 61.9423 20.4444C62.779 20.9448 63.9902 21.1951 65.5756 21.1951C66.7647 21.1951 67.7997 21.07 68.6805 20.8197C69.5613 20.5695 70.0017 20.1868 70.0017 19.6716C70.0017 19.0387 69.2604 18.5603 67.7777 18.2365L62.0964 16.9339C59.0282 16.2273 57.4941 14.829 57.4941 12.7389C57.4941 11.2081 58.2135 10.06 59.6521 9.29458C61.0908 8.52918 62.8965 8.14648 65.0692 8.14648C67.3886 8.14648 69.2971 8.58806 70.7945 9.47121C72.3065 10.3396 73.1506 11.5761 73.3268 13.1805L69.5393 13.335C69.4072 12.7168 68.9447 12.1869 68.152 11.7453C67.374 11.3038 66.295 11.083 64.915 11.083C63.9168 11.083 63.0947 11.2081 62.4487 11.4583C61.8175 11.7085 61.5018 12.0544 61.5018 12.496C61.5018 13.1142 62.2138 13.5852 63.6378 13.9091L68.9007 15.0572C70.6183 15.4399 71.8955 15.955 72.7323 16.6027C73.5837 17.2503 74.0094 18.1629 74.0094 19.3405C74.0094 20.9448 73.2534 22.1445 71.7413 22.9393C70.244 23.7341 68.1887 24.1316 65.5756 24.1316C59.9824 24.1316 57.0317 22.3137 56.7234 18.6781L60.5109 18.5677Z" fill="white"/>
<path d="M74.6554 11.7012V8.41143H91.8534V11.7012H85.2693V23.8666H81.2616V11.7012H74.6554Z" fill="white"/>
<path d="M94.3424 23.8666V8.41143H109.647V11.5466H98.3501V14.5273H107.224V17.4858H98.3501V20.7314H110.087V23.8666H94.3424Z" fill="white"/>
<path d="M125.823 23.8666L120.473 18.1924H117.037V23.8666H113.03V8.41143H117.037H123.82C125.625 8.41143 127.108 8.83093 128.268 9.66992C129.427 10.5089 130.007 11.7601 130.007 13.4233C130.007 14.8952 129.567 16.0139 128.686 16.7793C127.805 17.53 126.594 17.9789 125.053 18.1261L130.91 23.8666H125.823ZM117.037 11.6129V15.1676H123.621C124.355 15.1676 124.935 15.0204 125.361 14.726C125.787 14.4169 126 13.9827 126 13.4233C126 12.8493 125.779 12.4077 125.339 12.0986C124.913 11.7748 124.341 11.6129 123.621 11.6129H117.037Z" fill="white"/>
<path d="M133.179 23.8666V8.41143H137.187V23.8666H133.179Z" fill="white"/>
<path d="M145.344 20.5769H156.706V23.8666H139.574V21.0847L150.607 11.7012H140.323V8.41143H156.398V11.1934L145.344 20.5769Z" fill="white"/>
<path d="M175.826 8.41143H182.828L182.806 23.8666H178.975V10.5089L173.712 23.8666H168.273L163.01 10.5089V23.8666H159.156V8.41143H166.181L171.047 21.6146L175.826 8.41143Z" fill="white"/>
<path fill-rule="evenodd" clip-rule="evenodd" d="M24.2644 2.51839C21.6551 4.01561 16.8235 6.81238 15.5867 7.54144C14.3432 8.27448 13.7342 9.15443 13.6024 10.4085C13.5743 10.6756 13.5509 11.8465 13.5504 13.0105C13.5495 15.0973 13.5479 15.1302 13.4305 15.3685C13.365 15.5015 13.2338 15.6885 13.139 15.7841C12.9248 16.0003 12.4704 16.1448 12.1543 16.0972C12.0038 16.0746 11.351 15.7326 10.109 15.0259C8.04058 13.8489 7.59029 13.6134 7.25286 13.5319C6.59986 13.3742 5.88337 13.4024 5.23777 13.6112C4.96654 13.6989 3.42254 14.562 1.20209 15.8672C0.112187 16.5079 0.00429658 16.6112 0.0039791 17.0146C0.00350288 17.5344 -0.370169 17.2895 6.24704 21.107C10.9123 23.7984 12.3462 24.6021 12.6058 24.6712C12.818 24.7276 13.1573 24.7618 13.5303 24.764C14.4877 24.7699 14.6247 24.7142 17.0314 23.3411C18.9563 22.2429 19.1278 22.1559 19.421 22.1292C19.6963 22.1043 19.7752 22.12 20.036 22.2523C20.34 22.4065 20.5253 22.5981 20.6475 22.8845C20.6979 23.0025 20.7233 23.6919 20.7465 25.5634C20.7767 28.0049 20.7815 28.0951 20.8992 28.4549C21.085 29.0229 21.3516 29.4895 21.7135 29.8804C22.0156 30.2067 22.2102 30.3334 24.1321 31.4551C26.8276 33.0282 27.0135 33.1243 27.2701 33.076C27.5275 33.0275 27.8199 32.7667 27.8913 32.5218C27.9306 32.3872 27.9429 30.1994 27.9317 25.3778L27.9154 18.4278L27.766 18.0033C27.547 17.3811 27.336 17.0434 26.8873 16.5967C26.4666 16.1779 26.3484 16.1027 23.7102 14.5759C23.0792 14.2106 22.4778 13.8231 22.3577 13.7042C21.9772 13.3275 21.9098 12.7136 22.1954 12.2249C22.3561 11.95 22.3525 11.9525 23.7088 11.1607C26.1306 9.74693 26.572 9.47094 26.8492 9.19745C27.2198 8.8317 27.6024 8.20949 27.7716 7.69721L27.9072 7.28652L27.9113 4.44816C27.9136 2.88706 27.8971 1.5439 27.8746 1.46342C27.8104 1.23338 27.4467 0.999629 27.1535 1C26.9318 1.00027 26.6743 1.13555 24.2644 2.51839ZM20.7684 12.914C20.8407 12.9865 20.8515 13.2321 20.8515 14.8009C20.8515 16.6354 20.834 16.8108 20.6512 16.8084C20.6014 16.8077 19.8462 16.3926 18.9731 15.8859C17.5052 15.034 17.3857 14.9538 17.3857 14.8201C17.3857 14.6865 17.5052 14.6062 18.9731 13.7543C19.8462 13.2476 20.5885 12.8325 20.6229 12.8318C20.6572 12.8311 20.7226 12.8681 20.7684 12.914ZM17.137 15.0695C17.228 15.1607 17.228 18.7768 17.137 18.8681C17.1021 18.9031 17.0247 18.9312 16.9651 18.9305C16.8264 18.9289 13.8183 17.1854 13.7406 17.0616C13.6993 16.9958 13.6987 16.9428 13.7384 16.8797C13.8146 16.7585 16.8289 15.0096 16.9651 15.0075C17.0247 15.0065 17.1021 15.0345 17.137 15.0695ZM20.788 17.1916C20.835 17.2387 20.8515 17.7355 20.8515 19.0978C20.8515 20.702 20.8408 20.951 20.7684 21.0236C20.7226 21.0694 20.667 21.107 20.6447 21.107C20.6224 21.107 20.1658 20.8537 19.6299 20.5441C19.0941 20.2345 18.3757 19.8227 18.0336 19.6289C17.4111 19.2763 17.2586 19.1176 17.4031 18.9727C17.5286 18.8468 20.5148 17.1363 20.6161 17.1323C20.6757 17.1299 20.7531 17.1566 20.788 17.1916Z" fill="white"/>
<line x1="208.5" y1="-2.18557e-08" x2="208.5" y2="32" stroke="#DDE4EF"/>
</svg>
