<svg width="80" height="16" viewBox="0 0 80 16" fill="none" xmlns="http://www.w3.org/2000/svg">
<path d="M25.1685 10.4H20.9717C20.4796 10.4 20.0614 10.2333 19.7169 9.89985C19.3724 9.55914 19.2002 9.13507 19.2002 8.62762V6.57248C19.2002 6.06503 19.3724 5.64458 19.7169 5.31112C20.0614 4.9704 20.4796 4.80005 20.9717 4.80005H25.1685V6.1049H20.9717C20.6343 6.1049 20.4656 6.26076 20.4656 6.57248V8.62762C20.4656 8.93934 20.6343 9.09519 20.9717 9.09519H25.1685V10.4Z" fill="#142438"/>
<path d="M32.9106 10.4H31.6241V8.24704H27.4906V10.4H26.2252V4.80005H27.4906V6.94218H31.6241V4.80005H32.9106V10.4Z" fill="#142438"/>
<path d="M40.6145 10.4H39.3492V8.61675H36.017V7.31189H39.3492V6.52898C39.3492 6.24626 39.2578 6.1049 39.075 6.1049H35.4898C35.314 6.1049 35.2262 6.24626 35.2262 6.52898V10.4H33.9608V6.52898C33.9608 6.05778 34.1014 5.65183 34.3826 5.31112C34.6708 4.9704 35.0399 4.80005 35.4898 4.80005H39.075C39.5319 4.80005 39.901 4.9704 40.1822 5.31112C40.4704 5.65183 40.6145 6.05778 40.6145 6.52898V10.4Z" fill="#142438"/>
<path d="M42.9308 10.4H41.6655V4.80005H42.9308V10.4Z" fill="#142438"/>
<path d="M49.7736 10.4H48.5082L45.2499 6.62684V10.4H43.9845V4.80005H45.2499L48.5082 8.54063V4.80005H49.7736V10.4Z" fill="#142438"/>
<path d="M57.2987 8.67112C57.2987 9.14231 57.1616 9.54464 56.8874 9.87811C56.5922 10.2261 56.2196 10.4 55.7697 10.4H51.0878V9.09519H55.7697C55.9454 9.09519 56.0333 8.95384 56.0333 8.67112C56.0333 8.3884 55.9454 8.24704 55.7697 8.24704H52.3637C51.9138 8.24704 51.5412 8.07306 51.246 7.7251C50.9648 7.39888 50.8242 7.00018 50.8242 6.52898C50.8242 6.05778 50.9683 5.65183 51.2565 5.31112C51.5447 4.9704 51.9138 4.80005 52.3637 4.80005H57.0456V6.1049H52.3637C52.188 6.1049 52.1001 6.24626 52.1001 6.52898C52.1001 6.80445 52.188 6.94218 52.3637 6.94218H55.7697C56.2196 6.94218 56.5922 7.11617 56.8874 7.46413C57.1616 7.79759 57.2987 8.19992 57.2987 8.67112Z" fill="#142438"/>
<path d="M65.1446 6.69209C65.1446 7.19228 65.011 7.61998 64.7439 7.97519C64.4557 8.3739 64.0761 8.57325 63.6051 8.57325H59.6192V10.4H58.3538V4.80005H63.6051C64.0761 4.80005 64.4557 4.9994 64.7439 5.39811C65.011 5.76057 65.1446 6.19189 65.1446 6.69209ZM63.8792 6.69209C63.8792 6.30063 63.7879 6.1049 63.6051 6.1049H59.6192V7.2684H63.6051C63.7879 7.2684 63.8792 7.07629 63.8792 6.69209Z" fill="#142438"/>
<path d="M72.9302 8.62762C72.9302 9.13507 72.7579 9.55914 72.4135 9.89985C72.069 10.2333 71.6507 10.4 71.1587 10.4H67.9741C67.4821 10.4 67.0638 10.2333 66.7193 9.89985C66.3749 9.55914 66.2026 9.13507 66.2026 8.62762V6.57248C66.2026 6.06503 66.3749 5.64458 66.7193 5.31112C67.0638 4.9704 67.4821 4.80005 67.9741 4.80005H71.1587C71.6507 4.80005 72.069 4.9704 72.4135 5.31112C72.7579 5.64458 72.9302 6.06503 72.9302 6.57248V8.62762ZM71.6648 8.62762V6.57248C71.6648 6.26076 71.4961 6.1049 71.1587 6.1049H67.9741C67.6367 6.1049 67.468 6.26076 67.468 6.57248V8.62762C67.468 8.93934 67.6367 9.09519 67.9741 9.09519H71.1587C71.4961 9.09519 71.6648 8.93934 71.6648 8.62762Z" fill="#142438"/>
<path d="M80.0002 6.1049H77.5538V10.4H76.2884V6.1049H73.8421V4.80005H80.0002V6.1049Z" fill="#142438"/>
<path d="M35.0793 7.31172H36.3138V8.61614H35.0793V7.31172Z" fill="#142438"/>
<g filter="url(#filter0_i_1143_37114)">
<circle cx="8" cy="8" r="8" fill="url(#paint0_diamond_1143_37114)"/>
<circle cx="8" cy="8" r="8" fill="url(#paint1_diamond_1143_37114)"/>
</g>
<mask id="mask0_1143_37114" style="mask-type:alpha" maskUnits="userSpaceOnUse" x="0" y="0" width="16" height="16">
<circle cx="8" cy="8" r="8" fill="url(#paint2_diamond_1143_37114)"/>
<circle cx="8" cy="8" r="8" fill="url(#paint3_diamond_1143_37114)"/>
</mask>
<g mask="url(#mask0_1143_37114)">
<path fill-rule="evenodd" clip-rule="evenodd" d="M4.354 7.43975C4.354 5.73864 5.73209 4.35962 7.43204 4.35962H16.0656V5.25962H7.43204C6.2288 5.25962 5.25339 6.2357 5.25339 7.43975V10.5581C5.25339 11.7621 6.22881 12.7382 7.43204 12.7382H14.6021V13.6382H7.43204C5.73209 13.6382 4.354 12.2592 4.354 10.5581V7.43975Z" fill="white"/>
<path fill-rule="evenodd" clip-rule="evenodd" d="M6.70996 7.55187C6.70996 6.94019 7.20548 6.44434 7.81674 6.44434H16.4223V7.34434H7.81674C7.7022 7.34434 7.60935 7.43725 7.60935 7.55187V8.3393C7.60935 8.45392 7.7022 8.54683 7.81674 8.54683H13.8446V9.44683H7.81674C7.20548 9.44683 6.70996 8.95098 6.70996 8.3393V7.55187Z" fill="white"/>
<path fill-rule="evenodd" clip-rule="evenodd" d="M17.7515 10.0478C17.7515 9.21864 17.0798 8.54651 16.2512 8.54651H9.58777V9.44651H16.2512C16.5831 9.44651 16.8521 9.7157 16.8521 10.0478C16.8521 10.3798 16.5831 10.649 16.2512 10.649H7.28384V11.549H16.2512C17.0798 11.549 17.7515 10.8769 17.7515 10.0478Z" fill="white"/>
</g>
<defs>
<filter id="filter0_i_1143_37114" x="0" y="0" width="16" height="16" filterUnits="userSpaceOnUse" color-interpolation-filters="sRGB">
<feFlood flood-opacity="0" result="BackgroundImageFix"/>
<feBlend mode="normal" in="SourceGraphic" in2="BackgroundImageFix" result="shape"/>
<feColorMatrix in="SourceAlpha" type="matrix" values="0 0 0 0 0 0 0 0 0 0 0 0 0 0 0 0 0 0 127 0" result="hardAlpha"/>
<feOffset/>
<feGaussianBlur stdDeviation="2.84095"/>
<feComposite in2="hardAlpha" operator="arithmetic" k2="-1" k3="1"/>
<feColorMatrix type="matrix" values="0 0 0 0 0.160349 0 0 0 0 0.114062 0 0 0 0 0.9125 0 0 0 1 0"/>
<feBlend mode="normal" in2="shape" result="effect1_innerShadow_1143_37114"/>
</filter>
<radialGradient id="paint0_diamond_1143_37114" cx="0" cy="0" r="1" gradientUnits="userSpaceOnUse" gradientTransform="translate(-3 14.3158) rotate(-22.3504) scale(27.5428)">
<stop offset="0.421875" stop-color="#402AFD"/>
<stop offset="1" stop-color="#0EFFD4"/>
</radialGradient>
<radialGradient id="paint1_diamond_1143_37114" cx="0" cy="0" r="1" gradientUnits="userSpaceOnUse" gradientTransform="translate(4.95 3.7) rotate(-26.2587) scale(12.5445 6.64122)">
<stop stop-color="#AAFCFF"/>
<stop offset="1" stop-color="white" stop-opacity="0"/>
</radialGradient>
<radialGradient id="paint2_diamond_1143_37114" cx="0" cy="0" r="1" gradientUnits="userSpaceOnUse" gradientTransform="translate(-3 14.3158) rotate(-22.3504) scale(27.5428)">
<stop offset="0.421875" stop-color="#402AFD"/>
<stop offset="1" stop-color="#0EFFD4"/>
</radialGradient>
<radialGradient id="paint3_diamond_1143_37114" cx="0" cy="0" r="1" gradientUnits="userSpaceOnUse" gradientTransform="translate(4.95 3.7) rotate(-26.2587) scale(12.5445 6.64122)">
<stop stop-color="#AAFCFF"/>
<stop offset="1" stop-color="white" stop-opacity="0"/>
</radialGradient>
</defs>
</svg>
