<svg width="20" height="20" viewBox="0 0 20 20" fill="none" xmlns="http://www.w3.org/2000/svg">
<path d="M9.99935 18.9582C5.05768 18.9582 1.04102 14.9415 1.04102 9.99984C1.04102 5.05817 5.05768 1.0415 9.99935 1.0415C14.941 1.0415 18.9577 5.05817 18.9577 9.99984C18.9577 14.9415 14.941 18.9582 9.99935 18.9582ZM9.99935 2.2915C5.74935 2.2915 2.29102 5.74984 2.29102 9.99984C2.29102 14.2498 5.74935 17.7082 9.99935 17.7082C14.2493 17.7082 17.7077 14.2498 17.7077 9.99984C17.7077 5.74984 14.2493 2.2915 9.99935 2.2915Z" fill="#EF4444"/>
<path d="M7.64245 12.9831C7.48411 12.9831 7.32578 12.9248 7.20078 12.7998C6.95911 12.5581 6.95911 12.1581 7.20078 11.9165L11.9174 7.1998C12.1591 6.95814 12.5591 6.95814 12.8008 7.1998C13.0424 7.44147 13.0424 7.84147 12.8008 8.08314L8.08411 12.7998C7.96745 12.9248 7.80078 12.9831 7.64245 12.9831Z" fill="#EF4444"/>
<path d="M12.3591 12.9831C12.2008 12.9831 12.0424 12.9248 11.9174 12.7998L7.20078 8.08314C6.95911 7.84147 6.95911 7.44147 7.20078 7.1998C7.44245 6.95814 7.84245 6.95814 8.08411 7.1998L12.8008 11.9165C13.0424 12.1581 13.0424 12.5581 12.8008 12.7998C12.6758 12.9248 12.5174 12.9831 12.3591 12.9831Z" fill="#EF4444"/>
</svg>
