<svg width="40" height="40" viewBox="0 0 40 40" fill="none" xmlns="http://www.w3.org/2000/svg">
<path d="M17.5672 36.5667C17.1839 36.5667 16.8172 36.4 16.5672 36.0667L14.8839 33.8167C14.5339 33.35 14.0672 33.0833 13.5672 33.05C13.0672 33.0166 12.5672 33.25 12.1672 33.6667C9.75052 36.25 7.91721 36.0333 7.03387 35.7C6.13387 35.35 4.61719 34.2 4.61719 30.5V11.7333C4.61719 4.33334 6.75052 2.08333 13.7339 2.08333H26.3172C33.3006 2.08333 35.4339 4.33334 35.4339 11.7333V18.8333C35.4339 19.5166 34.8672 20.0833 34.1839 20.0833C33.5006 20.0833 32.9339 19.5166 32.9339 18.8333V11.7333C32.9339 5.71668 31.8839 4.58333 26.3172 4.58333H13.7339C8.16719 4.58333 7.11719 5.71668 7.11719 11.7333V30.5C7.11719 32.25 7.55052 33.2166 7.95052 33.3666C8.25052 33.4833 9.06723 33.3166 10.3339 31.9666C11.2506 31 12.4505 30.4833 13.7005 30.55C14.9339 30.6166 16.1005 31.2667 16.8839 32.3167L18.5839 34.5666C19.0005 35.1166 18.8839 35.9 18.3339 36.3167C18.0839 36.5 17.8172 36.5667 17.5672 36.5667Z" fill="#0071FF"/>
<path d="M30.3334 36.9167C26.7 36.9167 23.75 33.9667 23.75 30.3334C23.75 26.7 26.7 23.75 30.3334 23.75C33.9667 23.75 36.9167 26.7 36.9167 30.3334C36.9167 33.9667 33.9667 36.9167 30.3334 36.9167ZM30.3334 26.25C28.0834 26.25 26.25 28.0834 26.25 30.3334C26.25 32.5834 28.0834 34.4167 30.3334 34.4167C32.5834 34.4167 34.4167 32.5834 34.4167 30.3334C34.4167 28.0834 32.5834 26.25 30.3334 26.25Z" fill="#0071FF"/>
<path d="M36.6664 37.9167C36.3497 37.9167 36.0331 37.8 35.7831 37.55L34.1164 35.8833C33.6331 35.4 33.6331 34.6 34.1164 34.1167C34.5997 33.6333 35.3997 33.6333 35.8831 34.1167L37.5497 35.7833C38.0331 36.2667 38.0331 37.0667 37.5497 37.55C37.2997 37.8 36.9831 37.9167 36.6664 37.9167Z" fill="#0071FF"/>
<path d="M26.6673 12.9167H13.334C12.6507 12.9167 12.084 12.35 12.084 11.6667C12.084 10.9833 12.6507 10.4167 13.334 10.4167H26.6673C27.3507 10.4167 27.9173 10.9833 27.9173 11.6667C27.9173 12.35 27.3507 12.9167 26.6673 12.9167Z" fill="#0071FF"/>
<path d="M25 19.5833H15C14.3167 19.5833 13.75 19.0167 13.75 18.3333C13.75 17.65 14.3167 17.0833 15 17.0833H25C25.6833 17.0833 26.25 17.65 26.25 18.3333C26.25 19.0167 25.6833 19.5833 25 19.5833Z" fill="#0071FF"/>
</svg>
