<svg width="14" height="13" viewBox="0 0 14 13" fill="none" xmlns="http://www.w3.org/2000/svg">
<path d="M13.033 4.4399L11.8663 3.85656C11.6505 3.75156 11.3821 3.83323 11.2771 4.04906C11.1663 4.27073 11.2538 4.53323 11.4696 4.63823L12.3971 5.09906V7.89323L10.2096 7.89906V1.91406C10.2096 0.747396 9.42797 0.164062 8.45964 0.164062H3.79297C2.82464 0.164062 2.04297 0.747396 2.04297 1.91406V11.3932H1.16797C0.928802 11.3932 0.730469 11.5916 0.730469 11.8307C0.730469 12.0699 0.928802 12.2682 1.16797 12.2682H11.0846C11.3238 12.2682 11.5221 12.0699 11.5221 11.8307C11.5221 11.5916 11.3238 11.3932 11.0846 11.3932H10.2096V8.77406L12.8346 8.76823C13.0796 8.76823 13.2721 8.5699 13.2721 8.33073V4.83073C13.2721 4.6674 13.1788 4.51573 13.033 4.4399ZM3.5013 3.01656C3.5013 2.20573 3.99714 1.91406 4.6038 1.91406H7.65464C8.25547 1.91406 8.7513 2.20573 8.7513 3.01656V3.73406C8.7513 4.53906 8.25547 4.83073 7.6488 4.83073H4.6038C3.99714 4.83073 3.5013 4.53906 3.5013 3.72823V3.01656ZM3.79297 6.14323H5.54297C5.78214 6.14323 5.98047 6.34156 5.98047 6.58073C5.98047 6.8199 5.78214 7.01823 5.54297 7.01823H3.79297C3.5538 7.01823 3.35547 6.8199 3.35547 6.58073C3.35547 6.34156 3.5538 6.14323 3.79297 6.14323Z" fill="#0F1D2D"/>
</svg>
