<svg width="16" height="16" viewBox="0 0 16 16" fill="none" xmlns="http://www.w3.org/2000/svg">
<path d="M8.00065 15.1478C4.04732 15.1478 0.833984 11.9345 0.833984 7.98112C0.833984 4.02779 4.04732 0.814453 8.00065 0.814453C11.954 0.814453 15.1673 4.02779 15.1673 7.98112C15.1673 11.9345 11.954 15.1478 8.00065 15.1478ZM8.00065 1.81445C4.60065 1.81445 1.83398 4.58112 1.83398 7.98112C1.83398 11.3811 4.60065 14.1478 8.00065 14.1478C11.4007 14.1478 14.1673 11.3811 14.1673 7.98112C14.1673 4.58112 11.4007 1.81445 8.00065 1.81445Z" fill="#969EB0"/>
<path d="M8 6.98112C8.27333 6.98112 8.5 7.20779 8.5 7.48112L8.5 10.8145C8.5 11.0878 8.27333 11.3145 8 11.3145C7.72667 11.3145 7.5 11.0878 7.5 10.8145L7.5 7.48112C7.5 7.20779 7.72667 6.98112 8 6.98112Z" fill="#969EB0"/>
<path d="M7.99935 4.81648C8.08602 4.81648 8.17268 4.83648 8.25268 4.86982C8.33268 4.90315 8.40602 4.94982 8.47268 5.00982C8.53268 5.07648 8.57935 5.14315 8.61268 5.22982C8.64602 5.30982 8.66602 5.39648 8.66602 5.48315C8.66602 5.56982 8.64602 5.65648 8.61268 5.73648C8.57935 5.81648 8.53268 5.88982 8.47268 5.95648C8.40602 6.01648 8.33268 6.06315 8.25268 6.09648C8.09268 6.16315 7.90602 6.16315 7.74602 6.09648C7.66602 6.06315 7.59268 6.01648 7.52602 5.95648C7.46602 5.88982 7.41935 5.81648 7.38602 5.73648C7.35268 5.65648 7.33268 5.56982 7.33268 5.48315C7.33268 5.39648 7.35268 5.30982 7.38602 5.22982C7.41935 5.14315 7.46602 5.07648 7.52602 5.00982C7.59268 4.94982 7.66602 4.90315 7.74602 4.86982C7.82602 4.83648 7.91268 4.81648 7.99935 4.81648Z" fill="#969EB0"/>
</svg>
