<svg width="24" height="25" viewBox="0 0 24 25" fill="none" xmlns="http://www.w3.org/2000/svg">
<path d="M12 22.7578C6.07 22.7578 1.25 17.9378 1.25 12.0078C1.25 6.07781 6.07 1.25781 12 1.25781C17.93 1.25781 22.75 6.07781 22.75 12.0078C22.75 17.9378 17.93 22.7578 12 22.7578ZM12 2.75781C6.9 2.75781 2.75 6.90781 2.75 12.0078C2.75 17.1078 6.9 21.2578 12 21.2578C17.1 21.2578 21.25 17.1078 21.25 12.0078C21.25 6.90781 17.1 2.75781 12 2.75781Z" fill="#F2B705"/>
<path d="M12 10.5078C12.41 10.5078 12.75 10.8478 12.75 11.2578L12.75 16.2578C12.75 16.6678 12.41 17.0078 12 17.0078C11.59 17.0078 11.25 16.6678 11.25 16.2578L11.25 11.2578C11.25 10.8478 11.59 10.5078 12 10.5078Z" fill="#F2B705"/>
<path d="M12 7.255C12.13 7.255 12.26 7.285 12.38 7.335C12.5 7.385 12.61 7.455 12.71 7.545C12.8 7.645 12.87 7.745 12.92 7.875C12.97 7.995 13 8.125 13 8.255C13 8.385 12.97 8.515 12.92 8.635C12.87 8.755 12.8 8.865 12.71 8.965C12.61 9.055 12.5 9.125 12.38 9.175C12.14 9.275 11.86 9.275 11.62 9.175C11.5 9.125 11.39 9.055 11.29 8.965C11.2 8.865 11.13 8.755 11.08 8.635C11.03 8.515 11 8.385 11 8.255C11 8.125 11.03 7.995 11.08 7.875C11.13 7.745 11.2 7.645 11.29 7.545C11.39 7.455 11.5 7.385 11.62 7.335C11.74 7.285 11.87 7.255 12 7.255Z" fill="#F2B705"/>
</svg>
