<svg width="20" height="20" viewBox="0 0 20 20" fill="none" xmlns="http://www.w3.org/2000/svg">
<path d="M20 10C20 15.5228 15.5228 20 10 20C4.47715 20 0 15.5228 0 10C0 4.47715 4.47715 0 10 0C15.5228 0 20 4.47715 20 10ZM2 10C2 14.4183 5.58172 18 10 18C14.4183 18 18 14.4183 18 10C18 5.58172 14.4183 2 10 2C5.58172 2 2 5.58172 2 10Z" fill="white" fill-opacity="0.25"/>
<path d="M10 1C10 0.447715 9.55116 -0.00518142 9.00163 0.0499547C7.37656 0.213004 5.8107 0.772302 4.4443 1.6853C2.79981 2.78412 1.51808 4.3459 0.761205 6.17317C0.00432836 8.00043 -0.193705 10.0111 0.192147 11.9509C0.577999 13.8907 1.53041 15.6725 2.92893 17.0711C4.32746 18.4696 6.10929 19.422 8.0491 19.8079C9.98891 20.1937 11.9996 19.9957 13.8268 19.2388C15.6541 18.4819 17.2159 17.2002 18.3147 15.5557C19.2277 14.1893 19.787 12.6234 19.95 10.9984C20.0052 10.4488 19.5523 10 19 10V10C18.4477 10 18.0064 10.4494 17.9376 10.9974C17.7832 12.2262 17.3449 13.4072 16.6518 14.4446C15.7727 15.7602 14.5233 16.7855 13.0615 17.391C11.5997 17.9965 9.99113 18.155 8.43928 17.8463C6.88743 17.5376 5.46197 16.7757 4.34315 15.6569C3.22433 14.538 2.4624 13.1126 2.15372 11.5607C1.84504 10.0089 2.00346 8.40034 2.60896 6.93853C3.21446 5.47672 4.23984 4.22729 5.55544 3.34824C6.59275 2.65513 7.77376 2.21683 9.00258 2.06242C9.55055 1.99356 10 1.55228 10 1V1Z" fill="white"/>
</svg>
