<svg width="24" height="27" viewBox="0 0 24 27" fill="none" xmlns="http://www.w3.org/2000/svg">
<path d="M17.2214 21.6302C16.4422 21.6302 15.8047 20.9927 15.8047 20.2135C15.8047 19.4344 16.428 18.7969 17.2214 18.7969H17.2355C18.0147 18.7969 18.6522 19.4344 18.6522 20.2135C18.6522 20.9927 18.0147 21.6302 17.2214 21.6302Z" fill="#292D32"/>
<path d="M19.2904 26.2292H15.0404C12.887 26.2292 11.1445 24.4867 11.1445 22.3333V18.0833C11.1445 15.93 12.887 14.1875 15.0404 14.1875H19.2904C21.4437 14.1875 23.1862 15.93 23.1862 18.0833V22.3333C23.1862 24.4867 21.4437 26.2292 19.2904 26.2292ZM15.0404 16.3125C14.0629 16.3125 13.2695 17.1058 13.2695 18.0833V22.3333C13.2695 23.3108 14.0629 24.1042 15.0404 24.1042H19.2904C20.2679 24.1042 21.0612 23.3108 21.0612 22.3333V18.0833C21.0612 17.1058 20.2679 16.3125 19.2904 16.3125H15.0404Z" fill="#292D32"/>
<path d="M7.99874 21.974H4.20207C2.55874 21.974 1.1279 20.9823 0.561236 19.4523C-0.0195975 17.9223 0.405403 16.2365 1.6379 15.1456L12.9571 5.24313C13.6371 4.64813 13.6512 3.84063 13.4529 3.28813C13.2404 2.73563 12.7021 2.14063 11.7954 2.14063H7.99874C7.4179 2.14063 6.93624 1.65896 6.93624 1.07813C6.93624 0.497292 7.4179 0.015625 7.99874 0.015625H11.7954C13.4387 0.015625 14.8696 1.00729 15.4362 2.53729C16.0171 4.06729 15.5921 5.75312 14.3596 6.84396L3.0404 16.7465C2.3604 17.3415 2.34624 18.149 2.54457 18.7015C2.75707 19.254 3.2954 19.849 4.20207 19.849H7.99874C8.57957 19.849 9.06124 20.3306 9.06124 20.9115C9.06124 21.4923 8.57957 21.974 7.99874 21.974Z" fill="#292D32"/>
</svg>
