<svg width="17" height="17" viewBox="0 0 17 17" fill="none" xmlns="http://www.w3.org/2000/svg">
<path d="M8.5 0C3.8165 0 0 3.8165 0 8.5C0 13.1835 3.8165 17 8.5 17C13.1835 17 17 13.1835 17 8.5C17 3.8165 13.1835 0 8.5 0ZM12.563 6.545L7.7435 11.3645C7.6245 11.4835 7.463 11.5515 7.293 11.5515C7.123 11.5515 6.9615 11.4835 6.8425 11.3645L4.437 8.959C4.1905 8.7125 4.1905 8.3045 4.437 8.058C4.6835 7.8115 5.0915 7.8115 5.338 8.058L7.293 10.013L11.662 5.644C11.9085 5.3975 12.3165 5.3975 12.563 5.644C12.8095 5.8905 12.8095 6.29 12.563 6.545Z" fill="#24C38E"/>
</svg>
