<svg width="28" height="28" viewBox="0 0 28 28" fill="none" xmlns="http://www.w3.org/2000/svg">
<path d="M20.8822 11.4369C20.8589 11.4369 20.8239 11.4369 20.8006 11.4369C16.7639 11.0402 12.7506 10.8769 8.77223 11.2852L7.20888 11.4369C6.71888 11.4836 6.29889 11.1336 6.25222 10.6552C6.20555 10.1769 6.55555 9.74524 7.03389 9.69857L8.59721 9.5469C12.6922 9.13857 16.8222 9.29024 20.9755 9.69857C21.4539 9.74524 21.8039 10.1769 21.7572 10.6552C21.7105 11.0986 21.3255 11.4369 20.8822 11.4369Z" fill="#0A2533"/>
<path d="M16.6733 10.6643C16.2533 10.6643 15.88 10.3609 15.81 9.94093L15.6467 8.94925C15.6234 8.78592 15.5767 8.52925 15.53 8.47092C15.53 8.47092 15.4134 8.40092 14.9934 8.40092H12.9867C12.555 8.40092 12.4384 8.47092 12.4384 8.47092C12.415 8.51758 12.3684 8.77426 12.345 8.93759L12.1817 9.94093C12.1 10.4193 11.645 10.7343 11.1784 10.6643C10.7 10.5826 10.385 10.1276 10.455 9.66092L10.6184 8.65759C10.7467 7.91092 10.9567 6.6626 12.9867 6.6626H14.9934C17.035 6.6626 17.245 7.96925 17.3617 8.66925L17.525 9.66092C17.6067 10.1393 17.28 10.5943 16.8134 10.6643C16.7784 10.6643 16.72 10.6643 16.6733 10.6643Z" fill="#0A2533"/>
<path d="M16.4523 21.3607H11.5406C8.58894 21.3607 8.4606 19.5873 8.37893 18.409L7.87727 10.6973C7.84227 10.219 8.2156 9.79899 8.69394 9.76399C9.18394 9.72899 9.59227 10.1023 9.62727 10.5807L10.1289 18.2807C10.2106 19.424 10.2223 19.599 11.5406 19.599H16.4523C17.7706 19.599 17.7823 19.424 17.8639 18.2807L18.3656 10.5807C18.4006 10.1023 18.7973 9.72899 19.2989 9.76399C19.7773 9.79899 20.1506 10.2073 20.1156 10.6973L19.6139 18.3973C19.5323 19.5873 19.4156 21.3607 16.4523 21.3607Z" fill="#0A2533"/>
</svg>
