<svg width="67" height="18" viewBox="0 0 67 18" fill="none" xmlns="http://www.w3.org/2000/svg">
<path d="M26.6201 4.38574H31.1801C32.2601 4.38574 33.0401 4.6286 33.5801 5.0536C33.8453 5.29789 34.0531 5.59923 34.188 5.93545C34.323 6.27166 34.3818 6.63422 34.3601 6.99646C34.3601 7.48217 34.3601 7.84646 34.1801 8.21074L33.7001 8.8786C33.5486 9.05389 33.3653 9.19817 33.1601 9.3036L32.8001 9.48574L33.2201 9.60717C33.4001 9.7286 33.5801 9.78931 33.7001 9.97146C33.8801 10.1536 34.0001 10.3357 34.0601 10.5786C34.1801 10.8215 34.2401 11.1857 34.2401 11.55C34.2401 12.1572 34.2401 12.6429 34.3601 13.1286C34.4201 13.5536 34.5401 13.9179 34.7201 14.1H32.9201L32.6801 13.4322V12.6429L32.6201 11.55C32.5601 11.1857 32.4401 10.9429 32.3201 10.7C32.1688 10.4986 31.959 10.35 31.7201 10.275C31.4801 10.1536 31.1201 10.0929 30.7601 10.0929H28.3001V14.1H26.6201V4.38574ZM28.3001 8.81789H31.0601C31.6001 8.81789 32.0201 8.69646 32.2601 8.4536C32.5601 8.15003 32.6801 7.78574 32.6801 7.23931C32.6801 6.93574 32.6801 6.69289 32.5601 6.51074L32.2001 6.02503C32.0201 5.96431 31.8401 5.84288 31.6001 5.84288L31.0001 5.78217H28.3001V8.81789ZM40.4801 9.97146C40.4771 9.72383 40.4366 9.47813 40.3601 9.24289L40.0001 8.63574L39.4601 8.27146C39.2801 8.15003 39.0401 8.08931 38.7401 8.08931C38.5007 8.10055 38.266 8.16003 38.0496 8.26429C37.8332 8.36855 37.6396 8.51548 37.4801 8.69646C37.3001 8.81789 37.1801 9.00003 37.0601 9.24289L36.9401 9.97146H40.5401H40.4801ZM36.8801 11.0036C36.8801 11.2465 36.9401 11.55 37.0601 11.7929L37.3601 12.4C37.5401 12.6429 37.7201 12.7643 37.9601 12.8857C38.2001 13.0072 38.5001 13.0679 38.8001 13.0679C39.1829 13.0856 39.5612 12.9792 39.8801 12.7643C40.1801 12.5822 40.3601 12.2786 40.4801 11.9143H41.9201C41.8085 12.4318 41.5596 12.9088 41.2001 13.2939C40.8407 13.679 40.3844 13.9577 39.8801 14.1L38.8001 14.2822C38.2001 14.2822 37.7801 14.2215 37.3601 14.0393C36.9361 13.8714 36.5546 13.6098 36.2432 13.2737C35.9318 12.9376 35.6984 12.5354 35.5601 12.0965C35.2848 11.1417 35.3057 10.1245 35.6201 9.18217C35.8001 8.69646 36.0401 8.33217 36.2801 7.96788C36.5801 7.66431 36.9401 7.36074 37.3601 7.1786C37.7801 6.99646 38.2601 6.87503 38.7401 6.87503C39.3401 6.87503 39.8201 6.99646 40.2401 7.23931C40.6601 7.48217 41.0201 7.78574 41.3201 8.15003C41.6076 8.54948 41.8117 9.00393 41.9201 9.48574C42.0401 9.97146 42.1001 10.4572 42.0401 11.0036H36.9401H36.8801ZM42.4001 7.05717H44.0201L45.8201 12.5215L47.5601 7.05717H49.1201L46.6001 14.1H44.8001L42.4001 7.05717ZM55.7201 12.5215L55.7801 12.9465L56.0801 13.0679H56.4401V14.1L56.2601 14.1607C56.0858 14.2238 55.9044 14.2646 55.7201 14.2822C55.6402 14.2862 55.5601 14.2862 55.4801 14.2822C55.1801 14.2822 54.8801 14.2822 54.7001 14.1C54.5201 13.9786 54.4001 13.7357 54.3401 13.4322C53.9801 13.7357 53.6201 13.9786 53.1401 14.0393C52.6581 14.2611 52.1266 14.3499 51.5997 14.2966C51.0728 14.2433 50.5692 14.0498 50.1401 13.7357C50.0201 13.6143 49.8401 13.4322 49.7201 13.1286C49.6001 12.8857 49.5401 12.5822 49.5401 12.2179C49.5401 11.7929 49.6001 11.4286 49.7801 11.1857C49.9294 10.9379 50.1352 10.7297 50.3801 10.5786C50.6201 10.3965 50.9201 10.275 51.2201 10.2143L52.1801 10.0322L53.0201 9.91074C53.2601 9.91074 53.4401 9.91074 53.6201 9.78931C53.8601 9.78931 53.9801 9.66789 54.1001 9.54646C54.2201 9.42503 54.2801 9.3036 54.2801 9.06074C54.2801 8.8786 54.2801 8.69646 54.1601 8.57503L53.8001 8.27146C53.6502 8.19768 53.4867 8.15633 53.3201 8.15003H52.8401C52.4201 8.15003 52.0601 8.15003 51.7601 8.39289C51.5201 8.57503 51.3401 8.81789 51.3401 9.24289H49.7801C49.7801 8.75717 49.9001 8.39289 50.0801 8.08931L50.8001 7.36074C51.1155 7.17778 51.4611 7.05435 51.8201 6.99646C52.5144 6.86894 53.2258 6.86894 53.9201 6.99646C54.2801 7.05717 54.5201 7.1786 54.8201 7.36074C55.1201 7.48217 55.3001 7.72503 55.4801 7.96788C55.6601 8.21074 55.7201 8.57503 55.7201 8.93931V12.5822V12.5215ZM54.2201 10.5786C53.9801 10.7607 53.6201 10.8215 53.3201 10.8822C52.8148 10.9248 52.3134 11.006 51.8201 11.125C51.6908 11.1648 51.5691 11.2264 51.4601 11.3072L51.1601 11.6715C51.0872 11.8232 51.0463 11.9886 51.0401 12.1572C51.0401 12.3393 51.1001 12.4607 51.2201 12.5822C51.2801 12.7036 51.4001 12.825 51.5801 12.8857L52.0001 13.0072L52.4801 13.0679L53.0201 13.0072C53.418 12.9269 53.7775 12.713 54.0401 12.4C54.1601 12.1572 54.2201 11.975 54.2201 11.7322V10.5786ZM57.2801 4.38574H58.7801V5.84288H57.2801V4.38574ZM57.2801 7.05717H58.7801V14.1H57.2801V7.05717ZM60.3401 7.05717H61.7801V8.08931C62.012 7.7073 62.3393 7.3939 62.7291 7.18071C63.1188 6.96753 63.5573 6.86209 64.0001 6.87503C64.7201 6.87503 65.3201 7.05717 65.8001 7.48217C66.2201 7.84646 66.4001 8.4536 66.4001 9.3036V14.1H64.9001V9.66789C64.9001 9.12146 64.7801 8.75717 64.5401 8.4536C64.3601 8.21074 64.0001 8.08931 63.5801 8.08931C63.2321 8.08655 62.8925 8.19724 62.6116 8.405C62.3306 8.61277 62.1232 8.90656 62.0201 9.24289C61.9001 9.48574 61.9001 9.7286 61.9001 9.97146V14.1H60.3401V7.05717Z" fill="#5E2CF2"/>
<path fill-rule="evenodd" clip-rule="evenodd" d="M6.2799 10.7C6.83145 10.7 7.37761 10.5901 7.88717 10.3765C8.39674 10.1629 8.85974 9.84985 9.24975 9.4552C9.63976 9.06056 9.94913 8.59204 10.1602 8.07641C10.3713 7.56077 10.4799 7.00812 10.4799 6.45C10.4799 5.89188 10.3713 5.33923 10.1602 4.8236C9.94913 4.30796 9.63976 3.83944 9.24975 3.4448C8.85974 3.05015 8.39674 2.73709 7.88717 2.52351C7.37761 2.30993 6.83145 2.2 6.2799 2.2C5.16599 2.2 4.09771 2.64777 3.31005 3.4448C2.5224 4.24183 2.0799 5.32283 2.0799 6.45C2.0799 7.57717 2.5224 8.65817 3.31005 9.4552C4.09771 10.2522 5.16599 10.7 6.2799 10.7ZM6.2799 12.4C7.83937 12.4 9.33498 11.7731 10.4377 10.6573C11.5404 9.54144 12.1599 8.02804 12.1599 6.45C12.1599 4.87196 11.5404 3.35856 10.4377 2.24271C9.33498 1.12687 7.83937 0.5 6.2799 0.5C4.72043 0.5 3.22483 1.12687 2.12211 2.24271C1.0194 3.35856 0.399902 4.87196 0.399902 6.45C0.399902 8.02804 1.0194 9.54144 2.12211 10.6573C3.22483 11.7731 4.72043 12.4 6.2799 12.4Z" fill="#5E2CF2"/>
<path d="M0.399902 11.2464C0.879902 11.8536 1.4199 12.4 2.0799 12.825V15.8H15.5199L17.1999 17.5H0.399902V11.2464ZM17.1999 14.1V0.5H11.0199C11.6199 0.985714 12.1599 1.53214 12.5799 2.2H15.5199V12.4L17.1999 14.1ZM0.399902 0.5H1.5399L0.399902 1.65357V0.5Z" fill="#5E2CF2"/>
<path d="M11.6199 11.8536C11.1999 12.2786 10.7799 12.6429 10.2999 12.9464L13.1199 15.8H2.0799V12.7643C1.4799 12.4 0.879902 11.8536 0.399902 11.2464V17.5H17.1999L11.6199 11.8536ZM0.999902 1.10714L0.399902 0.5V1.65357L0.939902 1.04643L0.999902 1.10714Z" fill="#5E2CF2"/>
</svg>
