<svg width="28" height="28" viewBox="0 0 28 28" fill="none" xmlns="http://www.w3.org/2000/svg">
<path d="M6.42839 7.58333C5.78672 7.58333 5.26172 7.05833 5.26172 6.41667C5.26172 5.775 5.77505 5.25 6.42839 5.25H6.44005C7.08172 5.25 7.60672 5.775 7.60672 6.41667C7.60672 7.05833 7.08172 7.58333 6.42839 7.58333Z" fill="#292D32"/>
<path d="M21.5949 22.75C20.9532 22.75 20.4282 22.225 20.4282 21.5833C20.4282 20.9416 20.9416 20.4166 21.5949 20.4166H21.6066C22.2482 20.4166 22.7732 20.9416 22.7732 21.5833C22.7732 22.225 22.2482 22.75 21.5949 22.75Z" fill="#292D32"/>
<path d="M6.38167 11.375C3.65167 11.375 1.42334 9.14671 1.42334 6.41671C1.42334 3.68671 3.65167 1.45837 6.38167 1.45837C9.11167 1.45837 11.34 3.68671 11.34 6.41671C11.34 9.14671 9.12334 11.375 6.38167 11.375ZM6.38167 3.20837C4.60834 3.20837 3.17334 4.64337 3.17334 6.41671C3.17334 8.19004 4.60834 9.62504 6.38167 9.62504C8.15501 9.62504 9.59001 8.19004 9.59001 6.41671C9.59001 4.64337 8.15501 3.20837 6.38167 3.20837Z" fill="#292D32"/>
<path d="M23.2982 26.5417H19.7982C18.0248 26.5417 16.5898 25.1067 16.5898 23.3333V19.8333C16.5898 18.06 18.0248 16.625 19.7982 16.625H23.2982C25.0715 16.625 26.5065 18.06 26.5065 19.8333V23.3333C26.5065 25.1067 25.0715 26.5417 23.2982 26.5417ZM19.7982 18.375C18.9932 18.375 18.3398 19.0283 18.3398 19.8333V23.3333C18.3398 24.1383 18.9932 24.7917 19.7982 24.7917H23.2982C24.1032 24.7917 24.7565 24.1383 24.7565 23.3333V19.8333C24.7565 19.0283 24.1032 18.375 23.2982 18.375H19.7982Z" fill="#292D32"/>
<path d="M13.9998 23.0417H10.8732C9.51985 23.0417 8.34152 22.225 7.87485 20.965C7.39652 19.705 7.74652 18.3167 8.76152 17.4184L18.0832 9.26337C18.6432 8.77337 18.6548 8.10837 18.4915 7.65337C18.3165 7.19837 17.8732 6.70837 17.1265 6.70837H13.9998C13.5215 6.70837 13.1248 6.31171 13.1248 5.83337C13.1248 5.35504 13.5215 4.95837 13.9998 4.95837H17.1265C18.4798 4.95837 19.6582 5.77504 20.1248 7.03504C20.6032 8.29504 20.2532 9.68337 19.2382 10.5817L9.91652 18.7367C9.35652 19.2267 9.34485 19.8917 9.50818 20.3467C9.68318 20.8017 10.1265 21.2917 10.8732 21.2917H13.9998C14.4782 21.2917 14.8748 21.6884 14.8748 22.1667C14.8748 22.645 14.4782 23.0417 13.9998 23.0417Z" fill="#292D32"/>
</svg>
