<svg width="20" height="19" viewBox="0 0 20 19" fill="none" xmlns="http://www.w3.org/2000/svg">
<path opacity="0.4" d="M0.681248 17.4023L6.76797 11.3156C5.82343 10.0945 5.3125 8.60156 5.3125 7.03125C5.3125 5.15156 6.04609 3.38906 7.37265 2.06016C8.69922 0.73125 10.4664 0 12.3437 0C14.2211 0 15.9883 0.733594 17.3148 2.06016C18.6438 3.38672 19.375 5.15156 19.375 7.03125C19.375 8.9086 18.6414 10.6758 17.3148 12.0023C15.9883 13.3313 14.2234 14.0625 12.3437 14.0625C10.7734 14.0625 9.28281 13.5516 8.06172 12.6094L1.975 18.6938C1.95715 18.7116 1.93596 18.7258 1.91263 18.7354C1.88931 18.7451 1.86431 18.7501 1.83906 18.7501C1.81381 18.7501 1.78881 18.7451 1.76549 18.7354C1.74216 18.7258 1.72097 18.7116 1.70312 18.6938L0.681248 17.6742C0.663389 17.6564 0.649221 17.6352 0.639557 17.6119C0.62989 17.5885 0.624916 17.5635 0.624916 17.5383C0.624916 17.513 0.62989 17.488 0.639557 17.4647C0.649221 17.4414 0.663389 17.4202 0.681248 17.4023ZM8.63125 10.7438C9.625 11.7352 10.9422 12.2813 12.3437 12.2813C13.7453 12.2813 15.0625 11.7352 16.0562 10.7438C17.0477 9.75 17.5937 8.43281 17.5937 7.03125C17.5937 5.62969 17.0477 4.31016 16.0562 3.31875C15.0625 2.32734 13.7453 1.78125 12.3437 1.78125C10.9422 1.78125 9.62265 2.325 8.63125 3.31875C7.63984 4.3125 7.09375 5.62969 7.09375 7.03125C7.09375 8.43281 7.63984 9.75235 8.63125 10.7438Z" fill="white"/>
</svg>
