<svg width="24" height="25" viewBox="0 0 24 25" fill="none" xmlns="http://www.w3.org/2000/svg">
<path d="M12 22.7578C6.07 22.7578 1.25 17.9378 1.25 12.0078C1.25 6.07781 6.07 1.25781 12 1.25781C17.93 1.25781 22.75 6.07781 22.75 12.0078C22.75 17.9378 17.93 22.7578 12 22.7578ZM12 2.75781C6.9 2.75781 2.75 6.90781 2.75 12.0078C2.75 17.1078 6.9 21.2578 12 21.2578C17.1 21.2578 21.25 17.1078 21.25 12.0078C21.25 6.90781 17.1 2.75781 12 2.75781Z" fill="#24C38E"/>
<path d="M10.5775 15.5894C10.3775 15.5894 10.1875 15.5094 10.0475 15.3694L7.2175 12.5394C6.9275 12.2494 6.9275 11.7694 7.2175 11.4794C7.5075 11.1894 7.9875 11.1894 8.2775 11.4794L10.5775 13.7794L15.7175 8.63938C16.0075 8.34938 16.4875 8.34938 16.7775 8.63938C17.0675 8.92937 17.0675 9.40937 16.7775 9.69937L11.1075 15.3694C10.9675 15.5094 10.7775 15.5894 10.5775 15.5894Z" fill="#24C38E"/>
</svg>
