<svg width="12" height="12" viewBox="0 0 12 12" fill="none" xmlns="http://www.w3.org/2000/svg">
<path d="M11.8966 3.56986L11.8956 3.56973V3.58361V8.40662C11.8955 8.49583 11.8717 8.58337 11.8269 8.66027C11.7821 8.73709 11.7179 8.80051 11.6408 8.84411C11.6407 8.84415 11.6406 8.8442 11.6405 8.84425L6.24743 11.856L6.18712 11.882H6.14776H6.13574L6.12406 11.8848C6.0411 11.9051 5.95453 11.9051 5.87157 11.8848L5.85989 11.882H5.84787H5.80609C5.79038 11.8756 5.77514 11.8681 5.7605 11.8595L5.76051 11.8595L5.75868 11.8585L0.360644 8.844L0.360075 8.84369C0.281972 8.80073 0.216639 8.73754 0.170889 8.6606C0.125195 8.58376 0.10071 8.496 0.1 8.40641V3.61081C0.118586 3.5816 0.141304 3.55524 0.167459 3.53257L0.20989 3.49579L0.200578 3.44042C0.199332 3.433 0.199115 3.42546 0.199926 3.418C0.205818 3.39879 0.213941 3.38034 0.224126 3.36304L0.224152 3.36305L0.225341 3.36091C0.232579 3.3479 0.241894 3.3362 0.252895 3.32628L0.269188 3.31159L0.277836 3.29143C0.282785 3.27989 0.289169 3.26906 0.296819 3.2592L0.352909 3.21819L0.35294 3.21823L0.355485 3.21624L0.403377 3.1788L5.79466 0.168081L5.79467 0.168093L5.7961 0.167263C5.87205 0.123185 5.95817 0.1 6.0458 0.1C6.13343 0.1 6.21954 0.123185 6.29549 0.167263L6.29549 0.167275L6.29693 0.168081L11.689 3.17923L11.7555 3.22937L11.7926 3.25732L11.8442 3.32484L11.8442 3.32489L11.8466 3.32782C11.853 3.33552 11.8583 3.34406 11.8624 3.35322L11.8619 3.35343L11.8671 3.36232C11.8785 3.38216 11.8881 3.40303 11.8956 3.42467V3.457H11.8947L11.8966 3.47075C11.9011 3.50362 11.9011 3.53698 11.8966 3.56986ZM5.94892 6.00405L5.99802 6.03157L6.04702 6.00388L7.63644 5.10556L7.78929 5.01917L7.63702 4.93178L3.54051 2.58047L3.49162 2.55241L3.4423 2.57971L1.7869 3.49612L1.62984 3.58306L1.78644 3.67084L5.94892 6.00405ZM6.04652 1.17511L5.99764 1.14786L5.94885 1.17526L4.67131 1.89271L4.51794 1.97884L4.6704 2.06657L8.76691 4.4239L8.81616 4.45224L8.86571 4.42445L10.2092 3.67082L10.3652 3.58335L10.209 3.49627L6.04652 1.17511ZM1.24862 4.52139L1.09956 4.43749V4.60853V8.05108V8.10976L1.1508 8.13838L5.34927 10.4837L5.49803 10.5668V10.3963V6.97189V6.91343L5.44709 6.88475L1.24862 4.52139ZM6.4976 10.3963V10.5668L6.64636 10.4837L10.8448 8.13838L10.8961 8.10976V8.05108V4.61456V4.44427L10.7473 4.52723L9.54778 5.19645L9.4965 5.22506V5.28378V7.13933L8.49694 7.64171V5.95902V5.78798L8.34789 5.87188L6.54854 6.88475L6.4976 6.91343V6.97189V10.3963Z" fill="white" stroke="#12335B" stroke-width="0.2"/>
</svg>
