<svg width="17" height="16" viewBox="0 0 17 16" fill="none" xmlns="http://www.w3.org/2000/svg">
<path fill-rule="evenodd" clip-rule="evenodd" d="M16.2891 8C16.2891 12.418 12.7071 16 8.28906 16C3.87106 16 0.289062 12.418 0.289062 8C0.289062 3.582 3.87106 0 8.28906 0C12.7071 0 16.2891 3.582 16.2891 8ZM8.57573 5.906C7.79773 6.22933 6.2424 6.89933 3.9104 7.91533C3.53173 8.066 3.33306 8.21333 3.31506 8.35733C3.2844 8.60133 3.58973 8.69733 4.0044 8.82733C4.06106 8.84533 4.11973 8.86333 4.17973 8.88333C4.5884 9.016 5.13773 9.17133 5.42306 9.17733C5.6824 9.18267 5.97173 9.076 6.29106 8.85733C8.46973 7.386 9.5944 6.64267 9.66506 6.62667C9.71506 6.61533 9.7844 6.60067 9.83106 6.64267C9.87773 6.684 9.87306 6.76267 9.8684 6.784C9.83773 6.91267 8.64173 8.02533 8.02173 8.60133C7.8284 8.78067 7.69173 8.908 7.66373 8.93733C7.60106 9.002 7.53706 9.064 7.47573 9.12333C7.09573 9.48867 6.81173 9.76333 7.49173 10.2113C7.8184 10.4267 8.07973 10.6047 8.3404 10.782C8.62506 10.976 8.90906 11.1693 9.27706 11.4107C9.3704 11.472 9.45973 11.5353 9.54706 11.5973C9.8784 11.834 10.1764 12.046 10.5444 12.0127C10.7577 11.9927 10.9791 11.792 11.0911 11.1927C11.3557 9.77533 11.8771 6.706 11.9977 5.44067C12.0051 5.33561 12.0006 5.23006 11.9844 5.126C11.9747 5.04195 11.9338 4.96462 11.8697 4.90933C11.7744 4.83133 11.6264 4.81467 11.5597 4.816C11.2591 4.82133 10.7977 4.982 8.57573 5.906V5.906Z" fill="#D9DBE1"/>
</svg>
