<svg width="14" height="13" viewBox="0 0 14 13" fill="none" xmlns="http://www.w3.org/2000/svg">
<path fill-rule="evenodd" clip-rule="evenodd" d="M10.7242 12.2956C10.9121 12.4286 11.1541 12.4619 11.37 12.3802C11.5858 12.298 11.7445 12.1136 11.7923 11.8902C12.2992 9.5079 13.5289 3.47798 13.9903 1.3109C14.0253 1.14757 13.967 0.977816 13.8386 0.868732C13.7103 0.759649 13.5324 0.728149 13.3737 0.787066C10.9278 1.6924 3.39523 4.51865 0.316399 5.6579C0.120982 5.73023 -0.00618459 5.91807 0.000232081 6.12398C0.00723208 6.33048 0.146065 6.50957 0.346149 6.56965C1.7269 6.98265 3.53932 7.55723 3.53932 7.55723C3.53932 7.55723 4.38632 10.1151 4.8279 11.416C4.88332 11.5793 5.01107 11.7077 5.17965 11.752C5.34765 11.7957 5.52732 11.7496 5.65273 11.6312C6.36207 10.9616 7.45873 9.92615 7.45873 9.92615C7.45873 9.92615 9.5424 11.4539 10.7242 12.2956V12.2956ZM4.30173 7.23407L5.28115 10.4646L5.49873 8.41882C5.49873 8.41882 9.28282 5.00573 11.44 3.06032C11.503 3.00315 11.5117 2.90748 11.4592 2.8404C11.4073 2.77332 11.3116 2.75757 11.2399 2.80307C8.73973 4.39965 4.30173 7.23407 4.30173 7.23407Z" fill="#0071FF"/>
</svg>
