<svg width="11" height="12" viewBox="0 0 11 12" fill="none" xmlns="http://www.w3.org/2000/svg">
<path d="M5.0575 1.54688C2.26917 1.54688 0 3.81604 0 6.60437C0 9.39271 2.26917 11.6677 5.0575 11.6677C7.84583 11.6677 10.115 9.39854 10.115 6.61021C10.115 3.82187 7.84583 1.54688 5.0575 1.54688ZM5.495 6.41771C5.495 6.65688 5.29667 6.85521 5.0575 6.85521C4.81833 6.85521 4.62 6.65688 4.62 6.41771V3.50104C4.62 3.26187 4.81833 3.06354 5.0575 3.06354C5.29667 3.06354 5.495 3.26187 5.495 3.50104V6.41771Z" fill="#9EA9B7"/>
<path d="M6.74284 0.845833H3.37117C3.13784 0.845833 2.95117 0.659167 2.95117 0.425833C2.95117 0.1925 3.13784 0 3.37117 0H6.74284C6.97617 0 7.16284 0.186667 7.16284 0.42C7.16284 0.653333 6.97617 0.845833 6.74284 0.845833Z" fill="#9EA9B7"/>
</svg>
