<svg width="24" height="17" viewBox="0 0 24 17" fill="none" xmlns="http://www.w3.org/2000/svg">
<path fill-rule="evenodd" clip-rule="evenodd" d="M1.08186 15.0309C0.486839 14.4976 0 14.0248 0 13.9804C0 13.9358 1.01425 12.601 2.25388 11.0141C3.49352 9.4272 4.50777 8.07488 4.50777 8.0089C4.50777 7.94298 3.49352 6.59002 2.25388 5.00237C1.01425 3.41472 0 2.07936 0 2.03495C0 1.95085 2.14936 0.00506018 2.23513 0.0114602C2.29542 0.0160042 8.47461 7.93556 8.47461 8.00826C8.47461 8.09255 2.29001 15.9999 2.22383 16.0002C2.19078 16.0004 1.67689 15.5642 1.08186 15.0309ZM8.94191 15.1224C8.40555 14.6413 7.90909 14.1864 7.83865 14.1113L7.71063 13.9747L10.0309 11.0107C11.3072 9.38042 12.3513 8.02912 12.3513 8.00781C12.3513 7.9865 11.309 6.63757 10.0351 5.01018C8.76112 3.38279 7.73527 2.02298 7.75541 1.98836C7.82645 1.86586 9.96079 0.00198793 10.0084 0.0208039C10.0731 0.0462119 16.258 7.95066 16.258 8.00781C16.258 8.08826 10.0588 15.9756 9.98705 15.9864C9.94859 15.9922 9.47827 15.6034 8.94191 15.1224ZM16.599 15.0089C15.6127 14.1342 15.4823 13.9971 15.5498 13.9059C15.5923 13.8485 16.6344 12.513 17.8658 10.9379C19.0972 9.36276 20.1046 8.04423 20.1046 8.00781C20.1046 7.9714 19.0972 6.65287 17.8658 5.07776C16.6344 3.50266 15.5923 2.16711 15.5498 2.10976C15.4823 2.01856 15.6127 1.88141 16.599 1.00672C17.2185 0.457284 17.7423 0.00781174 17.7631 0.00781174C17.841 0.00781174 24.0179 7.95584 24 8.03303C23.9774 8.13082 17.8172 16.0078 17.7633 16.0078C17.7425 16.0078 17.2185 15.5583 16.599 15.0089Z" fill="url(#paint0_linear_55_7)"/>
<defs>
<linearGradient id="paint0_linear_55_7" x1="24" y1="8.00781" x2="-2.4" y2="8.00781" gradientUnits="userSpaceOnUse">
<stop stop-color="#0071FF"/>
<stop offset="1" stop-color="#0071FF" stop-opacity="0"/>
</linearGradient>
</defs>
</svg>
