<svg width="18" height="18" viewBox="0 0 18 18" fill="none" xmlns="http://www.w3.org/2000/svg">
<path d="M16.5 12.1425L16.5 5.8575C16.5 3.1275 14.8725 1.5 12.1425 1.5L5.865 1.5C3.1275 1.5 1.5 3.1275 1.5 5.8575L1.5 12.135C1.5 14.865 3.1275 16.4925 5.8575 16.4925L12.1425 16.4925C14.8725 16.5 16.5 14.8725 16.5 12.1425ZM5.25 8.2425C5.175 8.2425 5.1075 8.2275 5.0325 8.1975C4.8975 8.1375 4.785 8.0325 4.725 7.89C4.695 7.8225 4.68 7.7475 4.68 7.6725C4.68 7.5975 4.695 7.53 4.725 7.455C4.755 7.3875 4.7925 7.3275 4.845 7.275L7.0575 5.0625C7.275 4.845 7.635 4.845 7.8525 5.0625C8.07 5.28 8.07 5.64 7.8525 5.8575L6.6 7.11L12.75 7.11C13.0575 7.11 13.3125 7.365 13.3125 7.6725C13.3125 7.98 13.0575 8.2425 12.75 8.2425L5.25 8.2425ZM10.14 12.93C10.0275 12.8175 9.975 12.675 9.975 12.5325C9.975 12.39 10.0275 12.2475 10.14 12.135L11.3925 10.8825L5.25 10.8825C4.9425 10.8825 4.6875 10.6275 4.6875 10.32C4.6875 10.0125 4.9425 9.7575 5.25 9.7575L12.75 9.7575C12.825 9.7575 12.8925 9.7725 12.9675 9.8025C13.1025 9.8625 13.215 9.9675 13.275 10.11C13.335 10.245 13.335 10.4025 13.275 10.5375C13.245 10.605 13.2075 10.665 13.155 10.7175L10.9425 12.93C10.7175 13.1475 10.3575 13.1475 10.14 12.93Z" fill="#9EA9B7"/>
</svg>
