<svg width="27" height="26" viewBox="0 0 27 26" fill="none" xmlns="http://www.w3.org/2000/svg">
<g clip-path="url(#clip0_104_26)">
<path d="M25.1479 7.83248C23.9292 6.70717 22.2433 4.98873 20.8701 3.76998L20.7889 3.7131C20.6537 3.60455 20.5013 3.51941 20.3379 3.46123C17.027 2.84373 1.61795 -0.0365837 1.31732 -2.11968e-05C1.23309 0.0117763 1.15257 0.0423176 1.0817 0.0893538L1.00451 0.150291C0.909467 0.246817 0.837279 0.363428 0.793262 0.491541L0.772949 0.544354V0.832791V0.877479C2.50764 5.70779 9.35701 21.5312 10.7058 25.2444C10.787 25.4962 10.9414 25.9756 11.2298 26H11.2948C11.4492 26 12.1073 25.1306 12.1073 25.1306C12.1073 25.1306 23.8723 10.8631 25.0626 9.34373C25.2167 9.15657 25.3527 8.95526 25.4689 8.74248C25.4985 8.576 25.4846 8.40467 25.4283 8.2452C25.3721 8.08572 25.2755 7.94353 25.1479 7.83248ZM15.1258 9.49404L20.147 5.32998L23.0923 8.04373L15.1258 9.49404ZM13.1758 9.22185L4.53076 2.13685L18.5179 4.71654L13.1758 9.22185ZM13.9558 11.0784L22.8039 9.65248L12.6883 21.84L13.9558 11.0784ZM3.3567 2.84373L12.4526 10.5625L11.1364 21.8481L3.3567 2.84373Z" fill="#FF060A"/>
</g>
<defs>
<clipPath id="clip0_104_26">
<rect width="26" height="26" fill="white" transform="translate(0.143066)"/>
</clipPath>
</defs>
</svg>
