<svg width="40" height="40" viewBox="0 0 40 40" fill="none" xmlns="http://www.w3.org/2000/svg">
<path d="M28.333 36.25H11.6663C4.31634 36.25 2.08301 34.0167 2.08301 26.6667V13.3333C2.08301 5.98333 4.31634 3.75 11.6663 3.75H28.333C35.683 3.75 37.9163 5.98333 37.9163 13.3333V26.6667C37.9163 34.0167 35.683 36.25 28.333 36.25ZM11.6663 6.25C5.69967 6.25 4.58301 7.38333 4.58301 13.3333V26.6667C4.58301 32.6167 5.69967 33.75 11.6663 33.75H28.333C34.2997 33.75 35.4163 32.6167 35.4163 26.6667V13.3333C35.4163 7.38333 34.2997 6.25 28.333 6.25H11.6663Z" fill="#0071FF"/>
<path d="M31.6663 14.5833H23.333C22.6497 14.5833 22.083 14.0167 22.083 13.3333C22.083 12.65 22.6497 12.0833 23.333 12.0833H31.6663C32.3497 12.0833 32.9163 12.65 32.9163 13.3333C32.9163 14.0167 32.3497 14.5833 31.6663 14.5833Z" fill="#0071FF"/>
<path d="M31.6667 21.25H25C24.3167 21.25 23.75 20.6833 23.75 20C23.75 19.3167 24.3167 18.75 25 18.75H31.6667C32.35 18.75 32.9167 19.3167 32.9167 20C32.9167 20.6833 32.35 21.25 31.6667 21.25Z" fill="#0071FF"/>
<path d="M31.6663 27.9167H28.333C27.6497 27.9167 27.083 27.35 27.083 26.6667C27.083 25.9833 27.6497 25.4167 28.333 25.4167H31.6663C32.3497 25.4167 32.9163 25.9833 32.9163 26.6667C32.9163 27.35 32.3497 27.9167 31.6663 27.9167Z" fill="#0071FF"/>
<path d="M14.1671 20.0667C11.8171 20.0667 9.90039 18.15 9.90039 15.8C9.90039 13.45 11.8171 11.5333 14.1671 11.5333C16.5171 11.5333 18.4337 13.45 18.4337 15.8C18.4337 18.15 16.5171 20.0667 14.1671 20.0667ZM14.1671 14.0333C13.2004 14.0333 12.4004 14.8333 12.4004 15.8C12.4004 16.7667 13.2004 17.5667 14.1671 17.5667C15.1337 17.5667 15.9337 16.7667 15.9337 15.8C15.9337 14.8333 15.1337 14.0333 14.1671 14.0333Z" fill="#0071FF"/>
<path d="M19.9998 28.4667C19.3665 28.4667 18.8165 27.9833 18.7498 27.3333C18.5665 25.5333 17.1165 24.0833 15.2998 23.9167C14.5332 23.85 13.7665 23.85 12.9998 23.9167C11.1832 24.0833 9.73318 25.5167 9.54984 27.3333C9.48318 28.0167 8.86651 28.5333 8.18318 28.45C7.49984 28.3833 6.99984 27.7667 7.06651 27.0833C7.36651 24.0833 9.74984 21.7 12.7665 21.4333C13.6832 21.35 14.6165 21.35 15.5332 21.4333C18.5332 21.7167 20.9332 24.1 21.2332 27.0833C21.2998 27.7667 20.7998 28.3833 20.1165 28.45C20.0832 28.4667 20.0332 28.4667 19.9998 28.4667Z" fill="#0071FF"/>
</svg>
