<svg width="32" height="32" viewBox="0 0 32 32" fill="none" xmlns="http://www.w3.org/2000/svg">
<path d="M0 16C0 7.16344 7.16344 0 16 0C24.8366 0 32 7.16344 32 16C32 24.8366 24.8366 32 16 32C7.16344 32 0 24.8366 0 16Z" fill="#161C2E"/>
<path fill-rule="evenodd" clip-rule="evenodd" d="M1.33333 16C1.33333 24.1002 7.89982 30.6667 16 30.6667C24.1002 30.6667 30.6667 24.1002 30.6667 16C30.6667 7.89982 24.1002 1.33333 16 1.33333C7.89982 1.33333 1.33333 7.89982 1.33333 16ZM16 0C7.16344 0 0 7.16344 0 16C0 24.8366 7.16344 32 16 32C24.8366 32 32 24.8366 32 16C32 7.16344 24.8366 0 16 0Z" fill="#E2E6EE"/>
<path d="M15.9972 5.33594L9.33301 16.2003L15.9972 13.2246V5.33594Z" fill="#8A92B2"/>
<path d="M15.9972 13.2266L9.33301 16.2023L15.9972 20.0732V13.2266Z" fill="#62688F"/>
<path d="M22.6625 16.2003L15.9971 5.33594V13.2246L22.6625 16.2003Z" fill="#62688F"/>
<path d="M15.9971 20.0732L22.6625 16.2023L15.9971 13.2266V20.0732Z" fill="#454A75"/>
<path d="M9.33301 17.4375L15.9972 26.6642V21.306L9.33301 17.4375Z" fill="#8A92B2"/>
<path d="M15.9971 21.306V26.6642L22.6662 17.4375L15.9971 21.306Z" fill="#62688F"/>
</svg>
