<svg width="30" height="30" viewBox="0 0 30 30" fill="none" xmlns="http://www.w3.org/2000/svg">
<path d="M15 0C6.72 0 0 6.72 0 15C0 23.28 6.72 30 15 30C23.28 30 30 23.28 30 15C30 6.72 23.28 0 15 0ZM13.08 20.115C12.585 20.91 11.715 21.39 10.77 21.39H6.66C6.135 21.39 5.80498 20.82 6.07498 20.37L14.49 5.955C14.73 5.535 15.33 5.505 15.615 5.895L17.955 9.02999C18.63 9.93 18.675 11.145 18.09 12.105L13.08 20.115ZM23.325 21.39H17.565C17.04 21.39 16.71 20.82 16.98 20.355L19.86 15.555C20.13 15.12 20.76 15.12 21.03 15.555L23.91 20.355C24.18 20.805 23.85 21.39 23.325 21.39Z" fill="#E74142"/>
</svg>
