<svg width="24" height="24" viewBox="0 0 24 24" fill="none" xmlns="http://www.w3.org/2000/svg">
<path d="M12 14.75C11.59 14.75 11.25 14.41 11.25 14V9C11.25 8.59 11.59 8.25 12 8.25C12.41 8.25 12.75 8.59 12.75 9V14C12.75 14.41 12.41 14.75 12 14.75Z" fill="white"/>
<path d="M12 18.0025C11.94 18.0025 11.87 17.9925 11.8 17.9825C11.74 17.9725 11.68 17.9525 11.62 17.9225C11.56 17.9025 11.5 17.8725 11.44 17.8325C11.39 17.7925 11.34 17.7525 11.29 17.7125C11.11 17.5225 11 17.2625 11 17.0025C11 16.7425 11.11 16.4825 11.29 16.2925C11.34 16.2525 11.39 16.2125 11.44 16.1725C11.5 16.1325 11.56 16.1025 11.62 16.0825C11.68 16.0525 11.74 16.0325 11.8 16.0225C11.93 15.9925 12.07 15.9925 12.19 16.0225C12.26 16.0325 12.32 16.0525 12.38 16.0825C12.44 16.1025 12.5 16.1325 12.56 16.1725C12.61 16.2125 12.66 16.2525 12.71 16.2925C12.89 16.4825 13 16.7425 13 17.0025C13 17.2625 12.89 17.5225 12.71 17.7125C12.66 17.7525 12.61 17.7925 12.56 17.8325C12.5 17.8725 12.44 17.9025 12.38 17.9225C12.32 17.9525 12.26 17.9725 12.19 17.9825C12.13 17.9925 12.06 18.0025 12 18.0025Z" fill="white"/>
<path d="M18.0605 22.1637H5.94046C3.99046 22.1637 2.50046 21.4538 1.74046 20.1737C0.990464 18.8937 1.09046 17.2437 2.04046 15.5337L8.10046 4.63375C9.10046 2.83375 10.4805 1.84375 12.0005 1.84375C13.5205 1.84375 14.9005 2.83375 15.9005 4.63375L21.9605 15.5437C22.9105 17.2537 23.0205 18.8937 22.2605 20.1838C21.5005 21.4538 20.0105 22.1637 18.0605 22.1637ZM12.0005 3.34375C11.0605 3.34375 10.1405 4.06375 9.41046 5.36375L3.36046 16.2738C2.68046 17.4938 2.57046 18.6138 3.04046 19.4237C3.51046 20.2337 4.55046 20.6737 5.95046 20.6737H18.0705C19.4705 20.6737 20.5005 20.2337 20.9805 19.4237C21.4605 18.6138 21.3405 17.5037 20.6605 16.2738L14.5905 5.36375C13.8605 4.06375 12.9405 3.34375 12.0005 3.34375Z" fill="white"/>
</svg>
