<svg width="8" height="5" viewBox="0 0 8 5" fill="none" xmlns="http://www.w3.org/2000/svg">
<path fill-rule="evenodd" clip-rule="evenodd" d="M0.291565 0.292257C0.104758 0.481149 0 0.736094 0 1.00176C0 1.26742 0.104758 1.52237 0.291565 1.71126L3.23056 4.67626C3.44856 4.89126 3.73058 4.99826 4.00958 4.99826C4.28858 4.99826 4.56556 4.89126 4.77856 4.67626L7.70859 1.72126C7.82439 1.60432 7.90978 1.46081 7.95734 1.30326C8.00489 1.1457 8.01315 0.978904 7.98138 0.817424C7.94962 0.655945 7.8788 0.504698 7.77512 0.376895C7.67143 0.249093 7.53803 0.148621 7.38657 0.0842566C7.20479 0.00809227 7.00435 -0.0118469 6.81113 0.0270113C6.61791 0.0658695 6.44078 0.161742 6.30258 0.302257L4.00458 2.61926L1.69757 0.292257C1.55859 0.152951 1.38142 0.0579824 1.18848 0.0193571C0.995528 -0.0192681 0.79548 0.000185683 0.613586 0.0752577C0.493044 0.125743 0.383606 0.199479 0.291565 0.292257Z" fill="#142438"/>
</svg>
