<svg width="18" height="18" viewBox="0 0 18 18" fill="none" xmlns="http://www.w3.org/2000/svg">
<g filter="url(#filter0_i_1143_37280)">
<circle cx="9" cy="9" r="9" fill="url(#paint0_diamond_1143_37280)"/>
<circle cx="9" cy="9" r="9" fill="url(#paint1_diamond_1143_37280)"/>
</g>
<mask id="mask0_1143_37280" style="mask-type:alpha" maskUnits="userSpaceOnUse" x="0" y="0" width="18" height="18">
<circle cx="9" cy="9" r="9" fill="url(#paint2_diamond_1143_37280)"/>
<circle cx="9" cy="9" r="9" fill="url(#paint3_diamond_1143_37280)"/>
</mask>
<g mask="url(#mask0_1143_37280)">
<path fill-rule="evenodd" clip-rule="evenodd" d="M4.89844 8.36969C4.89844 6.45594 6.44878 4.90454 8.36123 4.90454H18.074V5.91704H8.36123C7.00759 5.91704 5.91025 7.01513 5.91025 8.36969V11.8778C5.91025 13.2324 7.00759 14.3304 8.36123 14.3304H16.4276V15.3429H8.36123C6.44878 15.3429 4.89844 13.7915 4.89844 11.8778V8.36969Z" fill="white"/>
<path fill-rule="evenodd" clip-rule="evenodd" d="M7.54883 8.49585C7.54883 7.80772 8.10629 7.24988 8.79395 7.24988H18.4752V8.26238H8.79395C8.6651 8.26238 8.56064 8.36691 8.56064 8.49585V9.38171C8.56064 9.51066 8.6651 9.61519 8.79395 9.61519H15.5753V10.6277H8.79395C8.10629 10.6277 7.54883 10.0698 7.54883 9.38171V8.49585Z" fill="white"/>
<path fill-rule="evenodd" clip-rule="evenodd" d="M19.9707 11.3037C19.9707 10.3709 19.2151 9.61475 18.2829 9.61475H10.7865V10.6272H18.2829C18.6563 10.6272 18.9589 10.9301 18.9589 11.3037C18.9589 11.6772 18.6563 11.9801 18.283 11.9801H8.19463V12.9926H18.283C19.2151 12.9926 19.9707 12.2364 19.9707 11.3037Z" fill="white"/>
</g>
<defs>
<filter id="filter0_i_1143_37280" x="0" y="0" width="18" height="18" filterUnits="userSpaceOnUse" color-interpolation-filters="sRGB">
<feFlood flood-opacity="0" result="BackgroundImageFix"/>
<feBlend mode="normal" in="SourceGraphic" in2="BackgroundImageFix" result="shape"/>
<feColorMatrix in="SourceAlpha" type="matrix" values="0 0 0 0 0 0 0 0 0 0 0 0 0 0 0 0 0 0 127 0" result="hardAlpha"/>
<feOffset/>
<feGaussianBlur stdDeviation="2.84095"/>
<feComposite in2="hardAlpha" operator="arithmetic" k2="-1" k3="1"/>
<feColorMatrix type="matrix" values="0 0 0 0 0.160349 0 0 0 0 0.114062 0 0 0 0 0.9125 0 0 0 1 0"/>
<feBlend mode="normal" in2="shape" result="effect1_innerShadow_1143_37280"/>
</filter>
<radialGradient id="paint0_diamond_1143_37280" cx="0" cy="0" r="1" gradientUnits="userSpaceOnUse" gradientTransform="translate(-3.375 16.1053) rotate(-22.3504) scale(30.9857)">
<stop offset="0.421875" stop-color="#402AFD"/>
<stop offset="1" stop-color="#0EFFD4"/>
</radialGradient>
<radialGradient id="paint1_diamond_1143_37280" cx="0" cy="0" r="1" gradientUnits="userSpaceOnUse" gradientTransform="translate(5.56875 4.1625) rotate(-26.2587) scale(14.1126 7.47137)">
<stop stop-color="#AAFCFF"/>
<stop offset="1" stop-color="white" stop-opacity="0"/>
</radialGradient>
<radialGradient id="paint2_diamond_1143_37280" cx="0" cy="0" r="1" gradientUnits="userSpaceOnUse" gradientTransform="translate(-3.375 16.1053) rotate(-22.3504) scale(30.9857)">
<stop offset="0.421875" stop-color="#402AFD"/>
<stop offset="1" stop-color="#0EFFD4"/>
</radialGradient>
<radialGradient id="paint3_diamond_1143_37280" cx="0" cy="0" r="1" gradientUnits="userSpaceOnUse" gradientTransform="translate(5.56875 4.1625) rotate(-26.2587) scale(14.1126 7.47137)">
<stop stop-color="#AAFCFF"/>
<stop offset="1" stop-color="white" stop-opacity="0"/>
</radialGradient>
</defs>
</svg>
