<svg width="32" height="32" viewBox="0 0 32 32" fill="none" xmlns="http://www.w3.org/2000/svg">
<path d="M11.9999 23.6666C11.8533 23.6666 11.6933 23.6266 11.5599 23.56C10.5333 23.04 9.65328 22.2666 9.01328 21.3066C8.47995 20.5066 8.47995 19.48 9.01328 18.68C9.65328 17.72 10.5333 16.9466 11.5599 16.44C12.0533 16.1866 12.6533 16.4 12.9066 16.8933C13.1599 17.3866 12.9599 17.9866 12.4533 18.24C11.7333 18.6 11.1199 19.1466 10.6799 19.8133C10.5999 19.9333 10.5999 20.0933 10.6799 20.2266C11.1199 20.8933 11.7333 21.44 12.4533 21.8C12.9466 22.0533 13.1466 22.6533 12.9066 23.1466C12.7199 23.4666 12.3599 23.6666 11.9999 23.6666Z" fill="#0071FF"/>
<path d="M20.2803 23.6667C19.907 23.6667 19.5603 23.4667 19.387 23.1201C19.1336 22.6267 19.3336 22.0267 19.8403 21.7734C20.5603 21.4134 21.1736 20.8667 21.6136 20.2001C21.6936 20.0801 21.6936 19.9201 21.6136 19.7867C21.1736 19.1201 20.5603 18.5734 19.8403 18.2134C19.347 17.9601 19.147 17.3601 19.387 16.8667C19.6403 16.3734 20.2403 16.1734 20.7336 16.4134C21.7603 16.9334 22.6403 17.7067 23.2803 18.6667C23.8136 19.4667 23.8136 20.4934 23.2803 21.2934C22.6403 22.2534 21.7603 23.0267 20.7336 23.5334C20.5736 23.6267 20.427 23.6667 20.2803 23.6667Z" fill="#0071FF"/>
<path d="M19.9993 30.3333H11.9993C4.75935 30.3333 1.66602 27.24 1.66602 20V12C1.66602 4.75996 4.75935 1.66663 11.9993 1.66663H19.9993C27.2393 1.66663 30.3327 4.75996 30.3327 12V20C30.3327 27.24 27.2393 30.3333 19.9993 30.3333ZM11.9993 3.66663C5.85268 3.66663 3.66602 5.85329 3.66602 12V20C3.66602 26.1466 5.85268 28.3333 11.9993 28.3333H19.9993C26.146 28.3333 28.3327 26.1466 28.3327 20V12C28.3327 5.85329 26.146 3.66663 19.9993 3.66663H11.9993Z" fill="#0071FF"/>
<path d="M2.97266 11.68C2.42599 11.68 1.97266 11.2266 1.97266 10.68C1.97266 10.1333 2.41266 9.67996 2.97266 9.67996L28.5993 9.66663C29.146 9.66663 29.5993 10.12 29.5993 10.6666C29.5993 11.2133 29.1593 11.6666 28.5993 11.6666L2.97266 11.68Z" fill="#0071FF"/>
</svg>
