<svg width="33" height="32" viewBox="0 0 33 32" fill="none" xmlns="http://www.w3.org/2000/svg">
<path d="M14.4375 28C7.98267 28 2.75 22.6274 2.75 16C2.75 9.37258 7.98267 4 14.4375 4C20.8923 4 26.125 9.37258 26.125 16C26.125 22.6274 20.8923 28 14.4375 28Z" stroke="white" stroke-width="2" stroke-linecap="round" stroke-linejoin="round"/>
<path d="M17.875 11.7333C16.9999 11.0452 15.9079 10.6687 14.7813 10.6666C11.9336 10.6666 9.625 13.0533 9.625 16C9.625 18.9466 11.9336 21.3333 14.7813 21.3333C15.9418 21.3333 17.0129 20.936 17.875 20.2666" stroke="white" stroke-width="2" stroke-linecap="round" stroke-linejoin="round"/>
<path d="M15.125 4C20.1671 4 30.25 5.2 30.25 16C30.25 26.8 20.1671 28 15.125 28" stroke="white" stroke-width="2"/>
</svg>
