<svg width="138" height="24" viewBox="0 0 138 24" fill="none" xmlns="http://www.w3.org/2000/svg">
<path d="M63.8438 19.3051V4.52865H70.3202C71.9271 4.52865 73.1637 4.87099 74.0301 5.55567C74.8964 6.22637 75.3296 7.16256 75.3296 8.36424C75.3296 9.25851 75.0641 10.0131 74.5331 10.6279C74.0021 11.2427 73.2685 11.6549 72.3323 11.8645V11.5501C73.4083 11.7038 74.2397 12.095 74.8265 12.7238C75.4274 13.3386 75.7278 14.1561 75.7278 15.1761C75.7278 16.4895 75.2737 17.5096 74.3654 18.2362C73.4572 18.9488 72.1926 19.3051 70.5717 19.3051H63.8438ZM66.4427 17.2511H70.2574C71.1656 17.2511 71.8712 17.0834 72.3743 16.748C72.8773 16.3987 73.1288 15.8328 73.1288 15.0503C73.1288 14.2539 72.8773 13.688 72.3743 13.3526C71.8712 13.0033 71.1656 12.8286 70.2574 12.8286H66.4427V17.2511ZM66.4427 10.7955H69.8591C70.8233 10.7955 71.5359 10.6209 71.997 10.2716C72.4721 9.90826 72.7096 9.37728 72.7096 8.67863C72.7096 7.97998 72.4721 7.456 71.997 7.10667C71.5359 6.74337 70.8233 6.56172 69.8591 6.56172H66.4427V10.7955Z" fill="#142438"/>
<path d="M78.0843 19.3051V11.4243C78.0843 10.9772 78.0703 10.5231 78.0423 10.062C78.0284 9.60085 77.9934 9.15372 77.9375 8.72055H80.4736L80.7671 11.613H80.3479C80.4876 10.9143 80.7182 10.3344 81.0395 9.87333C81.3749 9.41222 81.7801 9.06988 82.2552 8.84631C82.7303 8.62274 83.2473 8.51096 83.8062 8.51096C84.0577 8.51096 84.2603 8.52493 84.414 8.55288C84.5677 8.56685 84.7214 8.60178 84.8751 8.65767L84.8542 10.9632C84.5887 10.8514 84.3581 10.7816 84.1625 10.7536C83.9809 10.7257 83.7503 10.7117 83.4709 10.7117C82.87 10.7117 82.36 10.8375 81.9408 11.089C81.5356 11.3405 81.2282 11.6898 81.0186 12.137C80.823 12.5841 80.7252 13.0941 80.7252 13.667V19.3051H78.0843Z" fill="#142438"/>
<path d="M86.3335 19.3051V8.72055H88.9534V19.3051H86.3335ZM86.1867 6.7294V4.17234H89.1001V6.7294H86.1867Z" fill="#142438"/>
<path d="M95.9066 19.5147C94.9843 19.5147 94.1669 19.2981 93.4543 18.865C92.7556 18.4178 92.2107 17.782 91.8194 16.9576C91.4282 16.1332 91.2326 15.1481 91.2326 14.0023C91.2326 12.8566 91.4282 11.8785 91.8194 11.068C92.2107 10.2436 92.7556 9.61483 93.4543 9.18166C94.1669 8.73453 94.9843 8.51096 95.9066 8.51096C96.7869 8.51096 97.5624 8.72754 98.2331 9.1607C98.9177 9.57989 99.3719 10.1528 99.5954 10.8794H99.323V3.87891H101.943V19.3051H99.3649V17.0624H99.6164C99.3928 17.817 98.9387 18.4178 98.254 18.865C97.5833 19.2981 96.8008 19.5147 95.9066 19.5147ZM96.6401 17.5026C97.4645 17.5026 98.1283 17.2161 98.6313 16.6432C99.1343 16.0564 99.3858 15.1761 99.3858 14.0023C99.3858 12.8286 99.1343 11.9553 98.6313 11.3824C98.1283 10.8095 97.4645 10.5231 96.6401 10.5231C95.8157 10.5231 95.145 10.8095 94.628 11.3824C94.125 11.9553 93.8735 12.8286 93.8735 14.0023C93.8735 15.1761 94.125 16.0564 94.628 16.6432C95.145 17.2161 95.8157 17.5026 96.6401 17.5026Z" fill="#142438"/>
<path d="M109.7 24C108.722 24 107.835 23.8952 107.039 23.6856C106.256 23.476 105.557 23.1547 104.943 22.7215L105.508 20.8351C105.914 21.1006 106.333 21.3172 106.766 21.4849C107.199 21.6526 107.646 21.7783 108.107 21.8622C108.569 21.946 109.037 21.9879 109.512 21.9879C110.49 21.9879 111.216 21.7434 111.692 21.2543C112.181 20.7793 112.425 20.0946 112.425 19.2003V16.6642H112.635C112.411 17.3908 111.957 17.9707 111.272 18.4038C110.602 18.837 109.826 19.0536 108.946 19.0536C107.996 19.0536 107.164 18.844 106.452 18.4248C105.753 17.9916 105.208 17.3768 104.817 16.5804C104.426 15.7839 104.23 14.8477 104.23 13.7718C104.23 12.6959 104.426 11.7667 104.817 10.9842C105.208 10.1877 105.753 9.57989 106.452 9.1607C107.164 8.72754 107.996 8.51096 108.946 8.51096C109.84 8.51096 110.616 8.72754 111.272 9.1607C111.943 9.57989 112.39 10.1528 112.614 10.8794L112.425 10.7536L112.635 8.72055H115.171C115.115 9.15372 115.073 9.59387 115.045 10.041C115.017 10.4881 115.003 10.9283 115.003 11.3615V18.8859C115.003 20.5487 114.549 21.8133 113.641 22.6796C112.746 23.5599 111.433 24 109.7 24ZM109.658 17.0415C110.497 17.0415 111.161 16.762 111.65 16.2031C112.153 15.6302 112.404 14.8198 112.404 13.7718C112.404 12.7238 112.153 11.9204 111.65 11.3615C111.161 10.8025 110.497 10.5231 109.658 10.5231C108.806 10.5231 108.128 10.8025 107.625 11.3615C107.122 11.9204 106.871 12.7238 106.871 13.7718C106.871 14.8198 107.122 15.6302 107.625 16.2031C108.128 16.762 108.806 17.0415 109.658 17.0415Z" fill="#142438"/>
<path d="M122.948 19.5147C121.174 19.5147 119.783 19.0256 118.777 18.0475C117.771 17.0694 117.268 15.728 117.268 14.0233C117.268 12.9194 117.485 11.9553 117.918 11.1309C118.351 10.3065 118.952 9.66373 119.72 9.20262C120.503 8.74151 121.411 8.51096 122.445 8.51096C123.465 8.51096 124.318 8.72754 125.002 9.1607C125.687 9.59387 126.204 10.2017 126.553 10.9842C126.917 11.7667 127.098 12.6819 127.098 13.7299V14.4215H119.385V13.0382H125.233L124.877 13.3316C124.877 12.3535 124.667 11.606 124.248 11.089C123.843 10.572 123.249 10.3135 122.466 10.3135C121.6 10.3135 120.929 10.6209 120.454 11.2357C119.993 11.8505 119.762 12.7098 119.762 13.8137V14.0862C119.762 15.232 120.042 16.0913 120.601 16.6642C121.174 17.2231 121.977 17.5026 123.011 17.5026C123.612 17.5026 124.171 17.4257 124.688 17.272C125.219 17.1044 125.722 16.8389 126.197 16.4756L126.972 18.2362C126.469 18.6414 125.869 18.9558 125.17 19.1793C124.471 19.4029 123.731 19.5147 122.948 19.5147Z" fill="#142438"/>
<path d="M133.09 19.5147C132.181 19.5147 131.343 19.4099 130.574 19.2003C129.82 18.9767 129.184 18.6693 128.667 18.2781L129.401 16.5175C129.932 16.8808 130.519 17.1602 131.161 17.3559C131.804 17.5515 132.454 17.6493 133.11 17.6493C133.809 17.6493 134.326 17.5305 134.661 17.293C135.011 17.0555 135.185 16.7341 135.185 16.3289C135.185 16.0075 135.074 15.756 134.85 15.5743C134.641 15.3787 134.298 15.232 133.823 15.1342L131.727 14.7359C130.833 14.5403 130.148 14.205 129.673 13.7299C129.212 13.2548 128.981 12.633 128.981 11.8645C128.981 11.2077 129.156 10.6279 129.505 10.1248C129.869 9.62181 130.379 9.23057 131.036 8.95111C131.706 8.65767 132.489 8.51096 133.383 8.51096C134.165 8.51096 134.899 8.61576 135.584 8.82535C136.282 9.03495 136.869 9.34934 137.344 9.76853L136.59 11.4662C136.157 11.1169 135.661 10.8444 135.102 10.6488C134.543 10.4532 133.998 10.3554 133.467 10.3554C132.74 10.3554 132.209 10.4881 131.874 10.7536C131.539 11.0051 131.371 11.3335 131.371 11.7387C131.371 12.0461 131.469 12.3046 131.664 12.5142C131.874 12.7098 132.195 12.8566 132.628 12.9544L134.724 13.3526C135.661 13.5343 136.366 13.8556 136.841 14.3167C137.33 14.7639 137.575 15.3787 137.575 16.1612C137.575 16.8598 137.386 17.4607 137.009 17.9637C136.632 18.4667 136.108 18.851 135.437 19.1165C134.766 19.382 133.984 19.5147 133.09 19.5147Z" fill="#142438"/>
<path d="M36.3906 19.3077V4.53125H41.7563C43.447 4.53125 44.8722 4.82468 46.032 5.41155C47.2057 5.98444 48.093 6.82282 48.6939 7.92669C49.2947 9.01659 49.5951 10.344 49.5951 11.909C49.5951 13.46 49.2947 14.7874 48.6939 15.8913C48.093 16.9952 47.2057 17.8405 46.032 18.4274C44.8722 19.0143 43.447 19.3077 41.7563 19.3077H36.3906ZM39.0944 17.065H41.5886C43.3771 17.065 44.7046 16.6389 45.5709 15.7865C46.4372 14.9342 46.8704 13.6417 46.8704 11.909C46.8704 10.1624 46.4372 8.86987 45.5709 8.03149C44.7046 7.17914 43.3771 6.75296 41.5886 6.75296H39.0944V17.065Z" fill="#0071FF"/>
<path d="M57.2604 19.5173C55.4858 19.5173 54.0955 19.0282 53.0895 18.0501C52.0834 17.072 51.5804 15.7306 51.5804 14.0259C51.5804 12.922 51.797 11.9579 52.2301 11.1335C52.6633 10.3091 53.2641 9.66633 54.0326 9.20522C54.8151 8.74411 55.7234 8.51356 56.7574 8.51356C57.7774 8.51356 58.6298 8.73014 59.3144 9.1633C59.9991 9.59647 60.5161 10.2043 60.8654 10.9868C61.2287 11.7693 61.4104 12.6845 61.4104 13.7325V14.4241H53.6973V13.0408H59.545L59.1887 13.3342C59.1887 12.3561 58.9791 11.6086 58.5599 11.0916C58.1547 10.5746 57.5608 10.3161 56.7783 10.3161C55.912 10.3161 55.2413 10.6235 54.7662 11.2383C54.3051 11.8531 54.0746 12.7124 54.0746 13.8163V14.0888C54.0746 15.2346 54.354 16.0939 54.9129 16.6668C55.4858 17.2257 56.2893 17.5052 57.3233 17.5052C57.9241 17.5052 58.483 17.4283 59 17.2746C59.531 17.107 60.034 16.8415 60.5091 16.4782L61.2846 18.2388C60.7816 18.644 60.1808 18.9584 59.4821 19.1819C58.7835 19.4055 58.0429 19.5173 57.2604 19.5173Z" fill="#0071FF"/>
<path d="M11.3531 22.7085V17.032C8.2152 17.032 5.67653 14.4933 5.67653 11.3555H0C0 17.6312 5.07734 22.7085 11.3531 22.7085Z" fill="#0071FF"/>
<path d="M11.3535 22.7085V17.032C14.4914 17.032 17.03 14.4933 17.03 11.3555H22.7066C22.7066 17.6312 17.6292 22.7085 11.3535 22.7085Z" fill="#142438"/>
<path d="M16.9199 0V5.67653C20.0578 5.67653 22.5965 8.2152 22.5965 11.3531H28.273C28.273 5.07734 23.1956 0 16.9199 0Z" fill="#0071FF"/>
<path d="M16.9214 0V5.67653C13.7836 5.67653 11.2449 8.2152 11.2449 11.3531H5.56836C5.56836 5.07734 10.6457 0 16.9214 0Z" fill="#142438"/>
</svg>
