<svg width="138" height="24" viewBox="0 0 138 24" fill="none" xmlns="http://www.w3.org/2000/svg">
<path d="M63.8438 19.3012V4.52475H70.3202C71.9271 4.52475 73.1637 4.86708 74.0301 5.55176C74.8964 6.22247 75.3296 7.15866 75.3296 8.36034C75.3296 9.25461 75.0641 10.0092 74.5331 10.624C74.0021 11.2388 73.2685 11.651 72.3323 11.8606V11.5462C73.4083 11.6999 74.2397 12.0911 74.8265 12.7199C75.4274 13.3347 75.7278 14.1521 75.7278 15.1722C75.7278 16.4856 75.2737 17.5057 74.3654 18.2323C73.4572 18.9449 72.1926 19.3012 70.5717 19.3012H63.8438ZM66.4427 17.2472H70.2574C71.1656 17.2472 71.8712 17.0795 72.3743 16.7441C72.8773 16.3948 73.1288 15.8289 73.1288 15.0464C73.1288 14.25 72.8773 13.6841 72.3743 13.3487C71.8712 12.9994 71.1656 12.8247 70.2574 12.8247H66.4427V17.2472ZM66.4427 10.7916H69.8591C70.8233 10.7916 71.5359 10.617 71.997 10.2677C72.4721 9.90435 72.7096 9.37338 72.7096 8.67473C72.7096 7.97608 72.4721 7.45209 71.997 7.10277C71.5359 6.73947 70.8233 6.55782 69.8591 6.55782H66.4427V10.7916Z" fill="white"/>
<path d="M78.0843 19.3012V11.4204C78.0843 10.9733 78.0703 10.5192 78.0423 10.0581C78.0284 9.59695 77.9934 9.14981 77.9375 8.71665H80.4736L80.7671 11.6091H80.3479C80.4876 10.9104 80.7182 10.3305 81.0395 9.86942C81.3749 9.40831 81.7801 9.06597 82.2552 8.8424C82.7303 8.61884 83.2473 8.50705 83.8062 8.50705C84.0577 8.50705 84.2603 8.52102 84.414 8.54897C84.5677 8.56294 84.7214 8.59788 84.8751 8.65377L84.8542 10.9593C84.5887 10.8475 84.3581 10.7777 84.1625 10.7497C83.9809 10.7218 83.7503 10.7078 83.4709 10.7078C82.87 10.7078 82.36 10.8336 81.9408 11.0851C81.5356 11.3366 81.2282 11.6859 81.0186 12.133C80.823 12.5802 80.7252 13.0902 80.7252 13.6631V19.3012H78.0843Z" fill="white"/>
<path d="M86.3335 19.3012V8.71665H88.9534V19.3012H86.3335ZM86.1867 6.72549V4.16843H89.1001V6.72549H86.1867Z" fill="white"/>
<path d="M95.9066 19.5108C94.9843 19.5108 94.1669 19.2942 93.4543 18.861C92.7556 18.4139 92.2107 17.7781 91.8194 16.9537C91.4282 16.1293 91.2326 15.1442 91.2326 13.9984C91.2326 12.8527 91.4282 11.8745 91.8194 11.0641C92.2107 10.2397 92.7556 9.61092 93.4543 9.17776C94.1669 8.73062 94.9843 8.50705 95.9066 8.50705C96.7869 8.50705 97.5624 8.72363 98.2331 9.1568C98.9177 9.57599 99.3719 10.1489 99.5954 10.8755H99.323V3.875H101.943V19.3012H99.3649V17.0585H99.6164C99.3928 17.8131 98.9387 18.4139 98.254 18.861C97.5833 19.2942 96.8008 19.5108 95.9066 19.5108ZM96.6401 17.4987C97.4645 17.4987 98.1283 17.2122 98.6313 16.6393C99.1343 16.0525 99.3858 15.1722 99.3858 13.9984C99.3858 12.8247 99.1343 11.9514 98.6313 11.3785C98.1283 10.8056 97.4645 10.5192 96.6401 10.5192C95.8157 10.5192 95.145 10.8056 94.628 11.3785C94.125 11.9514 93.8735 12.8247 93.8735 13.9984C93.8735 15.1722 94.125 16.0525 94.628 16.6393C95.145 17.2122 95.8157 17.4987 96.6401 17.4987Z" fill="white"/>
<path d="M109.7 23.9961C108.722 23.9961 107.835 23.8913 107.039 23.6817C106.256 23.4721 105.557 23.1508 104.943 22.7176L105.508 20.8312C105.914 21.0967 106.333 21.3133 106.766 21.481C107.199 21.6487 107.646 21.7744 108.107 21.8583C108.569 21.9421 109.037 21.984 109.512 21.984C110.49 21.984 111.216 21.7395 111.692 21.2504C112.181 20.7754 112.425 20.0907 112.425 19.1964V16.6603H112.635C112.411 17.3869 111.957 17.9668 111.272 18.3999C110.602 18.8331 109.826 19.0497 108.946 19.0497C107.996 19.0497 107.164 18.8401 106.452 18.4209C105.753 17.9877 105.208 17.3729 104.817 16.5765C104.426 15.78 104.23 14.8438 104.23 13.7679C104.23 12.692 104.426 11.7628 104.817 10.9803C105.208 10.1838 105.753 9.57599 106.452 9.1568C107.164 8.72363 107.996 8.50705 108.946 8.50705C109.84 8.50705 110.616 8.72363 111.272 9.1568C111.943 9.57599 112.39 10.1489 112.614 10.8755L112.425 10.7497L112.635 8.71665H115.171C115.115 9.14981 115.073 9.58996 115.045 10.0371C115.017 10.4842 115.003 10.9244 115.003 11.3575V18.882C115.003 20.5448 114.549 21.8094 113.641 22.6757C112.746 23.556 111.433 23.9961 109.7 23.9961ZM109.658 17.0376C110.497 17.0376 111.161 16.7581 111.65 16.1992C112.153 15.6263 112.404 14.8159 112.404 13.7679C112.404 12.7199 112.153 11.9165 111.65 11.3575C111.161 10.7986 110.497 10.5192 109.658 10.5192C108.806 10.5192 108.128 10.7986 107.625 11.3575C107.122 11.9165 106.871 12.7199 106.871 13.7679C106.871 14.8159 107.122 15.6263 107.625 16.1992C108.128 16.7581 108.806 17.0376 109.658 17.0376Z" fill="white"/>
<path d="M122.948 19.5108C121.174 19.5108 119.783 19.0217 118.777 18.0436C117.771 17.0655 117.268 15.7241 117.268 14.0194C117.268 12.9155 117.485 11.9514 117.918 11.127C118.351 10.3026 118.952 9.65982 119.72 9.19872C120.503 8.73761 121.411 8.50705 122.445 8.50705C123.465 8.50705 124.318 8.72363 125.002 9.1568C125.687 9.58996 126.204 10.1978 126.553 10.9803C126.917 11.7628 127.098 12.678 127.098 13.726V14.4176H119.385V13.0343H125.233L124.877 13.3277C124.877 12.3496 124.667 11.6021 124.248 11.0851C123.843 10.5681 123.249 10.3096 122.466 10.3096C121.6 10.3096 120.929 10.617 120.454 11.2318C119.993 11.8466 119.762 12.7059 119.762 13.8098V14.0823C119.762 15.2281 120.042 16.0874 120.601 16.6603C121.174 17.2192 121.977 17.4987 123.011 17.4987C123.612 17.4987 124.171 17.4218 124.688 17.2681C125.219 17.1005 125.722 16.835 126.197 16.4717L126.972 18.2323C126.469 18.6375 125.869 18.9519 125.17 19.1754C124.471 19.399 123.731 19.5108 122.948 19.5108Z" fill="white"/>
<path d="M133.09 19.5108C132.181 19.5108 131.343 19.406 130.574 19.1964C129.82 18.9728 129.184 18.6654 128.667 18.2742L129.401 16.5136C129.932 16.8769 130.519 17.1563 131.161 17.352C131.804 17.5476 132.454 17.6454 133.11 17.6454C133.809 17.6454 134.326 17.5266 134.661 17.2891C135.011 17.0515 135.185 16.7302 135.185 16.3249C135.185 16.0036 135.074 15.7521 134.85 15.5704C134.641 15.3748 134.298 15.2281 133.823 15.1303L131.727 14.732C130.833 14.5364 130.148 14.2011 129.673 13.726C129.212 13.2509 128.981 12.6291 128.981 11.8606C128.981 11.2038 129.156 10.624 129.505 10.1209C129.869 9.61791 130.379 9.22666 131.036 8.9472C131.706 8.65377 132.489 8.50705 133.383 8.50705C134.165 8.50705 134.899 8.61185 135.584 8.82144C136.282 9.03104 136.869 9.34543 137.344 9.76462L136.59 11.4623C136.157 11.113 135.661 10.8405 135.102 10.6449C134.543 10.4493 133.998 10.3515 133.467 10.3515C132.74 10.3515 132.209 10.4842 131.874 10.7497C131.539 11.0012 131.371 11.3296 131.371 11.7348C131.371 12.0422 131.469 12.3007 131.664 12.5103C131.874 12.7059 132.195 12.8527 132.628 12.9505L134.724 13.3487C135.661 13.5303 136.366 13.8517 136.841 14.3128C137.33 14.76 137.575 15.3748 137.575 16.1573C137.575 16.8559 137.386 17.4568 137.009 17.9598C136.632 18.4628 136.108 18.8471 135.437 19.1126C134.766 19.3781 133.984 19.5108 133.09 19.5108Z" fill="white"/>
<path d="M36.3906 19.3077V4.53125H41.7563C43.447 4.53125 44.8722 4.82468 46.032 5.41155C47.2057 5.98444 48.093 6.82282 48.6939 7.92669C49.2947 9.01659 49.5951 10.344 49.5951 11.909C49.5951 13.46 49.2947 14.7874 48.6939 15.8913C48.093 16.9952 47.2057 17.8405 46.032 18.4274C44.8722 19.0143 43.447 19.3077 41.7563 19.3077H36.3906ZM39.0944 17.065H41.5886C43.3771 17.065 44.7046 16.6389 45.5709 15.7865C46.4372 14.9342 46.8704 13.6417 46.8704 11.909C46.8704 10.1624 46.4372 8.86987 45.5709 8.03149C44.7046 7.17914 43.3771 6.75296 41.5886 6.75296H39.0944V17.065Z" fill="#0071FF"/>
<path d="M57.2604 19.5173C55.4858 19.5173 54.0955 19.0282 53.0895 18.0501C52.0834 17.072 51.5804 15.7306 51.5804 14.0259C51.5804 12.922 51.797 11.9579 52.2301 11.1335C52.6633 10.3091 53.2641 9.66633 54.0326 9.20522C54.8151 8.74411 55.7234 8.51356 56.7574 8.51356C57.7774 8.51356 58.6298 8.73014 59.3144 9.1633C59.9991 9.59647 60.5161 10.2043 60.8654 10.9868C61.2287 11.7693 61.4104 12.6845 61.4104 13.7325V14.4241H53.6973V13.0408H59.545L59.1887 13.3342C59.1887 12.3561 58.9791 11.6086 58.5599 11.0916C58.1547 10.5746 57.5608 10.3161 56.7783 10.3161C55.912 10.3161 55.2413 10.6235 54.7662 11.2383C54.3051 11.8531 54.0746 12.7124 54.0746 13.8163V14.0888C54.0746 15.2346 54.354 16.0939 54.9129 16.6668C55.4858 17.2257 56.2893 17.5052 57.3233 17.5052C57.9241 17.5052 58.483 17.4283 59 17.2746C59.531 17.107 60.034 16.8415 60.5091 16.4782L61.2846 18.2388C60.7816 18.644 60.1808 18.9584 59.4821 19.1819C58.7835 19.4055 58.0429 19.5173 57.2604 19.5173Z" fill="#0071FF"/>
<path d="M11.3531 22.7124V17.0359C8.2152 17.0359 5.67653 14.4972 5.67653 11.3594H0C0 17.6351 5.07734 22.7124 11.3531 22.7124Z" fill="#0071FF"/>
<path d="M11.3516 22.7124V17.0359C14.4894 17.0359 17.0281 14.4972 17.0281 11.3594H22.7046C22.7046 17.6351 17.6273 22.7124 11.3516 22.7124Z" fill="white"/>
<path d="M16.9219 0V5.67653C20.0597 5.67653 22.5984 8.2152 22.5984 11.3531H28.2749C28.2749 5.07734 23.1976 0 16.9219 0Z" fill="#0071FF"/>
<path d="M16.9234 0V5.67653C13.7855 5.67653 11.2468 8.2152 11.2468 11.3531H5.57031C5.57031 5.07734 10.6477 0 16.9234 0Z" fill="white"/>
</svg>
