<svg width="21" height="22" viewBox="0 0 21 22" fill="none" xmlns="http://www.w3.org/2000/svg">
<path fill-rule="evenodd" clip-rule="evenodd" d="M17.9091 0C19.1521 0 20.1641 1.012 20.1641 2.266V22L17.7991 19.91L16.4681 18.678L15.0601 17.369L15.6431 19.404H3.16906C1.92606 19.404 0.914062 18.392 0.914062 17.138V2.266C0.914062 1.012 1.92606 0 3.16906 0L17.9091 0ZM13.6631 14.366C16.0941 14.289 17.0291 12.694 17.0291 12.694C17.0291 9.152 15.4451 6.281 15.4451 6.281C13.8611 5.093 12.3541 5.126 12.3541 5.126L12.2001 5.302C14.0701 5.874 14.9391 6.699 14.9391 6.699C13.7951 6.072 12.6731 5.764 11.6281 5.643C10.8361 5.555 10.0771 5.577 9.40606 5.665L9.21906 5.687C8.83406 5.72 7.89906 5.863 6.72206 6.38C6.31506 6.567 6.07306 6.699 6.07306 6.699C6.07306 6.699 6.98606 5.83 8.96606 5.258L8.85606 5.126C8.85606 5.126 7.34906 5.093 5.76506 6.281C5.76506 6.281 4.18106 9.152 4.18106 12.694C4.18106 12.694 5.10506 14.289 7.53606 14.366C7.53606 14.366 7.94306 13.871 8.27306 13.453C6.87606 13.035 6.34806 12.155 6.34806 12.155L6.65606 12.342L6.70006 12.375L6.74315 12.3998L6.75598 12.4053L6.79906 12.43C7.07406 12.584 7.34906 12.705 7.60206 12.804C8.05306 12.98 8.59206 13.156 9.21906 13.277C10.0441 13.431 11.0121 13.486 12.0681 13.288C12.5851 13.2 13.1131 13.046 13.6631 12.815C14.0481 12.672 14.4771 12.463 14.9281 12.166C14.9281 12.166 14.3781 13.068 12.9371 13.475C13.2671 13.893 13.6631 14.366 13.6631 14.366ZM8.54806 9.229C7.92106 9.229 7.42606 9.779 7.42606 10.45C7.42606 11.121 7.93206 11.671 8.54806 11.671C9.17506 11.671 9.67006 11.121 9.67006 10.45C9.68106 9.779 9.17506 9.229 8.54806 9.229ZM12.5631 9.229C11.9361 9.229 11.4411 9.779 11.4411 10.45C11.4411 11.121 11.9471 11.671 12.5631 11.671C13.1901 11.671 13.6851 11.121 13.6851 10.45C13.6851 9.779 13.1901 9.229 12.5631 9.229Z" fill="url(#paint0_linear_1243_57620)"/>
<defs>
<linearGradient id="paint0_linear_1243_57620" x1="10.5391" y1="0" x2="10.5391" y2="22" gradientUnits="userSpaceOnUse">
<stop stop-color="#00E0FF"/>
<stop offset="1" stop-color="#0071FF"/>
</linearGradient>
</defs>
</svg>
