<svg width="32" height="32" viewBox="0 0 32 32" fill="none" xmlns="http://www.w3.org/2000/svg">
<path d="M29.3333 11.3333C29.3333 15.68 26.1333 19.2667 21.9733 19.8933V19.8133C21.5599 14.64 17.3599 10.44 12.1466 10.0267H12.1066C12.7333 5.86667 16.3199 2.66667 20.6666 2.66667C25.4533 2.66667 29.3333 6.54667 29.3333 11.3333Z" fill="#362DF9"/>
<path d="M19.9737 19.9733C19.6403 15.7467 16.2537 12.36 12.027 12.0267C11.8003 12.0133 11.5603 12 11.3337 12C6.54699 12 2.66699 15.88 2.66699 20.6667C2.66699 25.4533 6.54699 29.3333 11.3337 29.3333C16.1203 29.3333 20.0003 25.4533 20.0003 20.6667C20.0003 20.44 19.987 20.2 19.9737 19.9733ZM12.507 21.84L11.3337 24L10.1603 21.84L8.00033 20.6667L10.1603 19.4933L11.3337 17.3333L12.507 19.4933L14.667 20.6667L12.507 21.84Z" fill="#362DF9"/>
</svg>
