<svg width="24" height="25" viewBox="0 0 24 25" fill="none" xmlns="http://www.w3.org/2000/svg">
<path d="M15.1425 5.25586H8.8575C6.1275 5.25586 4.5 6.88336 4.5 9.61336V15.8909C4.5 18.6284 6.1275 20.2559 8.8575 20.2559H15.135C17.865 20.2559 19.4925 18.6284 19.4925 15.8984V9.61336C19.5 6.88336 17.8725 5.25586 15.1425 5.25586ZM16.2675 14.2934C16.2375 14.3609 16.2 14.4209 16.1475 14.4734L13.935 16.6859C13.8225 16.7984 13.68 16.8509 13.5375 16.8509C13.395 16.8509 13.2525 16.7984 13.14 16.6859C12.9225 16.4684 12.9225 16.1084 13.14 15.8909L14.3925 14.6384H8.25C7.9425 14.6384 7.6875 14.3834 7.6875 14.0759C7.6875 13.7684 7.9425 13.5134 8.25 13.5134H15.75C15.825 13.5134 15.8925 13.5284 15.9675 13.5584C16.1025 13.6184 16.215 13.7234 16.275 13.8659C16.3275 14.0009 16.3275 14.1509 16.2675 14.2934ZM15.75 11.9984H8.25C8.175 11.9984 8.1075 11.9834 8.0325 11.9534C7.8975 11.8934 7.785 11.7884 7.725 11.6459C7.665 11.5109 7.665 11.3534 7.725 11.2184C7.7625 11.1509 7.8 11.0909 7.8525 11.0384L10.065 8.82586C10.2825 8.60836 10.6425 8.60836 10.86 8.82586C11.0775 9.04336 11.0775 9.40336 10.86 9.62086L9.6075 10.8734H15.75C16.0575 10.8734 16.3125 11.1284 16.3125 11.4359C16.3125 11.7434 16.0575 11.9984 15.75 11.9984Z" fill="#0071FF"/>
<rect x="0.5" y="1.25586" width="23" height="23" rx="3.5" stroke="#0071FF"/>
</svg>
