<svg width="24" height="25" viewBox="0 0 24 25" fill="none" xmlns="http://www.w3.org/2000/svg">
<path fill-rule="evenodd" clip-rule="evenodd" d="M8.09253 4.81551C7.5469 4.97098 7.09554 5.46728 6.98132 6.03727C6.9541 6.17318 6.94342 7.91087 6.94342 12.2024V18.1782L6.72748 18.2853C6.45746 18.4192 6.2553 18.6358 6.12373 18.9321C6.02689 19.1502 6.0211 19.1892 6.00658 19.7236C5.99246 20.2429 5.99674 20.2977 6.06305 20.4428C6.11029 20.5462 6.17953 20.6265 6.26571 20.6779L6.39664 20.7559H11.2393H16.082L16.2075 20.6811C16.4126 20.5589 16.4567 20.4407 16.4725 19.97C16.5038 19.0393 16.2969 18.5559 15.7511 18.2853L15.5352 18.1782V17.3294V16.4806L16.1333 16.4598C16.8316 16.4355 17.0931 16.3819 17.479 16.184C18.3035 15.7612 18.8643 14.9266 18.9747 13.9583C18.9948 13.7825 19.0041 12.4492 18.9983 10.5793L18.9888 7.4906L18.5676 6.60406C18.336 6.11647 18.0907 5.64935 18.0226 5.56605C17.7133 5.18794 17.1474 5.27992 16.9466 5.74094C16.8166 6.0396 16.8358 6.10083 17.4814 7.441C17.4872 7.453 17.4117 7.49906 17.3138 7.54334C16.8709 7.74348 16.4662 8.1535 16.2495 8.62159C16.0363 9.08221 16.0069 9.30696 16.0069 10.4747C16.0069 11.429 16.0105 11.4869 16.0775 11.6131C16.2085 11.8602 16.2778 11.8811 17.0093 11.8942L17.6579 11.9059V12.8974C17.6579 13.7695 17.6503 13.9133 17.595 14.0911C17.4352 14.6043 17.0222 14.9652 16.5036 15.0447C16.3879 15.0625 16.1227 15.0773 15.9143 15.0777L15.5352 15.0784V10.5275C15.5352 7.29685 15.5242 5.92165 15.4974 5.78732C15.4 5.30053 15.0743 4.93874 14.6175 4.80987C14.3501 4.73442 8.35884 4.7396 8.09253 4.81551ZM13.6527 6.63598C13.8433 6.74042 13.8505 6.80055 13.8505 8.27616C13.8505 9.75176 13.8433 9.81189 13.6527 9.91634C13.563 9.96551 13.2715 9.97226 11.2393 9.97226C8.70315 9.97226 8.78654 9.97918 8.6792 9.75919C8.60362 9.60429 8.60291 6.94945 8.67842 6.7947C8.7889 6.56831 8.64995 6.58006 11.2148 6.58006C13.2692 6.58006 13.5629 6.58681 13.6527 6.63598Z" fill="#0071FF"/>
<rect x="0.5" y="1.25586" width="23" height="23" rx="3.5" stroke="#0071FF"/>
</svg>
