<svg width="24" height="25" viewBox="0 0 24 25" fill="none" xmlns="http://www.w3.org/2000/svg">
<path d="M11.6001 6.47461C7.77606 6.47461 4.66406 9.58661 4.66406 13.4106C4.66406 17.2346 7.77606 20.3546 11.6001 20.3546C15.4241 20.3546 18.5361 17.2426 18.5361 13.4186C18.5361 9.59461 15.4241 6.47461 11.6001 6.47461ZM12.2001 13.1546C12.2001 13.4826 11.9281 13.7546 11.6001 13.7546C11.2721 13.7546 11.0001 13.4826 11.0001 13.1546V9.15461C11.0001 8.82661 11.2721 8.55461 11.6001 8.55461C11.9281 8.55461 12.2001 8.82661 12.2001 9.15461V13.1546Z" fill="#0071FF"/>
<path d="M13.9109 5.51352H9.28694C8.96694 5.51352 8.71094 5.25752 8.71094 4.93752C8.71094 4.61752 8.96694 4.35352 9.28694 4.35352H13.9109C14.2309 4.35352 14.4869 4.60952 14.4869 4.92952C14.4869 5.24952 14.2309 5.51352 13.9109 5.51352Z" fill="#0071FF"/>
<rect x="0.5" y="1.25586" width="23" height="23" rx="3.5" stroke="#0071FF"/>
</svg>
