<svg width="20" height="20" viewBox="0 0 20 20" fill="none" xmlns="http://www.w3.org/2000/svg">
<path d="M14.4003 9.3332C14.242 9.3332 14.0836 9.27484 13.9586 9.14984C13.7169 8.90817 13.7169 8.50817 13.9586 8.26651L16.6169 5.60817L13.9586 2.94984C13.7169 2.70817 13.7169 2.30817 13.9586 2.0665C14.2003 1.82484 14.6003 1.82484 14.8419 2.0665L17.942 5.16653C18.0586 5.2832 18.1253 5.4415 18.1253 5.60817C18.1253 5.77484 18.0586 5.9332 17.942 6.04986L14.8419 9.14984C14.7169 9.2665 14.5586 9.3332 14.4003 9.3332Z" fill="#292D32"/>
<path d="M17.5 6.2334H2.5C2.15833 6.2334 1.875 5.95007 1.875 5.6084C1.875 5.26673 2.15833 4.9834 2.5 4.9834H17.5C17.8417 4.9834 18.125 5.26673 18.125 5.6084C18.125 5.95007 17.8417 6.2334 17.5 6.2334Z" fill="#292D32"/>
<path d="M5.59998 18.1251C5.44164 18.1251 5.28334 18.0668 5.15834 17.9418L2.05831 14.8418C1.94164 14.7251 1.875 14.5668 1.875 14.4002C1.875 14.2335 1.94164 14.0751 2.05831 13.9585L5.15834 10.8585C5.4 10.6168 5.8 10.6168 6.04167 10.8585C6.28333 11.1002 6.28333 11.5002 6.04167 11.7418L3.38333 14.4002L6.04167 17.0584C6.28333 17.3001 6.28333 17.7002 6.04167 17.9418C5.925 18.0668 5.76664 18.1251 5.59998 18.1251Z" fill="#292D32"/>
<path d="M17.5 15.0166H2.5C2.15833 15.0166 1.875 14.7333 1.875 14.3916C1.875 14.0499 2.15833 13.7666 2.5 13.7666H17.5C17.8417 13.7666 18.125 14.0499 18.125 14.3916C18.125 14.7333 17.8417 15.0166 17.5 15.0166Z" fill="#292D32"/>
</svg>
