<svg width="20" height="20" viewBox="0 0 20 20" fill="none" xmlns="http://www.w3.org/2000/svg">
<path d="M6.66634 3.3335H5.99967C3.99967 3.3335 3.33301 4.52683 3.33301 6.00016V6.66683V16.0002C3.33301 16.5535 3.95967 16.8668 4.39967 16.5335L5.53967 15.6802C5.80634 15.4802 6.17967 15.5068 6.41967 15.7468L7.52634 16.8602C7.78634 17.1202 8.21301 17.1202 8.47301 16.8602L9.59301 15.7402C9.82634 15.5068 10.1997 15.4802 10.4597 15.6802L11.5997 16.5335C12.0397 16.8602 12.6663 16.5468 12.6663 16.0002V4.66683C12.6663 3.9335 13.2663 3.3335 13.9997 3.3335H6.66634ZM6.37967 7.3535C6.74634 7.3535 7.04634 7.6535 7.04634 8.02016C7.04634 8.38683 6.74634 8.68683 6.37967 8.68683C6.01301 8.68683 5.71301 8.38683 5.71301 8.02016C5.71301 7.6535 6.01301 7.3535 6.37967 7.3535ZM9.61967 11.3868C9.24634 11.3868 8.95301 11.0868 8.95301 10.7202C8.95301 10.3535 9.25301 10.0535 9.61967 10.0535C9.98634 10.0535 10.2863 10.3535 10.2863 10.7202C10.2863 11.0868 9.98634 11.3868 9.61967 11.3868ZM10.173 7.86683L6.53301 11.5068C6.43301 11.6068 6.30634 11.6535 6.17967 11.6535C6.05301 11.6535 5.92634 11.6068 5.82634 11.5068C5.63301 11.3135 5.63301 10.9935 5.82634 10.8002L9.46634 7.16016C9.65967 6.96683 9.97967 6.96683 10.173 7.16016C10.3663 7.3535 10.3663 7.6735 10.173 7.86683Z" fill="#142438"/>
<path d="M14.007 3.3335V4.3335C14.447 4.3335 14.867 4.5135 15.1737 4.8135C15.4937 5.14016 15.667 5.56016 15.667 6.00016V7.6135C15.667 8.10683 15.447 8.3335 14.947 8.3335H13.667V4.6735C13.667 4.48683 13.8203 4.3335 14.007 4.3335V3.3335ZM14.007 3.3335C13.267 3.3335 12.667 3.9335 12.667 4.6735V9.3335H14.947C16.0003 9.3335 16.667 8.66683 16.667 7.6135V6.00016C16.667 5.26683 16.367 4.60016 15.887 4.1135C15.4003 3.6335 14.7403 3.34016 14.007 3.3335C14.0137 3.3335 14.007 3.3335 14.007 3.3335Z" fill="#142438"/>
<rect x="0.417216" y="0.417216" width="19.1656" height="19.1656" rx="3.21915" stroke="#C6CCD8" stroke-width="0.834431"/>
</svg>
