<svg width="14" height="8" viewBox="0 0 14 8" fill="none" xmlns="http://www.w3.org/2000/svg">
<path fill-rule="evenodd" clip-rule="evenodd" d="M9.98921 7.19684C9.69631 6.90395 9.69631 6.42907 9.9892 6.13618L11.9389 4.18649L9.9892 2.23683C9.69631 1.94394 9.69631 1.46907 9.9892 1.17617C10.2821 0.883279 10.757 0.883279 11.0499 1.17617L13.5298 3.65615C13.8227 3.94904 13.8227 4.42391 13.5298 4.71681L11.0499 7.19683C10.757 7.48973 10.2821 7.48973 9.98921 7.19684Z" fill="#142438"/>
<path fill-rule="evenodd" clip-rule="evenodd" d="M0.25 4.18648C0.25 3.77227 0.585786 3.43648 1 3.43648L13 3.43648C13.4142 3.43648 13.75 3.77227 13.75 4.18648C13.75 4.6007 13.4142 4.93648 13 4.93648L1 4.93648C0.585786 4.93648 0.25 4.6007 0.25 4.18648Z" fill="#142438"/>
</svg>
