<svg width="9" height="10" viewBox="0 0 9 10" fill="none" xmlns="http://www.w3.org/2000/svg">
<path fill-rule="evenodd" clip-rule="evenodd" d="M1.44867 0.0372841C1.07093 0.134453 0.758454 0.444637 0.679378 0.800885C0.660531 0.885823 0.653136 1.97188 0.653136 4.65406V8.38895L0.503639 8.45588C0.316704 8.53959 0.176747 8.67495 0.0856587 8.86013C0.0186194 8.99645 0.0146074 9.02084 0.00455385 9.35484C-0.00521979 9.67942 -0.00225732 9.71365 0.0436485 9.80435C0.0763517 9.86898 0.124287 9.91917 0.183955 9.95126L0.2746 10H3.62722H6.97983L7.06674 9.95327C7.20875 9.8769 7.23924 9.80305 7.2502 9.50885C7.27187 8.92713 7.1286 8.62505 6.75079 8.45588L6.60129 8.38895V7.85846V7.32796L7.01533 7.31497C7.49881 7.29979 7.67987 7.26629 7.94698 7.14261C8.51779 6.87833 8.90608 6.35674 8.98252 5.75152C8.9964 5.64168 9.00283 4.80834 8.99882 3.63964L8.99222 1.70921L8.70064 1.15512C8.54028 0.850384 8.37049 0.558432 8.32332 0.506366C8.10923 0.270051 7.71743 0.32754 7.57843 0.615675C7.48839 0.802335 7.50171 0.840609 7.94866 1.67821C7.95267 1.68571 7.90044 1.7145 7.83261 1.74217C7.52601 1.86726 7.24584 2.12353 7.09583 2.41608C6.94822 2.70397 6.92786 2.84444 6.92786 3.57429C6.92786 4.17072 6.93033 4.20687 6.97671 4.28581C7.06742 4.4402 7.11543 4.45327 7.62181 4.46149L8.07084 4.46878V5.08848C8.07084 5.63353 8.06559 5.72343 8.02729 5.8345C7.91668 6.15528 7.63072 6.38086 7.27173 6.43054C7.19166 6.44163 7.00806 6.4509 6.86371 6.45114L6.60129 6.45159V3.60726C6.60129 1.58812 6.59369 0.728622 6.5751 0.644665C6.50769 0.340417 6.28224 0.1143 5.96599 0.033758C5.78087 -0.013398 1.63304 -0.010162 1.44867 0.0372841ZM5.29802 1.17507C5.42997 1.24035 5.43499 1.27793 5.43499 2.20019C5.43499 3.12244 5.42997 3.16002 5.29802 3.2253C5.2359 3.25603 5.03411 3.26025 3.62722 3.26025C1.87141 3.26025 1.92914 3.26458 1.85483 3.12708C1.80251 3.03027 1.80202 1.371 1.85429 1.27427C1.93078 1.13278 1.83458 1.14013 3.61023 1.14013C5.03254 1.14013 5.23588 1.14434 5.29802 1.17507Z" fill="#9EA9B7"/>
</svg>
