<svg width="53" height="54" viewBox="0 0 53 54" fill="none" xmlns="http://www.w3.org/2000/svg">
<path fill-rule="evenodd" clip-rule="evenodd" d="M49.8016 30.1989C50.4895 24.9396 49.378 19.6023 46.6479 15.0548C43.9177 10.5073 39.7295 7.01721 34.7642 5.15191C29.7989 3.28671 24.3487 3.15601 19.2997 4.78111C14.2507 6.40631 9.89995 9.69171 6.95505 14.1031C4.01005 18.5145 2.64415 23.7924 3.07925 29.0786C3.51435 34.3648 5.72495 39.3484 9.35155 43.2189C12.9782 47.0894 17.8076 49.6192 23.0543 50.3969C28.3011 51.1746 33.6566 50.1545 38.2501 47.5025C38.9675 47.0883 39.8849 47.3341 40.2991 48.0515C40.7133 48.7689 40.4675 49.6863 39.7501 50.1005C34.5702 53.0911 28.531 54.2415 22.6144 53.3645C16.6979 52.4874 11.252 49.6347 7.16235 45.2701C3.07275 40.9055 0.579953 35.2857 0.0893534 29.3247C-0.401327 23.3637 1.13905 17.412 4.45995 12.4374C7.78085 7.46291 12.687 3.75811 18.3805 1.92541C24.074 0.0928073 30.2201 0.240208 35.8192 2.34351C41.4183 4.44691 46.1413 8.38261 49.2199 13.5106C52.2986 18.6386 53.552 24.6573 52.7762 30.588C52.6688 31.4094 51.9158 31.9882 51.0943 31.8807C50.2729 31.7733 49.6941 31.0203 49.8016 30.1989Z" fill="#E2E6EE"/>
<path fill-rule="evenodd" clip-rule="evenodd" d="M40.7904 8.49271C36.5797 5.26731 31.4017 3.56121 26.0984 3.65191C20.7951 3.74251 15.6785 5.62461 11.5805 8.99201C7.4825 12.3594 4.6442 17.0142 3.5271 22.1993C2.41 27.3844 3.0799 32.7949 5.4278 37.551C7.7758 42.3071 11.6636 46.129 16.4591 48.3953C21.2546 50.6616 26.6758 51.2389 31.8411 50.0334C37.0063 48.8279 41.6119 45.9105 44.9088 41.7556C48.2057 37.6006 50 32.4525 50 27.1484C50 26.32 50.6716 25.6484 51.5 25.6484C52.3285 25.6484 53 26.32 53 27.1484C53 33.1296 50.9766 38.9349 47.2588 43.6203C43.5411 48.3057 38.3476 51.5955 32.5229 52.9549C26.6983 54.3143 20.585 53.6633 15.1773 51.1077C9.7696 48.5521 5.3854 44.2422 2.7378 38.879C0.0901024 33.5157 -0.665277 27.4145 0.594403 21.5675C1.854 15.7204 5.0547 10.4715 9.6758 6.67421C14.297 2.87681 20.0668 0.754509 26.0472 0.652309C32.0275 0.550109 37.8665 2.47401 42.6147 6.11121C43.2724 6.61491 43.3971 7.55641 42.8933 8.21411C42.3896 8.87181 41.4481 8.99651 40.7904 8.49271Z" fill="#0071FF"/>
</svg>
