<svg width="28" height="28" viewBox="0 0 28 28" fill="none" xmlns="http://www.w3.org/2000/svg">
<path d="M28 14C28 21.732 21.732 28 14 28C6.26801 28 0 21.732 0 14C0 6.26801 6.26801 0 14 0C21.732 0 28 6.26801 28 14ZM2.8 14C2.8 20.1856 7.81441 25.2 14 25.2C20.1856 25.2 25.2 20.1856 25.2 14C25.2 7.81441 20.1856 2.8 14 2.8C7.81441 2.8 2.8 7.81441 2.8 14Z" fill="#3B27F9" fill-opacity="0.25"/>
<path d="M14 1.4C14 0.626801 13.3716 -0.00725399 12.6023 0.0699366C10.3272 0.298206 8.13498 1.08122 6.22202 2.35943C3.91973 3.89777 2.12531 6.08427 1.06569 8.64243C0.0060597 11.2006 -0.271187 14.0155 0.269006 16.7313C0.809199 19.447 2.14257 21.9416 4.10051 23.8995C6.05844 25.8574 8.553 27.1908 11.2687 27.731C13.9845 28.2712 16.7994 27.9939 19.3576 26.9343C21.9157 25.8747 24.1022 24.0803 25.6406 21.778C26.9188 19.865 27.7018 17.6728 27.9301 15.3977C28.0073 14.6284 27.3732 14 26.6 14V14C25.8268 14 25.209 14.6292 25.1126 15.3964C24.8964 17.1167 24.2828 18.7701 23.3125 20.2224C22.0818 22.0642 20.3326 23.4997 18.2861 24.3475C16.2395 25.1952 13.9876 25.4169 11.815 24.9848C9.6424 24.5526 7.64675 23.4859 6.0804 21.9196C4.51406 20.3532 3.44736 18.3576 3.01521 16.185C2.58305 14.0124 2.80485 11.7605 3.65255 9.71395C4.50025 7.66741 5.93578 5.91821 7.77761 4.68754C9.22986 3.71718 10.8833 3.10356 12.6036 2.88738C13.3708 2.79098 14 2.1732 14 1.4V1.4Z" fill="#3B27F9"/>
</svg>
