<svg width="22" height="22" viewBox="0 0 22 22" fill="none" xmlns="http://www.w3.org/2000/svg">
<path fill-rule="evenodd" clip-rule="evenodd" d="M16.7558 3.48603C15.0598 2.18692 12.9743 1.49976 10.8383 1.53627C8.70224 1.57278 6.64139 2.33081 4.99084 3.68711C3.34028 5.04341 2.1971 6.9182 1.74718 9.00661C1.29727 11.095 1.56708 13.2742 2.51275 15.1898C3.45842 17.1055 5.02432 18.6448 6.95582 19.5576C8.88732 20.4704 11.0708 20.7029 13.1512 20.2174C15.2316 19.7319 17.0866 18.5568 18.4145 16.8833C19.7424 15.2098 20.4651 13.1363 20.4651 11C20.4651 10.5761 20.8087 10.2326 21.2326 10.2326C21.6564 10.2326 22 10.5761 22 11C22 13.4828 21.1601 15.8925 19.6169 17.8374C18.0736 19.7822 15.9179 21.1478 13.5001 21.7121C11.0823 22.2764 8.54472 22.0062 6.3 20.9453C4.05529 19.8845 2.23546 18.0955 1.13644 15.8693C0.0374153 13.643 -0.276152 11.1104 0.246724 8.68336C0.769601 6.25629 2.09817 4.07748 4.01638 2.50124C5.93459 0.925 8.32963 0.0440368 10.812 0.00160749C13.2944 -0.0408218 15.7182 0.757778 17.6891 2.26754C18.0256 2.52529 18.0894 3.00699 17.8317 3.34347C17.5739 3.67994 17.0922 3.74377 16.7558 3.48603Z" fill="#0071FF"/>
</svg>
