<svg width="28" height="28" viewBox="0 0 28 28" fill="none" xmlns="http://www.w3.org/2000/svg">
<path fill-rule="evenodd" clip-rule="evenodd" d="M22.1325 17.3679C22.8908 15.5327 23.0061 13.4949 22.4594 11.5858C21.9128 9.67681 20.7364 8.00886 19.1216 6.85322C17.5067 5.69757 15.5484 5.1222 13.5651 5.22067C11.5818 5.31914 9.69018 6.08565 8.19776 7.39557C6.70534 8.70548 5.69995 10.4817 5.34508 12.4355C4.99021 14.3893 5.30673 16.4057 6.24317 18.1568C7.1796 19.9078 8.68088 21.2906 10.5029 22.0803C12.3249 22.8699 14.3604 23.0199 16.2785 22.506C16.812 22.363 17.3603 22.6796 17.5032 23.2131C17.6462 23.7466 17.3296 24.2949 16.7961 24.4378C14.442 25.0686 11.9437 24.8845 9.70757 23.9153C7.47139 22.9462 5.62883 21.2491 4.47952 19.0999C3.33021 16.9508 2.94173 14.476 3.37728 12.0781C3.81282 9.68018 5.04676 7.50013 6.87845 5.89243C8.71013 4.28474 11.0318 3.34398 13.466 3.22313C15.9001 3.10228 18.3036 3.80845 20.2855 5.2268C22.2674 6.64515 23.7112 8.69227 24.3822 11.0353C25.0531 13.3782 24.9116 15.8793 23.9809 18.1317C23.7699 18.6421 23.1852 18.8849 22.6747 18.674C22.1643 18.4631 21.9215 17.8783 22.1325 17.3679Z" fill="#DADDE3"/>
<path fill-rule="evenodd" clip-rule="evenodd" d="M7.70867 7.85507C6.3203 9.27478 5.45304 11.1224 5.24791 13.0976C5.04279 15.0727 5.51188 17.0591 6.5789 18.7338C7.64591 20.4085 9.24809 21.673 11.1249 22.3217C13.0017 22.9703 15.0428 22.965 16.9162 22.3065C18.7896 21.6481 20.3851 20.3752 21.4433 18.6949C22.5016 17.0147 22.9603 15.0258 22.7448 13.0518C22.5294 11.0778 21.6525 9.23469 20.2567 7.82225C18.8609 6.40982 17.0284 5.5111 15.057 5.27226C14.5087 5.20583 14.1181 4.70751 14.1846 4.15924C14.251 3.61097 14.7493 3.22035 15.2976 3.28678C17.717 3.57992 19.9662 4.68293 21.6793 6.41645C23.3923 8.14997 24.4686 10.412 24.733 12.8348C24.9975 15.2576 24.4345 17.6985 23.1357 19.7608C21.8369 21.823 19.8786 23.3852 17.5794 24.1934C15.2801 25.0015 12.7751 25.0081 10.4716 24.212C8.16813 23.4159 6.20173 21.8639 4.89216 19.8085C3.58259 17.7531 3.00686 15.3151 3.25861 12.891C3.51036 10.4668 4.57478 8.19918 6.27877 6.45672C6.66491 6.06186 7.29803 6.0548 7.69289 6.44094C8.08775 6.82708 8.09482 7.46021 7.70867 7.85507Z" fill="#142438"/>
</svg>
