<svg width="22" height="22" viewBox="0 0 22 22" fill="none" xmlns="http://www.w3.org/2000/svg">
<path d="M18.3334 9.16671V12.8334C18.3334 14.7783 17.5608 16.6436 16.1855 18.0188C14.8103 19.3941 12.945 20.1667 11.0001 20.1667C9.05516 20.1667 7.1899 19.3941 5.81463 18.0188C4.43936 16.6436 3.66675 14.7783 3.66675 12.8334V8.25004C3.66675 6.54824 4.34279 4.91613 5.54615 3.71277C6.7495 2.50941 8.38161 1.83337 10.0834 1.83337H11.0001C12.945 1.83337 14.8103 2.60599 16.1855 3.98126C17.5608 5.35652 18.3334 7.22179 18.3334 9.16671Z" stroke="#142438" stroke-linecap="round"/>
<path d="M11.0001 1.83337V7.70004C11.0001 7.84591 10.9421 7.9858 10.839 8.08895C10.7358 8.19209 10.5959 8.25004 10.4501 8.25004H3.66675" stroke="#142438" stroke-linecap="round"/>
</svg>
