<svg width="24" height="24" viewBox="0 0 24 24" fill="none" xmlns="http://www.w3.org/2000/svg">
<path d="M6.67 14.0016H4C2.9 14.0016 2 14.9016 2 16.0016V21.0016C2 21.5516 2.45 22.0016 3 22.0016H6.67C7.22 22.0016 7.67 21.5516 7.67 21.0016V15.0016C7.67 14.4516 7.22 14.0016 6.67 14.0016Z" fill="#959CA5"/>
<path d="M13.3302 9.99841H10.6602C9.56016 9.99841 8.66016 10.8984 8.66016 11.9984V20.9984C8.66016 21.5484 9.11016 21.9984 9.66016 21.9984H14.3302C14.8802 21.9984 15.3302 21.5484 15.3302 20.9984V11.9984C15.3302 10.8984 14.4402 9.99841 13.3302 9.99841Z" fill="#959CA5"/>
<path d="M20.0001 17.0016H17.3301C16.7801 17.0016 16.3301 17.4516 16.3301 18.0016V21.0016C16.3301 21.5516 16.7801 22.0016 17.3301 22.0016H21.0001C21.5501 22.0016 22.0001 21.5516 22.0001 21.0016V19.0016C22.0001 17.9016 21.1001 17.0016 20.0001 17.0016Z" fill="#959CA5"/>
<path d="M15.0104 4.84888C15.3204 4.53888 15.4404 4.16888 15.3404 3.84888C15.2404 3.52888 14.9304 3.29888 14.4904 3.22888L13.5304 3.06888C13.4904 3.06888 13.4004 2.99888 13.3804 2.95888L12.8504 1.89888C12.4504 1.08888 11.5404 1.08888 11.1404 1.89888L10.6104 2.95888C10.6004 2.99888 10.5104 3.06888 10.4704 3.06888L9.51043 3.22888C9.07043 3.29888 8.77043 3.52888 8.66043 3.84888C8.56043 4.16888 8.68043 4.53888 8.99043 4.84888L9.73043 5.59888C9.77043 5.62888 9.80043 5.74888 9.79043 5.78888L9.58043 6.70888C9.42043 7.39888 9.68043 7.70888 9.85043 7.82888C10.0204 7.94888 10.3904 8.10888 11.0004 7.74888L11.9004 7.21888C11.9404 7.18888 12.0704 7.18888 12.1104 7.21888L13.0004 7.74888C13.2804 7.91888 13.5104 7.96888 13.6904 7.96888C13.9004 7.96888 14.0504 7.88888 14.1404 7.82888C14.3104 7.70888 14.5704 7.39888 14.4104 6.70888L14.2004 5.78888C14.1904 5.73888 14.2204 5.62888 14.2604 5.59888L15.0104 4.84888Z" fill="#959CA5"/>
</svg>
