<svg width="15" height="16" viewBox="0 0 15 16" fill="none" xmlns="http://www.w3.org/2000/svg">
<path d="M7.5 0.5C3.3675 0.5 0 3.8675 0 8C0 12.1325 3.3675 15.5 7.5 15.5C11.6325 15.5 15 12.1325 15 8C15 3.8675 11.6325 0.5 7.5 0.5ZM10.02 9.725C10.2375 9.9425 10.2375 10.3025 10.02 10.52C9.9075 10.6325 9.765 10.685 9.6225 10.685C9.48 10.685 9.3375 10.6325 9.225 10.52L7.5 8.795L5.775 10.52C5.6625 10.6325 5.52 10.685 5.3775 10.685C5.235 10.685 5.0925 10.6325 4.98 10.52C4.7625 10.3025 4.7625 9.9425 4.98 9.725L6.705 8L4.98 6.275C4.7625 6.0575 4.7625 5.6975 4.98 5.48C5.1975 5.2625 5.5575 5.2625 5.775 5.48L7.5 7.205L9.225 5.48C9.4425 5.2625 9.8025 5.2625 10.02 5.48C10.2375 5.6975 10.2375 6.0575 10.02 6.275L8.295 8L10.02 9.725Z" fill="#FC3939"/>
</svg>
