<svg width="89" height="24" viewBox="0 0 89 24" fill="none" xmlns="http://www.w3.org/2000/svg">
<g clip-path="url(#clip0_1171_37067)">
<path d="M35.3613 5.84766H41.4186C42.8533 5.84766 43.8894 6.17147 44.6067 6.73813C44.959 7.06386 45.2349 7.46564 45.4142 7.91393C45.5935 8.36222 45.6716 8.84562 45.6428 9.32861C45.6428 9.97623 45.6428 10.4619 45.4037 10.9477L44.7661 11.8381C44.5649 12.0719 44.3214 12.2642 44.0488 12.4048L43.5706 12.6477L44.1285 12.8096C44.3676 12.9715 44.6067 13.0524 44.7661 13.2953C45.0052 13.5381 45.1646 13.781 45.2443 14.1048C45.4037 14.4286 45.4834 14.9143 45.4834 15.4C45.4834 16.2096 45.4834 16.8572 45.6428 17.5048C45.7225 18.0715 45.8819 18.5572 46.121 18.8H43.73L43.4112 17.9096V16.8572L43.3315 15.4C43.2518 14.9143 43.0924 14.5905 42.933 14.2667C42.7319 13.9981 42.4533 13.8 42.136 13.7C41.8171 13.5381 41.3389 13.4572 40.8607 13.4572H37.593V18.8H35.3613V5.84766ZM37.593 11.7572H41.2592C41.9766 11.7572 42.5345 11.5953 42.8533 11.2715C43.2518 10.8667 43.4112 10.381 43.4112 9.65242C43.4112 9.24766 43.4112 8.92385 43.2518 8.68099L42.7736 8.03337C42.5345 7.95242 42.2954 7.79051 41.9766 7.79051L41.1795 7.70956H37.593V11.7572ZM53.7724 13.2953C53.7683 12.9651 53.7146 12.6375 53.613 12.3238L53.1348 11.5143L52.4174 11.0286C52.1783 10.8667 51.8595 10.7858 51.461 10.7858C51.143 10.8007 50.8312 10.88 50.5438 11.0191C50.2564 11.1581 49.9992 11.354 49.7873 11.5953C49.5482 11.7572 49.3888 12 49.2294 12.3238L49.07 13.2953H53.8521H53.7724ZM48.9903 14.6715C48.9903 14.9953 49.07 15.4 49.2294 15.7238L49.6279 16.5334C49.867 16.8572 50.1061 17.0191 50.4249 17.181C50.7437 17.3429 51.1422 17.4238 51.5407 17.4238C52.0492 17.4475 52.5518 17.3057 52.9754 17.0191C53.3739 16.7762 53.613 16.3715 53.7724 15.8858H55.6852C55.5369 16.5758 55.2063 17.2117 54.7288 17.7252C54.2514 18.2387 53.6452 18.6103 52.9754 18.8L51.5407 19.0429C50.7437 19.0429 50.1858 18.9619 49.6279 18.7191C49.0647 18.4952 48.5578 18.1464 48.1442 17.6983C47.7305 17.2501 47.4206 16.7139 47.2368 16.1286C46.8711 14.8556 46.8989 13.4993 47.3165 12.2429C47.5557 11.5953 47.8745 11.1096 48.1933 10.6238C48.5918 10.2191 49.07 9.81432 49.6279 9.57147C50.1858 9.32861 50.8234 9.1667 51.461 9.1667C52.258 9.1667 52.8957 9.32861 53.4536 9.65242C54.0115 9.97623 54.4897 10.381 54.8882 10.8667C55.27 11.3993 55.5412 12.0052 55.6852 12.6477C55.8446 13.2953 55.9243 13.9429 55.8446 14.6715H49.07H48.9903ZM56.3228 9.40956H58.4748L60.8658 16.6953L63.1771 9.40956H65.2494L61.9019 18.8H59.5109L56.3228 9.40956ZM74.0166 16.6953L74.0963 17.2619L74.4948 17.4238H74.973V18.8L74.7339 18.881C74.5023 18.9651 74.2614 19.0195 74.0166 19.0429C73.9103 19.0483 73.804 19.0483 73.6978 19.0429C73.2992 19.0429 72.9007 19.0429 72.6616 18.8C72.4225 18.6381 72.2631 18.3143 72.1834 17.9096C71.7052 18.3143 71.227 18.6381 70.5894 18.7191C69.9491 19.0149 69.2431 19.1332 68.5432 19.0621C67.8432 18.991 67.1743 18.733 66.6043 18.3143C66.4449 18.1524 66.2058 17.9096 66.0464 17.5048C65.887 17.181 65.8073 16.7762 65.8073 16.2905C65.8073 15.7238 65.887 15.2381 66.1261 14.9143C66.3245 14.5838 66.5977 14.3063 66.9231 14.1048C67.2419 13.8619 67.6404 13.7 68.0389 13.6191L69.3142 13.3762L70.43 13.2143C70.7488 13.2143 70.9879 13.2143 71.227 13.0524C71.5458 13.0524 71.7052 12.8905 71.8646 12.7286C72.024 12.5667 72.1037 12.4048 72.1037 12.081C72.1037 11.8381 72.1037 11.5953 71.9443 11.4334L71.4661 11.0286C71.2669 10.9302 71.0498 10.8751 70.8285 10.8667H70.1909C69.633 10.8667 69.1548 10.8667 68.7563 11.1905C68.4374 11.4334 68.1983 11.7572 68.1983 12.3238H66.1261C66.1261 11.6762 66.2855 11.1905 66.5246 10.7858L67.481 9.81432C67.9 9.57037 68.3591 9.4058 68.836 9.32861C69.7583 9.15859 70.7032 9.15859 71.6255 9.32861C72.1037 9.40956 72.4225 9.57147 72.821 9.81432C73.2195 9.97623 73.4586 10.3 73.6978 10.6238C73.9369 10.9477 74.0166 11.4334 74.0166 11.9191V16.7762V16.6953ZM72.024 14.1048C71.7052 14.3477 71.227 14.4286 70.8285 14.5096C70.1572 14.5664 69.4912 14.6747 68.836 14.8334C68.6642 14.8864 68.5025 14.9685 68.3577 15.0762L67.9592 15.5619C67.8624 15.7642 67.8081 15.9848 67.7998 16.2096C67.7998 16.4524 67.8795 16.6143 68.0389 16.7762C68.1186 16.9381 68.278 17.1 68.5172 17.181L69.0751 17.3429L69.7127 17.4238L70.43 17.3429C70.9585 17.2359 71.436 16.9506 71.7849 16.5334C71.9443 16.2096 72.024 15.9667 72.024 15.6429V14.1048ZM76.0888 5.84766H78.0813V7.79051H76.0888V5.84766ZM76.0888 9.40956H78.0813V18.8H76.0888V9.40956ZM80.1536 9.40956H82.0664V10.7858C82.3744 10.2764 82.8092 9.85853 83.327 9.57429C83.8447 9.29004 84.4271 9.14945 85.0154 9.1667C85.9718 9.1667 86.7688 9.40956 87.4064 9.97623C87.9643 10.4619 88.2034 11.2715 88.2034 12.4048V18.8H86.2109V12.8905C86.2109 12.1619 86.0515 11.6762 85.7327 11.2715C85.4936 10.9477 85.0154 10.7858 84.4575 10.7858C83.9952 10.7821 83.5441 10.9297 83.1709 11.2067C82.7976 11.4837 82.5222 11.8754 82.3852 12.3238C82.2258 12.6477 82.2258 12.9715 82.2258 13.2953V18.8H80.1536V9.40956Z" fill="#5E2CF2"/>
<path fill-rule="evenodd" clip-rule="evenodd" d="M8.342 14.2666C9.07465 14.2666 9.80014 14.1201 10.477 13.8353C11.1539 13.5505 11.769 13.1331 12.287 12.6069C12.8051 12.0807 13.216 11.456 13.4964 10.7685C13.7768 10.081 13.9211 9.34412 13.9211 8.59996C13.9211 7.8558 13.7768 7.11893 13.4964 6.43142C13.216 5.74391 12.8051 5.11922 12.287 4.59302C11.769 4.06682 11.1539 3.64942 10.477 3.36464C9.80014 3.07987 9.07465 2.93329 8.342 2.93329C6.86232 2.93329 5.44326 3.53031 4.39697 4.59302C3.35069 5.65573 2.76289 7.09707 2.76289 8.59996C2.76289 10.1029 3.35069 11.5442 4.39697 12.6069C5.44326 13.6696 6.86232 14.2666 8.342 14.2666ZM8.342 16.5333C10.4135 16.5333 12.4002 15.6975 13.865 14.2097C15.3298 12.7219 16.1527 10.704 16.1527 8.59996C16.1527 6.49591 15.3298 4.47803 13.865 2.99025C12.4002 1.50246 10.4135 0.666626 8.342 0.666626C6.27046 0.666626 4.28376 1.50246 2.81896 2.99025C1.35417 4.47803 0.53125 6.49591 0.53125 8.59996C0.53125 10.704 1.35417 12.7219 2.81896 14.2097C4.28376 15.6975 6.27046 16.5333 8.342 16.5333Z" fill="#5E2CF2"/>
<path d="M0.53125 14.9952C1.16886 15.8047 1.88617 16.5333 2.76289 17.1V21.0666H20.616L22.8477 23.3333H0.53125V14.9952ZM22.8477 18.8V0.666626H14.6384C15.4354 1.31424 16.1527 2.04282 16.7107 2.93329H20.616V16.5333L22.8477 18.8ZM0.53125 0.666626H2.04558L0.53125 2.20472V0.666626Z" fill="#5E2CF2"/>
<path d="M15.4354 15.8047C14.8775 16.3714 14.3196 16.8571 13.682 17.2619L17.428 21.0666H2.76289V17.019C1.96588 16.5333 1.16886 15.8047 0.53125 14.9952V23.3333H22.8477L15.4354 15.8047ZM1.32826 1.47615L0.53125 0.666626V2.20472L1.24856 1.3952L1.32826 1.47615Z" fill="#5E2CF2"/>
</g>
<defs>
<clipPath id="clip0_1171_37067">
<rect width="89" height="24" fill="white"/>
</clipPath>
</defs>
</svg>
