<svg width="14" height="14" viewBox="0 0 14 14" fill="none" xmlns="http://www.w3.org/2000/svg">
<path d="M0.0420609 12.9937L4.58679 8.44896C3.88154 7.53722 3.50005 6.42247 3.50005 5.24998C3.50005 3.84648 4.04779 2.53049 5.03829 1.53824C6.02879 0.545998 7.34828 0 8.75002 0C10.1518 0 11.4713 0.547748 12.4618 1.53824C13.454 2.52874 14 3.84648 14 5.24998C14 6.65172 13.4523 7.97121 12.4618 8.96171C11.4713 9.95396 10.1535 10.5 8.75002 10.5C7.57753 10.5 6.46453 10.1185 5.55279 9.41496L1.00806 13.9579C0.99473 13.9713 0.978908 13.9819 0.961492 13.9891C0.944077 13.9963 0.925408 14 0.906557 14C0.887705 14 0.869039 13.9963 0.851623 13.9891C0.834208 13.9819 0.818384 13.9713 0.805058 13.9579L0.0420609 13.1967C0.0287275 13.1834 0.0181494 13.1675 0.010932 13.1501C0.00371552 13.1327 0 13.114 0 13.0952C0 13.0763 0.00371552 13.0577 0.010932 13.0403C0.0181494 13.0228 0.0287275 13.007 0.0420609 12.9937ZM5.97803 8.02197C6.72003 8.76221 7.70353 9.16996 8.75002 9.16996C9.79652 9.16996 10.78 8.76221 11.522 8.02197C12.2623 7.27997 12.67 6.29647 12.67 5.24998C12.67 4.20348 12.2623 3.21824 11.522 2.47799C10.78 1.73774 9.79652 1.32999 8.75002 1.32999C7.70353 1.32999 6.71828 1.73599 5.97803 2.47799C5.23779 3.21999 4.83004 4.20348 4.83004 5.24998C4.83004 6.29647 5.23779 7.28172 5.97803 8.02197Z" fill="#142438"/>
</svg>
