<svg width="19" height="20" viewBox="0 0 19 20" fill="none" xmlns="http://www.w3.org/2000/svg">
<path d="M0.0562477 18.0273L6.14297 11.9406C5.19843 10.7195 4.6875 9.22656 4.6875 7.65625C4.6875 5.77656 5.42109 4.01406 6.74765 2.68516C8.07422 1.35625 9.8414 0.625 11.7187 0.625C13.5961 0.625 15.3633 1.35859 16.6898 2.68516C18.0188 4.01172 18.75 5.77656 18.75 7.65625C18.75 9.5336 18.0164 11.3008 16.6898 12.6273C15.3633 13.9563 13.5984 14.6875 11.7187 14.6875C10.1484 14.6875 8.65781 14.1766 7.43672 13.2344L1.35 19.3188C1.33215 19.3366 1.31096 19.3508 1.28763 19.3604C1.26431 19.3701 1.23931 19.3751 1.21406 19.3751C1.18881 19.3751 1.16381 19.3701 1.14049 19.3604C1.11716 19.3508 1.09597 19.3366 1.07812 19.3188L0.0562477 18.2992C0.0383892 18.2814 0.0242214 18.2602 0.0145569 18.2369C0.00489044 18.2135 -8.39233e-05 18.1885 -8.39233e-05 18.1633C-8.39233e-05 18.138 0.00489044 18.113 0.0145569 18.0897C0.0242214 18.0664 0.0383892 18.0452 0.0562477 18.0273ZM8.00625 11.3688C9 12.3602 10.3172 12.9063 11.7187 12.9063C13.1203 12.9063 14.4375 12.3602 15.4312 11.3688C16.4227 10.375 16.9687 9.05781 16.9687 7.65625C16.9687 6.25469 16.4227 4.93516 15.4312 3.94375C14.4375 2.95234 13.1203 2.40625 11.7187 2.40625C10.3172 2.40625 8.99765 2.95 8.00625 3.94375C7.01484 4.9375 6.46875 6.25469 6.46875 7.65625C6.46875 9.05781 7.01484 10.3773 8.00625 11.3688Z" fill="white"/>
</svg>
