<svg width="19" height="19" viewBox="0 0 19 19" fill="none" xmlns="http://www.w3.org/2000/svg">
<path d="M0.0562477 17.4023L6.14297 11.3156C5.19843 10.0945 4.6875 8.60156 4.6875 7.03125C4.6875 5.15156 5.42109 3.38906 6.74765 2.06016C8.07422 0.73125 9.8414 0 11.7187 0C13.5961 0 15.3633 0.733594 16.6898 2.06016C18.0188 3.38672 18.75 5.15156 18.75 7.03125C18.75 8.9086 18.0164 10.6758 16.6898 12.0023C15.3633 13.3313 13.5984 14.0625 11.7187 14.0625C10.1484 14.0625 8.65781 13.5516 7.43672 12.6094L1.35 18.6938C1.33215 18.7116 1.31096 18.7258 1.28763 18.7354C1.26431 18.7451 1.23931 18.7501 1.21406 18.7501C1.18881 18.7501 1.16381 18.7451 1.14049 18.7354C1.11716 18.7258 1.09597 18.7116 1.07812 18.6938L0.0562477 17.6742C0.0383892 17.6564 0.0242214 17.6352 0.0145569 17.6119C0.00489044 17.5885 -8.39233e-05 17.5635 -8.39233e-05 17.5383C-8.39233e-05 17.513 0.00489044 17.488 0.0145569 17.4647C0.0242214 17.4414 0.0383892 17.4202 0.0562477 17.4023ZM8.00625 10.7438C9 11.7352 10.3172 12.2813 11.7187 12.2813C13.1203 12.2813 14.4375 11.7352 15.4312 10.7438C16.4227 9.75 16.9687 8.43281 16.9687 7.03125C16.9687 5.62969 16.4227 4.31016 15.4312 3.31875C14.4375 2.32734 13.1203 1.78125 11.7187 1.78125C10.3172 1.78125 8.99765 2.325 8.00625 3.31875C7.01484 4.3125 6.46875 5.62969 6.46875 7.03125C6.46875 8.43281 7.01484 9.75235 8.00625 10.7438Z" fill="#142438"/>
</svg>
