<svg width="24" height="24" viewBox="0 0 24 24" fill="none" xmlns="http://www.w3.org/2000/svg">
<path d="M23.0827 23.0827C23.5382 22.6272 23.5382 21.8886 23.0827 21.433L17.0326 15.3827C18.4924 13.5031 19.1811 11.1377 18.9583 8.76822C18.7355 6.39871 17.6178 4.20322 15.8331 2.62877C14.0484 1.0543 11.7307 0.219251 9.35185 0.293637C6.97304 0.368012 4.71201 1.34624 3.02913 3.02912C1.34624 4.71201 0.368023 6.97304 0.293636 9.35184C0.219261 11.7307 1.05431 14.0484 2.62877 15.833C4.20323 17.6178 6.39872 18.7354 8.76823 18.9583C11.1378 19.1811 13.5031 18.4925 15.3827 17.0326L21.433 23.0827C21.8886 23.5383 22.6272 23.5383 23.0827 23.0827ZM9.66605 16.666C8.28158 16.666 6.9282 16.2555 5.77706 15.4863C4.62591 14.7171 3.72871 13.624 3.19889 12.3448C2.66909 11.0657 2.53046 9.65829 2.80056 8.30041C3.07065 6.94255 3.73733 5.69527 4.71631 4.7163C5.69527 3.73733 6.94255 3.07064 8.30042 2.80055C9.65828 2.53045 11.0658 2.66908 12.3448 3.19889C13.6239 3.7287 14.7171 4.62591 15.4863 5.77705C16.2555 6.9282 16.666 8.28157 16.666 9.66604C16.6639 11.5219 15.9258 13.3011 14.6135 14.6135C13.3011 15.9258 11.522 16.6639 9.66605 16.666Z" fill="#0071FF"/>
</svg>
