<svg width="16" height="16" viewBox="0 0 16 16" fill="none" xmlns="http://www.w3.org/2000/svg">
<path d="M11.1425 0.78125H4.8575C2.1275 0.78125 0.5 2.40875 0.5 5.13875V11.4163C0.5 14.1538 2.1275 15.7812 4.8575 15.7812H11.135C13.865 15.7812 15.4925 14.1538 15.4925 11.4238V5.13875C15.5 2.40875 13.8725 0.78125 11.1425 0.78125ZM12.2675 9.81875C12.2375 9.88625 12.2 9.94625 12.1475 9.99875L9.935 12.2112C9.8225 12.3237 9.68 12.3762 9.5375 12.3762C9.395 12.3762 9.2525 12.3237 9.14 12.2112C8.9225 11.9937 8.9225 11.6338 9.14 11.4163L10.3925 10.1638H4.25C3.9425 10.1638 3.6875 9.90875 3.6875 9.60125C3.6875 9.29375 3.9425 9.03875 4.25 9.03875H11.75C11.825 9.03875 11.8925 9.05375 11.9675 9.08375C12.1025 9.14375 12.215 9.24875 12.275 9.39125C12.3275 9.52625 12.3275 9.67625 12.2675 9.81875ZM11.75 7.52375H4.25C4.175 7.52375 4.1075 7.50875 4.0325 7.47875C3.8975 7.41875 3.785 7.31375 3.725 7.17125C3.665 7.03625 3.665 6.87875 3.725 6.74375C3.7625 6.67625 3.8 6.61625 3.8525 6.56375L6.065 4.35125C6.2825 4.13375 6.6425 4.13375 6.86 4.35125C7.0775 4.56875 7.0775 4.92875 6.86 5.14625L5.6075 6.39875H11.75C12.0575 6.39875 12.3125 6.65375 12.3125 6.96125C12.3125 7.26875 12.0575 7.52375 11.75 7.52375Z" fill="#0F1D2D"/>
</svg>
