<svg width="32" height="16" viewBox="0 0 32 16" fill="none" xmlns="http://www.w3.org/2000/svg">
<path d="M24 0C19.592 0 16 3.592 16 8C16 12.408 19.592 16 24 16C28.408 16 32 12.408 32 8C32 3.592 28.408 0 24 0ZM27.824 6.16L23.288 10.696C23.176 10.808 23.024 10.872 22.864 10.872C22.704 10.872 22.552 10.808 22.44 10.696L20.176 8.432C19.944 8.2 19.944 7.816 20.176 7.584C20.408 7.352 20.792 7.352 21.024 7.584L22.864 9.424L26.976 5.312C27.208 5.08 27.592 5.08 27.824 5.312C28.056 5.544 28.056 5.92 27.824 6.16Z" fill="#0071FF"/>
<circle cx="3" cy="8" r="3" fill="#0071FF"/>
</svg>
