<svg width="18" height="18" viewBox="0 0 18 18" fill="none" xmlns="http://www.w3.org/2000/svg">
<path d="M17.2508 11.4141C16.9433 11.4141 16.6883 11.6691 16.6883 11.9766C16.6883 14.1966 15.1433 16.0566 13.0658 16.5441L13.2683 16.2066C13.4258 15.9366 13.3433 15.5916 13.0733 15.4341C12.8108 15.2766 12.4583 15.3591 12.3008 15.6291L11.5133 16.9416C11.4083 17.1141 11.4083 17.3316 11.5058 17.5041C11.6033 17.6841 11.7908 17.7891 11.9933 17.7891C15.1958 17.7891 17.8058 15.1791 17.8058 11.9766C17.8133 11.6691 17.5583 11.4141 17.2508 11.4141Z" fill="#9EA9B7"/>
<path d="M6 0.164062C2.7975 0.164062 0.1875 2.77406 0.1875 5.97656C0.1875 6.28406 0.4425 6.53906 0.75 6.53906C1.0575 6.53906 1.3125 6.28406 1.3125 5.97656C1.3125 3.75656 2.8575 1.89656 4.935 1.40906L4.7325 1.74656C4.575 2.01656 4.6575 2.36156 4.9275 2.51906C5.19 2.67656 5.5425 2.59406 5.7 2.32406L6.4875 1.01156C6.585 0.839063 6.5925 0.629063 6.4875 0.449063C6.39 0.276563 6.2025 0.164062 6 0.164062Z" fill="#9EA9B7"/>
<path d="M16.1247 6.5025C16.1247 8.8125 14.4447 10.7175 12.2472 11.07C12.2472 11.0625 12.2472 11.0625 12.2472 11.055C12.0297 8.2575 9.76469 5.9775 6.92969 5.7525C7.28219 3.555 9.18719 1.875 11.4972 1.875C14.0547 1.875 16.1247 3.945 16.1247 6.5025Z" fill="#9EA9B7"/>
<path d="M7.35734 10.65C7.35734 10.5375 7.22984 10.365 7.07234 10.365H5.52734V10.9275H7.07234C7.22984 10.935 7.35734 10.8075 7.35734 10.65Z" fill="#9EA9B7"/>
<path d="M7.37234 12.0605H7.07234H5.52734V12.623H7.37984C7.61984 12.623 7.78484 12.473 7.78484 12.338C7.78484 12.203 7.61234 12.0605 7.37234 12.0605Z" fill="#9EA9B7"/>
<circle cx="6.505" cy="11.4952" r="4.63" fill="#9EA9B7"/>
</svg>
