<svg width="16" height="8" viewBox="0 0 16 8" fill="none" xmlns="http://www.w3.org/2000/svg">
<path d="M4.36364 5.09091V2.84364C3.84 2.60364 3.35273 2.31273 2.90909 1.97091V5.09091H4.36364ZM2.90909 8H1.45455V6.54545H0V5.09091H1.45455V0H2.90909V1.04C4.21818 2.18182 6.01455 2.90909 8 2.90909C9.98545 2.90909 11.7818 2.18182 13.0909 1.04V0H14.5455V5.09091H16V6.54545H14.5455V8H13.0909V6.54545H2.90909V8ZM11.6364 2.84364V5.09091H13.0909V1.97091C12.6473 2.31273 12.16 2.60364 11.6364 2.84364ZM10.9091 5.09091V3.14182C10.4436 3.30909 9.95636 3.43273 9.45455 3.52V5.09091H10.9091ZM8.72727 5.09091V3.60727L8 3.63636L7.27273 3.60727V5.09091H8.72727ZM6.54545 5.09091V3.52C6.04364 3.43273 5.55636 3.30909 5.09091 3.14182V5.09091H6.54545Z" fill="white"/>
</svg>
