<svg width="36" height="31" viewBox="0 0 36 31" fill="none" xmlns="http://www.w3.org/2000/svg">
<path fill-rule="evenodd" clip-rule="evenodd" d="M27.5756 30.1687C28.0586 30.5107 28.6811 30.5962 29.2361 30.3862C29.7911 30.1747 30.1991 29.7007 30.3221 29.1262C31.6256 23.0002 34.7876 7.49472 35.9741 1.92222C36.0641 1.50222 35.9141 1.06572 35.5841 0.785222C35.2541 0.504722 34.7966 0.423722 34.3886 0.575222C28.0991 2.90322 8.72962 10.1707 0.81262 13.1002C0.31012 13.2862 -0.0168798 13.7692 -0.000379782 14.2987C0.0176202 14.8297 0.37462 15.2902 0.88912 15.4447C4.43962 16.5067 9.10012 17.9842 9.10012 17.9842C9.10012 17.9842 11.2781 24.5617 12.4136 27.9067C12.5561 28.3267 12.8846 28.6567 13.3181 28.7707C13.7501 28.8832 14.2121 28.7647 14.5346 28.4602C16.3586 26.7382 19.1786 24.0757 19.1786 24.0757C19.1786 24.0757 24.5366 28.0042 27.5756 30.1687ZM11.0606 17.1532L13.5791 25.4602L14.1386 20.1997C14.1386 20.1997 23.8691 11.4232 29.4161 6.42072C29.5781 6.27372 29.6006 6.02772 29.4656 5.85522C29.3321 5.68272 29.0861 5.64222 28.9016 5.75922C22.4726 9.86472 11.0606 17.1532 11.0606 17.1532Z" fill="white"/>
</svg>
