<svg width="22" height="21" viewBox="0 0 22 21" fill="none" xmlns="http://www.w3.org/2000/svg">
<path fill-rule="evenodd" clip-rule="evenodd" d="M16.8524 19.83C17.1475 20.0485 17.5279 20.1031 17.8671 19.969C18.2063 19.8339 18.4556 19.531 18.5308 19.164C19.3274 15.2501 21.2597 5.34385 21.9848 1.78364C22.0398 1.51531 21.9481 1.23643 21.7464 1.05723C21.5448 0.878017 21.2652 0.826267 21.0159 0.923059C17.1723 2.41039 5.33536 7.05352 0.497198 8.92514C0.190115 9.04397 -0.00971863 9.35256 0.000364699 9.69085C0.0113647 10.0301 0.229531 10.3243 0.543948 10.423C2.7137 11.1015 5.56178 12.0455 5.56178 12.0455C5.56178 12.0455 6.89278 16.2478 7.5867 18.3849C7.67378 18.6532 7.87453 18.864 8.13945 18.9369C8.40345 19.0087 8.68578 18.933 8.88286 18.7385C9.99753 17.6383 11.7209 15.9373 11.7209 15.9373C11.7209 15.9373 14.9952 18.4471 16.8524 19.83ZM6.75986 11.5146L8.29895 16.8218L8.64086 13.4609C8.64086 13.4609 14.5873 7.85373 17.9771 4.65768C18.0761 4.56377 18.0899 4.4066 18.0074 4.29639C17.9258 4.18618 17.7754 4.16031 17.6627 4.23506C13.7339 6.85802 6.75986 11.5146 6.75986 11.5146Z" fill="url(#paint0_linear_1243_57622)"/>
<defs>
<linearGradient id="paint0_linear_1243_57622" x1="11.0002" y1="0.875" x2="11.0002" y2="20.0416" gradientUnits="userSpaceOnUse">
<stop stop-color="#00E0FF"/>
<stop offset="1" stop-color="#0071FF"/>
</linearGradient>
</defs>
</svg>
