<svg width="12" height="12" viewBox="0 0 12 12" fill="none" xmlns="http://www.w3.org/2000/svg">
<path d="M5.99891 1.71088C3.21057 1.71088 0.941406 3.98004 0.941406 6.76838C0.941406 9.55671 3.21057 11.8317 5.99891 11.8317C8.78724 11.8317 11.0564 9.56254 11.0564 6.77421C11.0564 3.98588 8.78724 1.71088 5.99891 1.71088ZM6.43641 6.58171C6.43641 6.82088 6.23807 7.01921 5.99891 7.01921C5.75974 7.01921 5.56141 6.82088 5.56141 6.58171V3.66504C5.56141 3.42588 5.75974 3.22754 5.99891 3.22754C6.23807 3.22754 6.43641 3.42588 6.43641 3.66504V6.58171Z" fill="#9EA9B7"/>
<path d="M7.6862 1.00983H4.31453C4.0812 1.00983 3.89453 0.823168 3.89453 0.589835C3.89453 0.356501 4.0812 0.164001 4.31453 0.164001H7.6862C7.91953 0.164001 8.1062 0.350668 8.1062 0.584001C8.1062 0.817335 7.91953 1.00983 7.6862 1.00983Z" fill="#9EA9B7"/>
</svg>
