<svg width="12" height="14" viewBox="0 0 12 14" fill="none" xmlns="http://www.w3.org/2000/svg">
<path d="M6.00461 2.10547C2.81794 2.10547 0.224609 4.6988 0.224609 7.88547C0.224609 11.0721 2.81794 13.6721 6.00461 13.6721C9.19128 13.6721 11.7846 11.0788 11.7846 7.89214C11.7846 4.70547 9.19128 2.10547 6.00461 2.10547ZM6.50461 7.67214C6.50461 7.94547 6.27794 8.17214 6.00461 8.17214C5.73128 8.17214 5.50461 7.94547 5.50461 7.67214V4.3388C5.50461 4.06547 5.73128 3.8388 6.00461 3.8388C6.27794 3.8388 6.50461 4.06547 6.50461 4.3388V7.67214Z" fill="#0F1D2D"/>
<path d="M7.92904 1.3026H4.0757C3.80904 1.3026 3.5957 1.08927 3.5957 0.822604C3.5957 0.555938 3.80904 0.335938 4.0757 0.335938H7.92904C8.1957 0.335938 8.40904 0.549271 8.40904 0.815938C8.40904 1.0826 8.1957 1.3026 7.92904 1.3026Z" fill="#0F1D2D"/>
</svg>
