<svg width="40" height="40" viewBox="0 0 40 40" fill="none" xmlns="http://www.w3.org/2000/svg">
<path d="M20.0003 37.9167C13.3337 37.9167 7.91699 33.1334 7.91699 27.25V21.0834C7.91699 20.4 8.48366 19.8334 9.16699 19.8334C9.85033 19.8334 10.417 20.4 10.417 21.0834C10.417 25.45 14.5337 28.75 20.0003 28.75C25.467 28.75 29.5837 25.45 29.5837 21.0834C29.5837 20.4 30.1503 19.8334 30.8337 19.8334C31.517 19.8334 32.0837 20.4 32.0837 21.0834V27.25C32.0837 33.1334 26.667 37.9167 20.0003 37.9167ZM10.417 27.4334C10.5337 31.85 14.7837 35.4167 20.0003 35.4167C25.217 35.4167 29.467 31.85 29.5837 27.4334C27.417 29.7834 23.9837 31.25 20.0003 31.25C16.017 31.25 12.6003 29.7834 10.417 27.4334Z" fill="#0071FF"/>
<path d="M20.0003 22.9167C15.4003 22.9167 11.267 20.85 9.25031 17.5167C8.38364 16.1 7.91699 14.45 7.91699 12.75C7.91699 9.88335 9.20033 7.18334 11.517 5.15001C13.7837 3.16668 16.8003 2.08334 20.0003 2.08334C23.2003 2.08334 26.2003 3.16668 28.4837 5.13335C30.8003 7.18335 32.0837 9.88335 32.0837 12.75C32.0837 14.45 31.617 16.0833 30.7503 17.5167C28.7337 20.85 24.6003 22.9167 20.0003 22.9167ZM20.0003 4.58334C17.4003 4.58334 14.967 5.45001 13.1503 7.05001C11.3837 8.58334 10.417 10.6167 10.417 12.75C10.417 14 10.7503 15.1667 11.3836 16.2167C12.967 18.8167 16.267 20.4167 20.0003 20.4167C23.7337 20.4167 27.0337 18.8 28.617 16.2167C29.267 15.1667 29.5837 14 29.5837 12.75C29.5837 10.6167 28.617 8.58334 26.8337 7.01668C25.017 5.45001 22.6003 4.58334 20.0003 4.58334Z" fill="#0071FF"/>
<path d="M20.0003 31.25C13.117 31.25 7.91699 26.8833 7.91699 21.0833V12.75C7.91699 6.86668 13.3337 2.08334 20.0003 2.08334C23.2003 2.08334 26.2003 3.16668 28.4837 5.13335C30.8003 7.18335 32.0837 9.88335 32.0837 12.75V21.0833C32.0837 26.8833 26.8837 31.25 20.0003 31.25ZM20.0003 4.58334C14.717 4.58334 10.417 8.25001 10.417 12.75V21.0833C10.417 25.45 14.5337 28.75 20.0003 28.75C25.467 28.75 29.5837 25.45 29.5837 21.0833V12.75C29.5837 10.6167 28.617 8.58334 26.8337 7.01667C25.017 5.45001 22.6003 4.58334 20.0003 4.58334Z" fill="#0071FF"/>
</svg>
