<svg width="40" height="40" viewBox="0 0 40 40" fill="none" xmlns="http://www.w3.org/2000/svg">
<path d="M19.9997 37.9167C10.1163 37.9167 2.08301 29.8834 2.08301 20C2.08301 10.1167 10.1163 2.08337 19.9997 2.08337C29.883 2.08337 37.9163 10.1167 37.9163 20C37.9163 29.8834 29.883 37.9167 19.9997 37.9167ZM19.9997 4.58337C11.4997 4.58337 4.58301 11.5 4.58301 20C4.58301 28.5 11.4997 35.4167 19.9997 35.4167C28.4997 35.4167 35.4163 28.5 35.4163 20C35.4163 11.5 28.4997 4.58337 19.9997 4.58337Z" fill="#0071FF"/>
<path d="M23.6671 21.25H14.6338C13.9505 21.25 13.3838 20.6833 13.3838 20V12.7833C13.3838 12.1 13.9505 11.5333 14.6338 11.5333H23.6671C26.2505 11.5333 28.5338 13.8 28.5338 16.4C28.5338 19.0667 26.3505 21.25 23.6671 21.25ZM15.8838 18.75H23.6671C24.9671 18.75 26.0338 17.6833 26.0338 16.3833C26.0338 15.2833 25.0005 14.0167 23.6671 14.0167H15.8838V18.75Z" fill="#0071FF"/>
<path d="M24.9505 28.4667H14.6338C13.9505 28.4667 13.3838 27.9 13.3838 27.2167V20C13.3838 19.3167 13.9505 18.75 14.6338 18.75H24.9505C27.9171 18.75 30.3338 20.9333 30.3338 23.6167C30.3338 26.3 27.9171 28.4667 24.9505 28.4667ZM15.8838 25.9667H24.9505C26.5338 25.9667 27.8338 24.9 27.8338 23.6C27.8338 22.3 26.5505 21.2333 24.9505 21.2333H15.8838V25.9667Z" fill="#0071FF"/>
<path d="M20.9502 32.0833C20.2669 32.0833 19.7002 31.5167 19.7002 30.8333V27.2167C19.7002 26.5333 20.2669 25.9667 20.9502 25.9667C21.6335 25.9667 22.2002 26.5333 22.2002 27.2167V30.8333C22.2002 31.5167 21.6502 32.0833 20.9502 32.0833Z" fill="#0071FF"/>
<path d="M16.4502 32.0833C15.7669 32.0833 15.2002 31.5167 15.2002 30.8333V27.2167C15.2002 26.5333 15.7669 25.9667 16.4502 25.9667C17.1335 25.9667 17.7002 26.5333 17.7002 27.2167V30.8333C17.7002 31.5167 17.1335 32.0833 16.4502 32.0833Z" fill="#0071FF"/>
<path d="M20.9502 14.0333C20.2669 14.0333 19.7002 13.4666 19.7002 12.7833V9.16663C19.7002 8.48329 20.2669 7.91663 20.9502 7.91663C21.6335 7.91663 22.2002 8.48329 22.2002 9.16663V12.7833C22.2002 13.4666 21.6502 14.0333 20.9502 14.0333Z" fill="#0071FF"/>
<path d="M16.4502 14.0333C15.7669 14.0333 15.2002 13.4666 15.2002 12.7833V9.16663C15.2002 8.48329 15.7669 7.91663 16.4502 7.91663C17.1335 7.91663 17.7002 8.48329 17.7002 9.16663V12.7833C17.7002 13.4666 17.1335 14.0333 16.4502 14.0333Z" fill="#0071FF"/>
<path d="M18.0667 14.0333H11.75C11.0667 14.0333 10.5 13.4667 10.5 12.7833C10.5 12.1 11.0667 11.5333 11.75 11.5333H18.0667C18.75 11.5333 19.3167 12.1 19.3167 12.7833C19.3167 13.4667 18.7667 14.0333 18.0667 14.0333Z" fill="#0071FF"/>
<path d="M18.0667 28.4667H11.75C11.0667 28.4667 10.5 27.9 10.5 27.2167C10.5 26.5333 11.0667 25.9667 11.75 25.9667H18.0667C18.75 25.9667 19.3167 26.5333 19.3167 27.2167C19.3167 27.9 18.7667 28.4667 18.0667 28.4667Z" fill="#0071FF"/>
</svg>
