<svg width="16" height="18" viewBox="0 0 16 18" fill="none" xmlns="http://www.w3.org/2000/svg">
<path fill-rule="evenodd" clip-rule="evenodd" d="M10.9103 0.0478025C11.1098 0.112657 11.3737 0.404294 11.4262 0.618182C11.4525 0.725355 11.47 1.1032 11.47 1.56411V2.33154H13.3781C14.6999 2.33154 15.3299 2.34497 15.4284 2.3752C15.9829 2.54558 16.1845 3.25879 15.8062 3.71194C15.5982 3.9611 15.4471 4.01325 14.931 4.01425L14.4926 4.01509L14.4913 9.57272C14.4902 14.095 14.4805 15.1838 14.4391 15.4173C14.3297 16.0344 14.0654 16.5748 13.658 17.0147C13.2367 17.4696 12.802 17.737 12.1977 17.9131L11.8991 18H7.99965H4.10017L3.80164 17.9131C2.8449 17.6344 2.09732 16.9661 1.74674 16.0761C1.50923 15.4732 1.52718 15.968 1.51561 9.70664L1.50509 4.01509L1.06745 4.01425C0.551373 4.01325 0.401103 3.96106 0.191464 3.70995C-0.184081 3.26006 0.0192897 2.5447 0.570927 2.3752C0.669253 2.34501 1.29007 2.33154 2.58388 2.33154H4.45466V1.56411C4.45466 1.12585 4.47254 0.723863 4.49635 0.626982C4.5206 0.528112 4.59852 0.386809 4.68304 0.288359C4.94354 -0.0151009 4.80457 -0.00301001 7.97831 0.00142844C9.91663 0.00414508 10.8199 0.0184169 10.9103 0.0478025ZM6.09655 2.00631V2.33154H7.96233H9.82812V2.00631V1.68108H7.96233H6.09655V2.00631ZM3.1113 9.46229C3.1113 12.9613 3.12473 14.9822 3.14892 15.1128C3.264 15.735 3.69081 16.1783 4.28797 16.2958C4.44832 16.3274 5.52357 16.3364 8.13025 16.328L11.7499 16.3165L11.9608 16.2291C12.3629 16.0623 12.6176 15.7989 12.7872 15.3744L12.8693 15.1686L12.8794 9.59185L12.8895 4.01509H8.00036H3.1113V9.46229ZM10.2013 6.29324C10.3713 6.37145 10.5263 6.52435 10.6152 6.7015C10.6836 6.83798 10.6864 6.97186 10.6864 10.1754C10.6864 13.398 10.684 13.512 10.6139 13.6528C10.3195 14.2446 9.53097 14.2743 9.20513 13.7059L9.10046 13.5233V10.1754V6.82739L9.20513 6.6448C9.3535 6.38595 9.55489 6.25945 9.84181 6.24484C9.99152 6.23719 10.1158 6.25394 10.2013 6.29324ZM6.46441 6.31692C6.64867 6.41044 6.82484 6.63584 6.88111 6.85004C6.90589 6.94447 6.91559 8.12973 6.90899 10.2591L6.89884 13.5233L6.79417 13.7059C6.53542 14.1573 5.96431 14.2544 5.58372 13.9118C5.29822 13.6548 5.31468 13.8828 5.31374 10.1643C5.31296 6.97079 5.31565 6.83802 5.38412 6.7015C5.59208 6.287 6.07013 6.11681 6.46441 6.31692Z" fill="#142438"/>
</svg>
