<svg width="17" height="16" viewBox="0 0 17 16" fill="none" xmlns="http://www.w3.org/2000/svg">
<path d="M8.28906 0C3.87121 0 0.289062 3.58214 0.289062 8C0.289062 12.4179 3.87121 16 8.28906 16C12.7069 16 16.2891 12.4179 16.2891 8C16.2891 3.58214 12.7069 0 8.28906 0ZM12.1337 6.03036C12.1391 6.11429 12.1391 6.20179 12.1391 6.2875C12.1391 8.90893 10.1426 11.9286 6.49442 11.9286C5.36942 11.9286 4.32656 11.6018 3.44799 11.0393C3.60871 11.0571 3.76228 11.0643 3.92656 11.0643C4.85513 11.0643 5.70871 10.75 6.38906 10.2179C5.51763 10.2 4.78549 9.62857 4.53549 8.84286C4.84085 8.8875 5.11585 8.8875 5.43013 8.80714C4.98143 8.71598 4.57812 8.47229 4.28873 8.11747C3.99934 7.76265 3.84172 7.31858 3.84263 6.86071V6.83571C4.10513 6.98393 4.41406 7.075 4.73728 7.0875C4.46557 6.90642 4.24274 6.66109 4.08855 6.37327C3.93436 6.08544 3.85357 5.76402 3.85335 5.4375C3.85335 5.06786 3.94978 4.73036 4.12299 4.4375C4.62103 5.0506 5.24251 5.55204 5.94704 5.90922C6.65156 6.26641 7.42336 6.47135 8.21228 6.51071C7.93192 5.1625 8.93906 4.07143 10.1498 4.07143C10.7212 4.07143 11.2355 4.31071 11.598 4.69643C12.0462 4.6125 12.4748 4.44464 12.8569 4.21964C12.7087 4.67857 12.398 5.06607 11.9855 5.31071C12.3855 5.26786 12.7712 5.15714 13.1283 5.00179C12.8587 5.39821 12.5212 5.75 12.1337 6.03036Z" fill="#D9DBE1"/>
</svg>
