<svg width="37" height="37" viewBox="0 0 37 37" fill="none" xmlns="http://www.w3.org/2000/svg">
<path d="M33.2216 16.7149V19.7957C33.2216 20.6182 32.5635 21.2912 31.726 21.3212H28.7948C27.1796 21.3212 25.699 20.1397 25.5644 18.5245C25.4747 17.5823 25.8336 16.6999 26.4617 16.0868C27.0151 15.5185 27.7778 15.1895 28.6153 15.1895H31.726C32.5635 15.2194 33.2216 15.8924 33.2216 16.7149Z" fill="#0071FF"/>
<path d="M30.935 23.5661H28.7964C25.9549 23.5661 23.5621 21.4275 23.3228 18.7056C23.1882 17.1503 23.7565 15.5949 24.8931 14.4882C25.8502 13.5012 27.1813 12.9478 28.617 12.9478H30.935C31.3687 12.9478 31.7277 12.5889 31.6828 12.1552C31.3538 8.52104 28.946 6.03845 25.3717 5.6197C25.0127 5.55988 24.6388 5.54492 24.25 5.54492H10.7902C10.3714 5.54492 9.96763 5.57483 9.57879 5.63465C5.76518 6.11323 3.3125 8.95474 3.3125 13.0226V23.4914C3.3125 27.619 6.6625 30.969 10.7902 30.969H24.25C28.4375 30.969 31.3239 28.3518 31.6828 24.3588C31.7277 23.9251 31.3687 23.5661 30.935 23.5661ZM19.7634 14.892H10.7902C10.177 14.892 9.66853 14.3835 9.66853 13.7704C9.66853 13.1572 10.177 12.6487 10.7902 12.6487H19.7634C20.3766 12.6487 20.885 13.1572 20.885 13.7704C20.885 14.3835 20.3766 14.892 19.7634 14.892Z" fill="#0071FF"/>
</svg>
