<svg width="24" height="24" viewBox="0 0 24 24" fill="none" xmlns="http://www.w3.org/2000/svg">
<path d="M12 22.75C6.07 22.75 1.25 17.93 1.25 12C1.25 6.07 6.07 1.25 12 1.25C17.93 1.25 22.75 6.07 22.75 12C22.75 17.93 17.93 22.75 12 22.75ZM12 2.75C6.9 2.75 2.75 6.9 2.75 12C2.75 17.1 6.9 21.25 12 21.25C17.1 21.25 21.25 17.1 21.25 12C21.25 6.9 17.1 2.75 12 2.75Z" fill="#565B78"/>
<path d="M12 10.5C12.41 10.5 12.75 10.84 12.75 11.25L12.75 16.25C12.75 16.66 12.41 17 12 17C11.59 17 11.25 16.66 11.25 16.25L11.25 11.25C11.25 10.84 11.59 10.5 12 10.5Z" fill="#565B78"/>
<path d="M12 7.25012C12.13 7.25012 12.26 7.28012 12.38 7.33012C12.5 7.38012 12.61 7.45012 12.71 7.54012C12.8 7.64012 12.87 7.74012 12.92 7.87012C12.97 7.99012 13 8.12012 13 8.25012C13 8.38012 12.97 8.51012 12.92 8.63012C12.87 8.75012 12.8 8.86012 12.71 8.96012C12.61 9.05012 12.5 9.12012 12.38 9.17012C12.14 9.27012 11.86 9.27012 11.62 9.17012C11.5 9.12012 11.39 9.05012 11.29 8.96012C11.2 8.86012 11.13 8.75012 11.08 8.63012C11.03 8.51012 11 8.38012 11 8.25012C11 8.12012 11.03 7.99012 11.08 7.87012C11.13 7.74012 11.2 7.64012 11.29 7.54012C11.39 7.45012 11.5 7.38012 11.62 7.33012C11.74 7.28012 11.87 7.25012 12 7.25012Z" fill="#565B78"/>
</svg>
