<svg width="24" height="24" viewBox="0 0 24 24" fill="none" xmlns="http://www.w3.org/2000/svg">
<path d="M11.9953 0C18.6257 0 24 5.37321 24 12.0024C24 18.6315 18.6257 24 12 24C5.36954 24 3.11002e-06 18.6268 3.11002e-06 12.0024C-0.00471944 5.37321 5.36954 0 11.9953 0Z" fill="#6CF9D8"/>
<path fill-rule="evenodd" clip-rule="evenodd" d="M17.59 5L19 6.41L14.288 11.122C14.0396 10.4752 13.5248 9.9604 12.878 9.71202L17.59 5ZM11.122 9.71202L6.41 5L5 6.41L9.712 11.122C9.96037 10.4752 10.4752 9.9604 11.122 9.71202ZM9.712 12.878L5 17.59L6.41 19L11.122 14.288C10.4752 14.0396 9.96039 13.5248 9.712 12.878ZM12.878 14.288L17.59 19L19 17.59L14.288 12.878C14.0396 13.5248 13.5248 14.0396 12.878 14.288Z" fill="#2D2E33"/>
<path fill-rule="evenodd" clip-rule="evenodd" d="M1 12.0016L1 12.0024C1 18.0746 5.9219 23 12 23C18.0739 23 23 18.0788 23 12.0024C23 5.92568 18.0736 1 11.9953 1C5.92176 1 0.995674 5.9254 1 12.0016ZM3.11002e-06 12.0024C3.11002e-06 18.6268 5.36954 24 12 24C18.6257 24 24 18.6315 24 12.0024C24 5.37321 18.6257 0 11.9953 0C5.36954 0 -0.00471944 5.37321 3.11002e-06 12.0024Z" fill="#E2E6EE"/>
</svg>
