<svg width="24" height="24" viewBox="0 0 24 24" fill="none" xmlns="http://www.w3.org/2000/svg">
<path d="M11.9953 0C18.6257 0 24 5.37321 24 12.0024C24 18.6315 18.6257 24 12 24C5.36954 24 3.11002e-06 18.6268 3.11002e-06 12.0024C-0.00471944 5.37321 5.36954 0 11.9953 0Z" fill="white"/>
<path d="M6.82578 16.4519C8.38642 16.4519 9.65156 15.1842 9.65156 13.6205C9.65156 12.0567 8.38642 10.7891 6.82578 10.7891C5.26515 10.7891 4 12.0567 4 13.6205C4 15.1842 5.26515 16.4519 6.82578 16.4519Z" fill="#444444"/>
<path d="M17.1744 16.4519C18.735 16.4519 20.0002 15.1842 20.0002 13.6205C20.0002 12.0567 18.735 10.7891 17.1744 10.7891C15.6138 10.7891 14.3486 12.0567 14.3486 13.6205C14.3486 15.1842 15.6138 16.4519 17.1744 16.4519Z" fill="#DDDDDD"/>
<mask id="mask0_583_12445" style="mask-type:alpha" maskUnits="userSpaceOnUse" x="5" y="7" width="14" height="7">
<path d="M18.9301 7H5.03027V13.9255H18.9301V7Z" fill="#C4C4C4"/>
</mask>
<g mask="url(#mask0_583_12445)">
<mask id="mask1_583_12445" style="mask-type:alpha" maskUnits="userSpaceOnUse" x="5" y="7" width="14" height="20">
<path fill-rule="evenodd" clip-rule="evenodd" d="M11.9817 7.10547C8.16736 7.10547 5.0752 10.1127 5.0752 13.8223V26.2509H8.53859V14.1433C8.53859 12.2939 10.0801 10.7948 11.9817 10.7948C13.8833 10.7948 15.4247 12.2939 15.4247 14.1433V26.2509H18.8883V13.8223C18.8883 10.1127 15.7961 7.10547 11.9817 7.10547Z" fill="#E9BCFF"/>
</mask>
<g mask="url(#mask1_583_12445)">
<path d="M5.0752 14.012C5.0752 10.1976 8.16736 7.10547 11.9817 7.10547C15.7961 7.10547 18.8883 10.1976 18.8883 14.012V26.2509H5.0752V14.012Z" fill="#E9BCFF"/>
<path d="M5.8584 14.1206C5.8584 10.7338 8.60395 7.98828 11.9908 7.98828C15.3776 7.98828 18.1231 10.7338 18.1231 14.1206V27.4772H5.8584V14.1206Z" fill="#2C98F3"/>
<path d="M6.66406 14.107C6.66406 11.2153 9.00827 8.87109 11.9 8.87109C14.7917 8.87109 17.136 11.2153 17.136 14.107V29.4428H6.66406V14.107Z" fill="#58C971"/>
<path d="M7.64258 14.2106C7.64258 11.814 9.58545 9.87109 11.9821 9.87109C14.3787 9.87109 16.3216 11.814 16.3216 14.2106V31.8864H7.64258V14.2106Z" fill="#E9BCFF"/>
</g>
</g>
<path fill-rule="evenodd" clip-rule="evenodd" d="M1 12.0016L1 12.0024C1 18.0746 5.9219 23 12 23C18.0739 23 23 18.0788 23 12.0024C23 5.92568 18.0736 1 11.9953 1C5.92176 1 0.995674 5.9254 1 12.0016ZM3.11002e-06 12.0024C3.11002e-06 18.6268 5.36954 24 12 24C18.6257 24 24 18.6315 24 12.0024C24 5.37321 18.6257 0 11.9953 0C5.36954 0 -0.00471944 5.37321 3.11002e-06 12.0024Z" fill="#E2E6EE"/>
</svg>
