<svg width="24" height="24" viewBox="0 0 24 24" fill="none" xmlns="http://www.w3.org/2000/svg">
<path d="M11.9953 0C18.6257 0 24 5.37321 24 12.0024C24 18.6315 18.6257 24 12 24C5.36954 24 3.11002e-06 18.6268 3.11002e-06 12.0024C-0.00471944 5.37321 5.36954 0 11.9953 0Z" fill="#8247E5"/>
<path d="M16.1132 9.32631C15.8194 9.15774 15.4437 9.15774 15.1114 9.32631L12.7706 10.7134L11.1812 11.5948L8.8838 12.9771C8.59001 13.1457 8.21433 13.1457 7.882 12.9771L6.08549 11.8838C5.79169 11.7152 5.58459 11.3781 5.58459 11.0024V8.90247C5.58459 8.56532 5.75316 8.23299 6.08549 8.02107L7.882 6.9711C8.1758 6.80253 8.55148 6.80253 8.8838 6.9711L10.6803 8.06442C10.9741 8.23299 11.1812 8.57014 11.1812 8.94582V10.3329L12.7706 9.40819V7.98254C12.7706 7.64539 12.602 7.31306 12.2697 7.10114L8.92715 5.12643C8.63335 4.95786 8.25768 4.95786 7.92535 5.12643L4.5009 7.14449C4.16857 7.31306 4 7.65021 4 7.98254V11.9272C4 12.2643 4.16857 12.5966 4.5009 12.8085L7.88681 14.7833C8.18061 14.9518 8.55629 14.9518 8.88862 14.7833L11.186 13.4395L12.7754 12.5148L15.0728 11.171C15.3666 11.0024 15.7423 11.0024 16.0747 11.171L17.8712 12.221C18.165 12.3895 18.3721 12.7267 18.3721 13.1023V15.2023C18.3721 15.5394 18.2035 15.8718 17.8712 16.0837L16.118 17.1337C15.8242 17.3022 15.4485 17.3022 15.1162 17.1337L13.3149 16.0837C13.0211 15.9151 12.814 15.578 12.814 15.2023V13.8585L11.2246 14.7833V16.1704C11.2246 16.5075 11.3931 16.8399 11.7255 17.0518L15.1114 19.0265C15.4052 19.1951 15.7809 19.1951 16.1132 19.0265L19.4991 17.0518C19.7929 16.8832 20 16.5461 20 16.1704V12.1824C20 11.8453 19.8314 11.5129 19.4991 11.301L16.1132 9.32631Z" fill="white"/>
<path fill-rule="evenodd" clip-rule="evenodd" d="M1 12.0016L1 12.0024C1 18.0746 5.9219 23 12 23C18.0739 23 23 18.0788 23 12.0024C23 5.92568 18.0736 1 11.9953 1C5.92176 1 0.995674 5.9254 1 12.0016ZM3.11002e-06 12.0024C3.11002e-06 18.6268 5.36954 24 12 24C18.6257 24 24 18.6315 24 12.0024C24 5.37321 18.6257 0 11.9953 0C5.36954 0 -0.00471944 5.37321 3.11002e-06 12.0024Z" fill="#E2E6EE"/>
</svg>
