<svg width="24" height="24" viewBox="0 0 24 24" fill="none" xmlns="http://www.w3.org/2000/svg">
<path d="M11.9953 0C18.6257 0 24 5.37321 24 12.0024C24 18.6315 18.6257 24 12 24C5.36954 24 3.11002e-06 18.6268 3.11002e-06 12.0024C-0.00471944 5.37321 5.36954 0 11.9953 0Z" fill="#2D374B"/>
<path d="M13.7712 11.3321L14.9255 9.33844L18.0367 14.2712L18.0382 15.2176L18.028 8.70346C18.0244 8.62489 18.0022 8.54835 17.9634 8.48033C17.9246 8.4123 17.8703 8.35477 17.8051 8.3126L12.2037 5.03302C12.1368 5.00065 12.0636 4.98403 11.9895 4.98438C11.9154 4.98474 11.8423 5.00206 11.7757 5.03507C11.7584 5.04389 11.7417 5.05375 11.7255 5.0646L11.7061 5.07714L6.26889 8.28432L6.24772 8.29401C6.21954 8.3073 6.19265 8.32326 6.16741 8.34167C6.06544 8.4158 5.99595 8.52753 5.97374 8.65306C5.97034 8.67211 5.96802 8.69133 5.9668 8.71064L5.97531 14.019L8.87328 9.44676C9.2381 8.84051 10.033 8.6452 10.771 8.6558L11.6371 8.6786L6.5338 17.0094L7.13541 17.362L12.2998 8.68693L14.5825 8.67849L9.43143 17.5721L11.5782 18.8298L11.8348 18.9799C11.9454 19.0247 12.0682 19.0272 12.1805 18.9869L17.8606 15.6362L16.7741 16.2767L13.7712 11.3321ZM14.2116 17.7888L12.0435 14.3249L13.367 12.0389L16.2143 16.6073L14.2116 17.7888Z" fill="#2D374B"/>
<path d="M12.0439 14.3251L14.212 17.7888L16.2148 16.6073L13.3676 12.0391L12.0439 14.3251Z" fill="#28A0F0"/>
<path d="M18.0382 15.2151L18.0367 14.2687L14.9255 9.33594L13.7705 11.3294L16.774 16.274L17.8605 15.6334C17.9131 15.59 17.9561 15.5358 17.9868 15.4743C18.0174 15.4129 18.0349 15.3455 18.0383 15.2767L18.0382 15.2151Z" fill="#28A0F0"/>
<path d="M5 16.1108L6.53355 17.0103L11.6368 8.67946L10.7707 8.65666C10.0328 8.64605 9.23785 8.84126 8.87303 9.44762L5.97506 14.0199L5.00056 15.5447V16.1112L5 16.1108Z" fill="white"/>
<path d="M14.5827 8.67578L12.3002 8.68422L7.13574 17.3593L8.94081 18.4173L9.43164 17.5697L14.5827 8.67578Z" fill="white"/>
<path d="M19 8.66572C18.9896 8.42593 18.922 8.19232 18.8031 7.98504C18.6842 7.77777 18.5175 7.60303 18.3175 7.47591L12.6428 4.15403C12.4402 4.05269 12.2175 4 11.9918 4C11.766 4 11.5433 4.05269 11.3408 4.15403C11.2934 4.17832 5.82217 7.40841 5.82217 7.40841C5.74615 7.44557 5.67344 7.48936 5.60486 7.53931C5.42721 7.66791 5.28049 7.83581 5.17573 8.03041C5.07097 8.22501 5.01089 8.44124 5 8.66287V15.5427L5.9745 14.0179L5.967 8.70973C5.97156 8.63696 5.99191 8.56612 6.0266 8.50232C6.06129 8.43852 6.10945 8.38334 6.16761 8.34076C6.19337 8.32195 11.758 5.04317 11.7757 5.03416C11.8423 5.00115 11.9154 4.98383 11.9895 4.98347C12.0636 4.98312 12.1368 4.99974 12.2037 5.0321L17.8051 8.31192C17.8703 8.35409 17.9246 8.41161 17.9634 8.47964C18.0022 8.54767 18.0243 8.6242 18.028 8.70278V15.2786C18.0266 15.3468 18.011 15.4139 17.9821 15.4754C17.9532 15.5369 17.9118 15.5915 17.8605 15.6354L16.774 16.2759L16.2139 16.6066L14.2112 17.7881L12.1801 18.9863C12.0678 19.0266 11.9449 19.0242 11.8343 18.9794L9.43129 17.5725L8.94046 18.4199L11.1 19.6855C11.1715 19.7268 11.2351 19.7635 11.2873 19.7934C11.3682 19.839 11.4233 19.8703 11.4427 19.8799C11.6234 19.9605 11.8187 20.0014 12.016 20C12.1969 20.0002 12.3762 19.9659 12.5447 19.8987L18.444 16.4211C18.6104 16.2893 18.7464 16.122 18.8425 15.9309C18.9385 15.7398 18.9922 15.5296 18.9998 15.3151L19 8.66572Z" fill="#96BEDC"/>
<path fill-rule="evenodd" clip-rule="evenodd" d="M1 12.0016L1 12.0024C1 18.0746 5.9219 23 12 23C18.0739 23 23 18.0788 23 12.0024C23 5.92568 18.0736 1 11.9953 1C5.92176 1 0.995674 5.9254 1 12.0016ZM3.11002e-06 12.0024C3.11002e-06 18.6268 5.36954 24 12 24C18.6257 24 24 18.6315 24 12.0024C24 5.37321 18.6257 0 11.9953 0C5.36954 0 -0.00471944 5.37321 3.11002e-06 12.0024Z" fill="#E2E6EE"/>
</svg>
