<svg width="24" height="24" viewBox="0 0 24 24" fill="none" xmlns="http://www.w3.org/2000/svg">
<path d="M11.9953 0C18.6257 0 24 5.37321 24 12.0024C24 18.6315 18.6257 24 12 24C5.36954 24 3.11002e-06 18.6268 3.11002e-06 12.0024C-0.00471944 5.37321 5.36954 0 11.9953 0Z" fill="#70D44B"/>
<path fill-rule="evenodd" clip-rule="evenodd" d="M1 12.0016L1 12.0024C1 18.0746 5.9219 23 12 23C18.0739 23 23 18.0788 23 12.0024C23 5.92568 18.0736 1 11.9953 1C5.92176 1 0.995674 5.9254 1 12.0016ZM3.11002e-06 12.0024C3.11002e-06 18.6268 5.36954 24 12 24C18.6257 24 24 18.6315 24 12.0024C24 5.37321 18.6257 0 11.9953 0C5.36954 0 -0.00471944 5.37321 3.11002e-06 12.0024Z" fill="#E2E6EE"/>
<path d="M12 5.06944C12.289 5.06852 12.5725 5.14854 12.8184 5.30043C13.0642 5.45232 13.2627 5.67003 13.3912 5.92889L17.766 14.6789C17.8847 14.9161 17.9407 15.1796 17.9289 15.4446C17.917 15.7095 17.8376 15.967 17.6982 16.1927C17.5588 16.4183 17.3641 16.6045 17.1324 16.7336C16.9008 16.8628 16.64 16.9306 16.3748 16.9306H7.62519C7.35999 16.9306 7.09919 16.8628 6.86756 16.7336C6.63593 16.6045 6.44117 16.4183 6.30177 16.1927C6.16238 15.967 6.08298 15.7095 6.07111 15.4446C6.05925 15.1796 6.11532 14.9161 6.234 14.6789L10.6088 5.92889C10.7373 5.67003 10.9358 5.45232 11.1816 5.30043C11.4275 5.14854 11.711 5.06852 12 5.06944ZM12 4C11.5126 3.99994 11.0348 4.13562 10.6201 4.39181C10.2054 4.64801 9.87026 5.01462 9.65218 5.45056L5.27737 14.2006C5.07716 14.6008 4.98258 15.0456 5.00264 15.4926C5.02269 15.9397 5.15671 16.3742 5.39195 16.7549C5.6272 17.1356 5.95587 17.4499 6.34673 17.6678C6.7376 17.8857 7.17768 18.0001 7.62519 18H16.3748C16.8223 18.0001 17.2624 17.8857 17.6533 17.6678C18.0441 17.4499 18.3728 17.1356 18.608 16.7549C18.8433 16.3742 18.9773 15.9397 18.9974 15.4926C19.0174 15.0456 18.9228 14.6008 18.7226 14.2006L14.3478 5.45056C14.1297 5.01462 13.7946 4.64801 13.3799 4.39181C12.9652 4.13562 12.4874 3.99994 12 4V4Z" fill="white"/>
</svg>
