<svg width="24" height="24" viewBox="0 0 24 24" fill="none" xmlns="http://www.w3.org/2000/svg">
<path d="M11.9953 0C18.6257 0 24 5.37321 24 12.0024C24 18.6315 18.6257 24 12 24C5.36954 24 3.11002e-06 18.6268 3.11002e-06 12.0024C-0.00471944 5.37321 5.36954 0 11.9953 0Z" fill="black"/>
<path fill-rule="evenodd" clip-rule="evenodd" d="M1 12.0016L1 12.0024C1 18.0746 5.9219 23 12 23C18.0739 23 23 18.0788 23 12.0024C23 5.92568 18.0736 1 11.9953 1C5.92176 1 0.995674 5.9254 1 12.0016ZM3.11002e-06 12.0024C3.11002e-06 18.6268 5.36954 24 12 24C18.6257 24 24 18.6315 24 12.0024C24 5.37321 18.6257 0 11.9953 0C5.36954 0 -0.00471944 5.37321 3.11002e-06 12.0024Z" fill="#E2E6EE"/>
<path d="M9.28118 10.9236L11.9999 8.1861L14.7201 10.9251L16.3021 9.33212L11.9999 5L7.69922 9.33067L9.28118 10.9236Z" fill="#F3BA2F"/>
<path d="M8.16396 12.0499L6.58203 10.457L5.00002 12.05L6.58195 13.6429L8.16396 12.0499Z" fill="#F3BA2F"/>
<path d="M9.28155 13.1732L12.0003 15.9107L14.7204 13.1719L16.3032 14.7639L16.3025 14.7648L12.0003 19.0968L7.69948 14.7663L7.69727 14.764L9.28155 13.1732Z" fill="#F3BA2F"/>
<path d="M17.418 13.6438L19 12.0508L17.4181 10.4579L15.8361 12.0509L17.418 13.6438Z" fill="#F3BA2F"/>
<path d="M13.6042 12.0461H13.6049L11.9996 10.4297L10.8133 11.6243H10.8132L10.677 11.7615L10.3958 12.0447L10.3936 12.0469L10.3958 12.0492L11.9996 13.6642L13.6049 12.0478L13.6057 12.0469L13.6042 12.0461Z" fill="#F3BA2F"/>
</svg>
