<svg width="24" height="24" viewBox="0 0 24 24" fill="none" xmlns="http://www.w3.org/2000/svg">
<path d="M11.9953 0C18.6257 0 24 5.37321 24 12.0024C24 18.6315 18.6257 24 12 24C5.36954 24 3.11002e-06 18.6268 3.11002e-06 12.0024C-0.00471944 5.37321 5.36954 0 11.9953 0Z" fill="white"/>
<g clip-path="url(#clip0_83_656)">
<path d="M8.70319 13.1113C9.16301 13.1113 9.6116 12.958 9.97422 12.6776L7.05833 9.76172C6.35553 10.6701 6.52375 11.9785 7.43216 12.6813C7.79852 12.958 8.24338 13.1113 8.70319 13.1113Z" fill="#00193C"/>
<path d="M17.3759 11.0288C17.3759 10.569 17.2226 10.1204 16.9423 9.75781L14.0264 12.6737C14.9348 13.3765 16.2395 13.2083 16.9423 12.2999C17.2226 11.9373 17.3759 11.4887 17.3759 11.0288Z" fill="#00193C"/>
<path d="M18.8449 7.85547L17.5551 9.14519C18.5944 10.39 18.4299 12.2443 17.185 13.2835C16.0935 14.1957 14.5084 14.1957 13.4168 13.2835L12 14.7003L10.5869 13.2872C9.34206 14.3265 7.48785 14.162 6.4486 12.9172C5.53645 11.8256 5.53645 10.2405 6.4486 9.14893L5.78692 8.48724L5.15888 7.85547C4.4 9.10407 4 10.5396 4 12.0013C4 16.42 7.58131 20.0013 12 20.0013C16.4187 20.0013 20 16.42 20 12.0013C20.0037 10.5396 19.6 9.10407 18.8449 7.85547Z" fill="#00193C"/>
<path d="M17.7869 6.47797C14.7402 3.28171 9.67851 3.16208 6.48225 6.20881C6.38879 6.29853 6.29907 6.38825 6.21309 6.47797C6.01496 6.68732 5.82804 6.90414 5.65234 7.13218L12 13.4836L18.3477 7.13218C18.1757 6.90414 17.9851 6.68732 17.7869 6.47797ZM12 5.04619C13.8692 5.04619 15.6112 5.76769 16.9196 7.08358L12 12.0032L7.08038 7.08358C8.38879 5.76769 10.1308 5.04619 12 5.04619Z" fill="#00193C"/>
</g>
<path fill-rule="evenodd" clip-rule="evenodd" d="M1 12.0016L1 12.0024C1 18.0746 5.9219 23 12 23C18.0739 23 23 18.0788 23 12.0024C23 5.92568 18.0736 1 11.9953 1C5.92176 1 0.995674 5.9254 1 12.0016ZM3.11002e-06 12.0024C3.11002e-06 18.6268 5.36954 24 12 24C18.6257 24 24 18.6315 24 12.0024C24 5.37321 18.6257 0 11.9953 0C5.36954 0 -0.00471944 5.37321 3.11002e-06 12.0024Z" fill="#E2E6EE"/>
<defs>
<clipPath id="clip0_83_656">
<rect width="16" height="16" fill="white" transform="translate(4 4)"/>
</clipPath>
</defs>
</svg>
