<svg width="24" height="24" viewBox="0 0 24 24" fill="none" xmlns="http://www.w3.org/2000/svg">
<path d="M11.9953 0C18.6257 0 24 5.37321 24 12.0024C24 18.6315 18.6257 24 12 24C5.36954 24 3.11002e-06 18.6268 3.11002e-06 12.0024C-0.00471944 5.37321 5.36954 0 11.9953 0Z" fill="#0516FF"/>
<path d="M11.6194 4.15327C12.0083 3.94891 12.6 3.94891 12.9889 4.15327L16.957 6.23853C17.1912 6.36161 17.3198 6.54501 17.3429 6.73433H17.3467V17.216C17.3415 17.4225 17.2117 17.6276 16.957 17.7615L12.9889 19.8467C12.6 20.0511 12.0083 20.0511 11.6194 19.8467L7.65132 17.7615C7.39772 17.6282 7.27602 17.4216 7.27 17.216C7.2694 17.1957 7.26932 17.1788 7.2699 17.1648L7.26987 6.80166C7.26947 6.79031 7.26943 6.77897 7.26976 6.76768L7.27 6.73433L7.27177 6.73432C7.2894 6.54292 7.41218 6.36421 7.65132 6.23853L11.6194 4.15327ZM16.722 12.582L12.9889 14.5438C12.6 14.7481 12.0083 14.7481 11.6194 14.5438L7.8945 12.5864V17.1952L11.6194 19.1423C11.8298 19.2542 12.0481 19.3632 12.2615 19.3771L12.3042 19.3785C12.5266 19.3792 12.7425 19.2668 12.9615 19.1605L16.722 17.1785V12.582ZM6.62459 16.9881C6.62459 17.3896 6.6715 17.6536 6.76464 17.8396C6.84184 17.9937 6.95767 18.1115 7.16917 18.2548L7.18125 18.263C7.22766 18.2941 7.2788 18.3267 7.34103 18.365L7.41443 18.4097L7.63982 18.5451L7.31656 19.0768L7.06429 18.9252L7.02189 18.8993C6.94895 18.8545 6.88849 18.8161 6.8321 18.7782C6.22931 18.3738 6.0045 17.9331 6.00007 17.016L6 16.9881H6.62459ZM11.9918 9.77259C11.9629 9.78246 11.9358 9.79388 11.9111 9.80685L7.94302 11.8921C7.93886 11.8943 7.93488 11.8965 7.93111 11.8986L7.92775 11.9006L7.93397 11.9041L7.94302 11.909L11.9111 13.9943C11.9358 14.0072 11.9629 14.0186 11.9918 14.0285V9.77259ZM12.6165 9.77259V14.0285C12.6454 14.0186 12.6725 14.0072 12.6972 13.9943L16.6653 11.909C16.6695 11.9068 16.6734 11.9046 16.6772 11.9025L16.6806 11.9006L16.6743 11.897L16.6653 11.8921L12.6972 9.80685C12.6725 9.79388 12.6454 9.78246 12.6165 9.77259ZM16.722 7.47787L13.1624 9.34849L16.722 11.2191V7.47787ZM7.8945 7.48224V11.2147L11.4459 9.34849L7.8945 7.48224ZM12.6972 4.70277C12.4908 4.59433 12.1175 4.59433 11.9111 4.70277L7.94302 6.78804C7.93886 6.79023 7.93488 6.79239 7.93111 6.79453L7.92775 6.79647L7.93397 6.80002L7.94302 6.80491L11.9111 8.89018C12.1175 8.99861 12.4908 8.99861 12.6972 8.89018L16.6653 6.80491C16.6695 6.80272 16.6734 6.80056 16.6772 6.79841L16.6806 6.79647L16.6743 6.79292L16.6653 6.78804L12.6972 4.70277ZM17.3084 4.93144L17.5607 5.08303L17.6031 5.10893C17.676 5.15373 17.7365 5.19221 17.7929 5.23004C18.3957 5.63437 18.6205 6.07521 18.6248 6.99226L18.625 7.02019H18.0004C18.0004 6.61859 17.9535 6.35465 17.8603 6.16868C17.7831 6.01456 17.6673 5.89677 17.4558 5.75345L17.4437 5.74531C17.3973 5.71417 17.3462 5.68156 17.2839 5.64322L17.2105 5.5985L16.9852 5.46317L17.3084 4.93144Z" fill="white"/>
<path fill-rule="evenodd" clip-rule="evenodd" d="M1 12.0016L1 12.0024C1 18.0746 5.9219 23 12 23C18.0739 23 23 18.0788 23 12.0024C23 5.92568 18.0736 1 11.9953 1C5.92176 1 0.995674 5.9254 1 12.0016ZM3.11002e-06 12.0024C3.11002e-06 18.6268 5.36954 24 12 24C18.6257 24 24 18.6315 24 12.0024C24 5.37321 18.6257 0 11.9953 0C5.36954 0 -0.00471944 5.37321 3.11002e-06 12.0024Z" fill="#E2E6EE"/>
</svg>
