<svg width="24" height="24" viewBox="0 0 24 24" fill="none" xmlns="http://www.w3.org/2000/svg">
<path d="M11.9953 0C18.6257 0 24 5.37321 24 12.0024C24 18.6315 18.6257 24 12 24C5.36954 24 3.11002e-06 18.6268 3.11002e-06 12.0024C-0.00471944 5.37321 5.36954 0 11.9953 0Z" fill="#ED4E33"/>
<path fill-rule="evenodd" clip-rule="evenodd" d="M1 12.0016L1 12.0024C1 18.0746 5.9219 23 12 23C18.0739 23 23 18.0788 23 12.0024C23 5.92568 18.0736 1 11.9953 1C5.92176 1 0.995674 5.9254 1 12.0016ZM3.11002e-06 12.0024C3.11002e-06 18.6268 5.36954 24 12 24C18.6257 24 24 18.6315 24 12.0024C24 5.37321 18.6257 0 11.9953 0C5.36954 0 -0.00471944 5.37321 3.11002e-06 12.0024Z" fill="#E2E6EE"/>
<path d="M10.2238 7.33339C7.45857 8.403 7.20526 11.1423 6.41237 12.4216C5.61008 13.7161 3.77206 14.4304 4.02341 15.09C4.27475 15.7497 6.11495 15.0412 7.57081 15.4621C9.00943 15.878 11.0167 17.7431 13.7819 16.6735C15.1906 16.1286 16.2106 15.0071 16.6796 13.6787C16.7301 13.5361 16.6358 13.3836 16.4862 13.3695C16.3931 13.3607 16.3038 13.4098 16.2619 13.4939C15.8376 14.3454 15.1098 15.0467 14.1573 15.415C12.5848 16.0232 10.8643 15.5457 9.80757 14.3481C9.56758 14.0761 9.36232 13.7665 9.20029 13.4243C9.15574 13.3302 9.11337 13.2344 9.07581 13.1354C9.03804 13.0364 9.00594 12.9367 8.97646 12.8366C9.80757 12.4463 10.7666 12.0328 11.8539 11.6123C12.92 11.1999 13.8902 10.8655 14.7541 10.5979C15.3384 10.417 15.8741 10.2665 16.3578 10.1435C16.3927 10.1347 16.4272 10.1259 16.4615 10.1173C16.5347 10.0991 16.6098 10.1385 16.6368 10.2093L16.6373 10.2106C16.6532 10.2527 16.667 10.2949 16.6818 10.3372C16.7775 10.6098 16.8491 10.8853 16.8965 11.1614C16.9172 11.2822 17.0483 11.348 17.1557 11.2899C17.5527 11.0752 17.9158 10.8657 18.2403 10.6641C19.4494 9.9138 20.1198 9.27745 19.9823 8.9168C19.8447 8.55615 18.9243 8.53525 17.5274 8.7927C17.0834 8.87455 16.5912 8.98457 16.0608 9.12078C15.9691 9.14432 15.8763 9.16875 15.7824 9.19383C15.336 9.31309 14.8652 9.44974 14.375 9.60267C13.4633 9.88718 12.4852 10.228 11.4755 10.6186C10.5308 10.9841 9.63549 11.363 8.81443 11.7406C8.80438 10.138 9.76586 8.62305 11.3383 8.01485C12.2906 7.6465 13.2973 7.67665 14.1782 8.02365C14.2651 8.05798 14.3641 8.03422 14.4276 7.9649C14.5294 7.85356 14.4981 7.67687 14.366 7.6047C13.1353 6.93423 11.6325 6.78857 10.2238 7.33339V7.33339Z" fill="white"/>
</svg>
