<svg width="24" height="24" viewBox="0 0 24 24" fill="none" xmlns="http://www.w3.org/2000/svg">
<path d="M11.9953 0C18.6257 0 24 5.37321 24 12.0024C24 18.6315 18.6257 24 12 24C5.36954 24 3.11002e-06 18.6268 3.11002e-06 12.0024C-0.00471944 5.37321 5.36954 0 11.9953 0Z" fill="black"/>
<path fill-rule="evenodd" clip-rule="evenodd" d="M1 12.0016L1 12.0024C1 18.0746 5.9219 23 12 23C18.0739 23 23 18.0788 23 12.0024C23 5.92568 18.0736 1 11.9953 1C5.92176 1 0.995674 5.9254 1 12.0016ZM3.11002e-06 12.0024C3.11002e-06 18.6268 5.36954 24 12 24C18.6257 24 24 18.6315 24 12.0024C24 5.37321 18.6257 0 11.9953 0C5.36954 0 -0.00471944 5.37321 3.11002e-06 12.0024Z" fill="#E2E6EE"/>
<path fill-rule="evenodd" clip-rule="evenodd" d="M11.9703 16.4652C11.5134 16.4652 11.0888 16.3653 10.7423 16.1763L7.01078 14.1418L5.89263 14.8425C5.36113 15.1755 5.37042 15.6859 5.91334 15.982L11.0744 18.7962C11.325 18.9327 11.6455 19 11.9703 19C12.3495 19 12.7342 18.9085 13.0206 18.7291L18.0731 15.5627C18.6046 15.2296 18.5953 14.7191 18.0524 14.4232L16.9794 13.8379L13.3896 16.0878C13.0011 16.331 12.4971 16.4652 11.9703 16.4652Z" fill="url(#paint0_linear_83_640)"/>
<path fill-rule="evenodd" clip-rule="evenodd" d="M18.0856 11.0541L17.1897 10.5584L13.4105 12.9615C13.021 13.2093 12.5155 13.3456 11.9874 13.3456C11.5294 13.3456 11.1037 13.244 10.7562 13.0519L6.83478 10.8822L5.89375 11.4807C5.36086 11.8196 5.36999 12.3387 5.91434 12.6399L11.0892 15.5029C11.3403 15.6418 11.6618 15.7101 11.9874 15.7101C12.3675 15.7101 12.7534 15.6171 13.0403 15.4347L18.1063 12.2133C18.6392 11.8746 18.6299 11.3553 18.0856 11.0541Z" fill="url(#paint1_linear_83_640)"/>
<path fill-rule="evenodd" clip-rule="evenodd" d="M18.0856 8.01678L12.9107 5.20374C12.6596 5.06705 12.3383 5 12.0125 5C11.6325 5 11.2465 5.0915 10.9596 5.27078L5.89375 8.4361C5.36086 8.76894 5.36999 9.27902 5.91434 9.57499L11.0892 12.3884C11.3403 12.5249 11.6618 12.592 11.9874 12.592C12.3675 12.592 12.7534 12.5005 13.0403 12.3212L18.1063 9.15585C18.6392 8.82302 18.6299 8.31275 18.0856 8.01678Z" fill="url(#paint2_linear_83_640)"/>
<defs>
<linearGradient id="paint0_linear_83_640" x1="12" y1="-17.7485" x2="12" y2="19" gradientUnits="userSpaceOnUse">
<stop stop-color="#B3F9BA"/>
<stop offset="1" stop-color="#F6FB8C"/>
</linearGradient>
<linearGradient id="paint1_linear_83_640" x1="12" y1="-8.85321" x2="12" y2="27.0937" gradientUnits="userSpaceOnUse">
<stop stop-color="#B1FFBF"/>
<stop offset="1" stop-color="#FFF16D"/>
</linearGradient>
<linearGradient id="paint2_linear_83_640" x1="12" y1="5" x2="12" y2="18.7265" gradientUnits="userSpaceOnUse">
<stop stop-color="#B3F9BA"/>
<stop offset="1" stop-color="#F6FB8C"/>
</linearGradient>
</defs>
</svg>
