<svg width="24" height="24" viewBox="0 0 24 24" fill="none" xmlns="http://www.w3.org/2000/svg">
<path d="M11.9953 0C18.6257 0 24 5.37321 24 12.0024C24 18.6315 18.6257 24 12 24C5.36954 24 3.11002e-06 18.6268 3.11002e-06 12.0024C-0.00471944 5.37321 5.36954 0 11.9953 0Z" fill="#0F122E"/>
<path fill-rule="evenodd" clip-rule="evenodd" d="M1 12.0016L1 12.0024C1 18.0746 5.9219 23 12 23C18.0739 23 23 18.0788 23 12.0024C23 5.92568 18.0736 1 11.9953 1C5.92176 1 0.995674 5.9254 1 12.0016ZM3.11002e-06 12.0024C3.11002e-06 18.6268 5.36954 24 12 24C18.6257 24 24 18.6315 24 12.0024C24 5.37321 18.6257 0 11.9953 0C5.36954 0 -0.00471944 5.37321 3.11002e-06 12.0024Z" fill="#E2E6EE"/>
<path d="M13.0791 4C10.1224 4 7.72559 6.42701 7.72559 9.42089C7.72559 9.61506 7.88758 9.76615 8.08175 9.76615H18.0765C18.2707 9.76615 18.4327 9.61506 18.4327 9.42089C18.4327 6.42701 16.0358 4 13.0791 4Z" fill="#53CBC8"/>
<ellipse cx="5.64738" cy="11.0936" rx="0.337809" ry="0.343639" fill="#E1147B"/>
<ellipse cx="5.64738" cy="14.1483" rx="0.337809" ry="0.343639" fill="#E1147B"/>
<ellipse cx="11.2109" cy="17.1288" rx="0.337809" ry="0.343639" fill="#E1147B"/>
<ellipse cx="7.82707" cy="18.6563" rx="0.337809" ry="0.343639" fill="#E1147B"/>
<rect x="6.51953" y="10.75" width="13.0675" height="0.687279" rx="0.343639" fill="#E1147B"/>
<rect x="4.00195" y="12.2773" width="9.72962" height="0.687279" rx="0.343639" fill="#E1147B"/>
<rect x="6.51953" y="13.8047" width="11.5962" height="0.687279" rx="0.343639" fill="#E1147B"/>
<rect x="4.62988" y="15.293" width="4.95837" height="0.687279" rx="0.343639" fill="#E1147B"/>
<rect x="12.084" y="16.7852" width="6.23359" height="0.687279" rx="0.343639" fill="#E1147B"/>
<rect x="8.61426" y="18.3125" width="6.28831" height="0.687279" rx="0.343639" fill="#E1147B"/>
<rect x="10.2695" y="15.293" width="9.72832" height="0.687279" rx="0.343639" fill="#E1147B"/>
</svg>
