<svg width="24" height="24" viewBox="0 0 24 24" fill="none" xmlns="http://www.w3.org/2000/svg">
<path d="M11.9953 0C18.6257 0 24 5.37321 24 12.0024C24 18.6315 18.6257 24 12 24C5.36954 24 3.11002e-06 18.6268 3.11002e-06 12.0024C-0.00471944 5.37321 5.36954 0 11.9953 0Z" fill="#0F122E"/>
<path d="M11.8934 4C8.74148 4.00083 6.18639 6.51154 6.18555 9.60868C6.18597 9.96303 6.21971 10.3166 6.28656 10.6647L7.02508 10.1686C8.32139 9.29474 10.4239 9.29474 11.72 10.1686L12.4933 10.69L12.9138 10.9728C14.0819 11.7592 15.975 11.7592 17.1417 10.9728L17.4854 10.7418C18.1187 7.70555 16.1275 4.73978 13.0376 4.11729C12.662 4.04165 12.2797 4.00332 11.8963 4.0029L11.8934 4Z" fill="#F2B705"/>
<path d="M15.1017 12.9773C14.2866 12.9927 13.4853 12.7689 12.8001 12.3345L11.608 11.5318C10.2847 10.7338 8.6176 10.7338 7.2943 11.5318L6.52415 12.0502C6.37147 12.1528 6.1629 12.1145 6.05851 11.9642C5.95412 11.8142 5.99314 11.6093 6.14582 11.5067L6.91597 10.9882C8.46851 10.0404 10.4337 10.0404 11.9863 10.9882L13.1784 11.791C14.3579 12.5018 15.8438 12.5018 17.0233 11.791L17.4754 11.4874C17.6281 11.3848 17.8367 11.4232 17.9413 11.5734C18.0456 11.7234 18.0066 11.9284 17.8537 12.031L17.4016 12.3345C16.7166 12.7678 15.9161 12.9914 15.1017 12.9773Z" fill="#53CBC8"/>
<path d="M9.42685 15.3347V12.1653C9.42411 12.0985 9.42664 12.0316 9.43444 11.9653C9.45574 11.7848 9.61138 11.6486 9.79611 11.6484C9.97515 11.6538 10.1215 11.7902 10.1367 11.9653C10.1504 12.0753 10.1544 12.1864 10.1487 12.297V18.6167C10.1563 18.821 9.99371 18.9928 9.78578 19.0001C9.78367 19.0001 9.78156 19.0003 9.77945 19.0003C9.57489 18.9891 9.41842 18.8171 9.4298 18.6163C9.43001 18.6105 9.43065 18.6047 9.43128 18.5989V16.4914L9.42685 15.3347Z" fill="#53CBC8"/>
<path d="M8.74892 13.7377V15.3119C8.74892 15.5815 8.59813 15.7562 8.39463 15.7562C8.19112 15.7562 8.0298 15.5681 8.02832 15.3119V12.1603C8.02832 11.8849 8.1926 11.6982 8.40517 11.716C8.61774 11.7338 8.74428 11.8924 8.74575 12.1692C8.74891 12.6875 8.74892 13.2117 8.74892 13.7377Z" fill="#53CBC8"/>
<path d="M10.8306 13.738V12.633C10.8306 12.3767 10.9693 12.2109 11.1758 12.2109C11.3894 12.2209 11.5545 12.3989 11.5446 12.609C11.5444 12.614 11.544 12.6192 11.5436 12.6241C11.5505 13.3766 11.5505 14.1294 11.5436 14.8827C11.5436 15.1388 11.3928 15.2944 11.1773 15.2915C10.9617 15.2886 10.8306 15.1315 10.8291 14.8694V13.7394L10.8306 13.738Z" fill="#53CBC8"/>
<path d="M6.63136 13.9635V12.8572C6.63136 12.5996 6.76991 12.4336 6.97658 12.4336C7.1902 12.4435 7.35533 12.6218 7.34542 12.8317C7.34521 12.8366 7.34478 12.8418 7.34436 12.8468C7.35132 13.6003 7.35132 14.3535 7.34436 15.107C7.34436 15.3631 7.19358 15.5173 6.97953 15.5158C6.76548 15.5144 6.63136 15.3558 6.62988 15.0923V13.9637H6.63136V13.9635Z" fill="#53CBC8"/>
<path d="M12.5799 13.0234C12.7756 13.0234 12.9342 13.1793 12.9342 13.3716V13.9729C12.9342 14.1652 12.7756 14.3211 12.5799 14.3211C12.3842 14.3211 12.2256 14.1652 12.2256 13.9729V13.3716C12.2258 13.1793 12.3844 13.0234 12.5799 13.0234Z" fill="#53CBC8"/>
<path d="M13.9822 13.5547C14.1779 13.5547 14.3365 13.7105 14.3365 13.9028V17.2781C14.3365 17.4704 14.1779 17.6262 13.9822 17.6262C13.7865 17.6262 13.6279 17.4704 13.6279 17.2781V13.9028C13.6281 13.7105 13.7867 13.5547 13.9822 13.5547Z" fill="#53CBC8"/>
<path d="M15.3748 13.6836C15.5705 13.6836 15.7291 13.8394 15.7291 14.0317V16.9005C15.7291 17.0928 15.5705 17.2486 15.3748 17.2486C15.1791 17.2486 15.0205 17.0928 15.0205 16.9005V14.0317C15.0207 13.8394 15.1793 13.6836 15.3748 13.6836Z" fill="#53CBC8"/>
<path d="M16.7869 13.3555C16.9826 13.3555 17.1412 13.5113 17.1412 13.7036V14.9403C17.1412 15.1326 16.9826 15.2884 16.7869 15.2884C16.5912 15.2884 16.4326 15.1326 16.4326 14.9403V13.7036C16.4326 13.5113 16.5912 13.3555 16.7869 13.3555Z" fill="#53CBC8"/>
<path fill-rule="evenodd" clip-rule="evenodd" d="M1 12.0016L1 12.0024C1 18.0746 5.9219 23 12 23C18.0739 23 23 18.0788 23 12.0024C23 5.92568 18.0736 1 11.9953 1C5.92176 1 0.995674 5.9254 1 12.0016ZM3.11002e-06 12.0024C3.11002e-06 18.6268 5.36954 24 12 24C18.6257 24 24 18.6315 24 12.0024C24 5.37321 18.6257 0 11.9953 0C5.36954 0 -0.00471944 5.37321 3.11002e-06 12.0024Z" fill="#E2E6EE"/>
</svg>
