<svg width="24" height="24" viewBox="0 0 24 24" fill="none" xmlns="http://www.w3.org/2000/svg">
<path d="M11.9953 0C18.6257 0 24 5.37321 24 12.0024C24 18.6315 18.6257 24 12 24C5.36954 24 3.11002e-06 18.6268 3.11002e-06 12.0024C-0.00471944 5.37321 5.36954 0 11.9953 0Z" fill="black"/>
<path d="M14.498 5.476C13.98 5.182 13.378 5 12.748 5H9.24805C10.214 5 10.998 5.784 10.998 6.75V10.25V12H12.748C13.392 12 13.98 11.832 14.498 11.524C14.89 11.3 15.226 11.006 15.492 10.656C15.968 10.054 16.248 9.312 16.248 8.486C16.248 7.212 15.548 6.078 14.498 5.476Z" fill="#D85111"/>
<path d="M15.492 10.67C15.212 11.02 14.876 11.314 14.498 11.538C13.98 11.832 13.378 12.014 12.748 12.014H10.998V10.25V6.75C10.998 5.784 10.214 5 9.24805 5C8.28205 5 7.49805 5.784 7.49805 6.75V10.25V12V17.25V19H9.24805H13.616C13.924 19 14.204 18.972 14.484 18.916C16.486 18.51 17.984 16.746 17.984 14.632C17.998 12.882 16.976 11.37 15.492 10.67Z" fill="white"/>
<path fill-rule="evenodd" clip-rule="evenodd" d="M1 12.0016L1 12.0024C1 18.0746 5.9219 23 12 23C18.0739 23 23 18.0788 23 12.0024C23 5.92568 18.0736 1 11.9953 1C5.92176 1 0.995674 5.9254 1 12.0016ZM3.11002e-06 12.0024C3.11002e-06 18.6268 5.36954 24 12 24C18.6257 24 24 18.6315 24 12.0024C24 5.37321 18.6257 0 11.9953 0C5.36954 0 -0.00471944 5.37321 3.11002e-06 12.0024Z" fill="#E2E6EE"/>
</svg>
