<svg width="24" height="24" viewBox="0 0 24 24" fill="none" xmlns="http://www.w3.org/2000/svg">
<path d="M0 12C0 5.37258 5.37258 0 12 0C18.6274 0 24 5.37258 24 12C24 18.6274 18.6274 24 12 24C5.37258 24 0 18.6274 0 12Z" fill="#161C2E"/>
<path fill-rule="evenodd" clip-rule="evenodd" d="M8.19349 6.11405C7.64153 6.41008 7.43572 6.96127 7.67514 7.50247L7.81198 7.81188L6.0603 9.57694C4.02489 11.6278 4.00203 11.661 4.00005 12.56C3.99889 13.0882 4.0174 13.1758 4.21686 13.5845C4.4103 13.981 4.6268 14.2233 6.13784 15.7344C7.91917 17.5158 8.17178 17.7133 8.66983 17.7133C9.28192 17.7133 9.71888 17.0629 9.53011 16.4328C9.46383 16.2116 9.19233 15.9145 7.90925 14.6588C7.06152 13.8292 6.31771 13.0749 6.25637 12.9826C6.11646 12.7723 6.11281 12.4537 6.24728 12.1872C6.35857 11.9666 9.07573 9.19691 9.18081 9.19691C9.21564 9.19691 9.66419 9.61363 10.1776 10.1229C11.129 11.0668 11.3886 11.246 11.8045 11.246C12.2795 11.246 12.7542 10.8976 12.8712 10.4631C12.9971 9.99559 12.8398 9.78454 10.9616 7.90108C10.0226 6.95948 9.16243 6.14549 9.05012 6.09215C8.77587 5.96204 8.46204 5.97004 8.19349 6.11405ZM14.9429 7.23591C14.5334 7.42038 14.2783 7.97068 14.3993 8.40886C14.45 8.59244 14.8257 9.00667 16.1309 10.3179C17.785 11.9795 17.7978 11.9946 17.7978 12.2638C17.7978 12.413 17.7659 12.5979 17.727 12.6749C17.6881 12.7518 17.0048 13.4694 16.2087 14.2696L14.7611 15.7245L13.8302 14.8103C13.3182 14.3076 12.7841 13.8408 12.6432 13.7731C12.2723 13.5949 11.8454 13.6156 11.5412 13.8264C11.0745 14.1498 10.9464 14.5762 11.1717 15.0559C11.3443 15.4233 14.5292 18.6299 14.8997 18.8092C15.3708 19.0373 15.8626 18.8872 16.201 18.4121C16.4061 18.1239 16.4285 17.7888 16.2669 17.4234L16.1303 17.1147L17.8505 15.3809C19.3652 13.8544 19.5966 13.5942 19.7873 13.2035C19.9752 12.8184 20.0033 12.698 19.9997 12.2922C19.9962 11.8888 19.964 11.7608 19.7649 11.3592C19.5569 10.9398 19.3614 10.7222 17.7855 9.15682C16.8238 8.20152 15.9463 7.3739 15.8355 7.31774C15.538 7.16675 15.1711 7.13313 14.9429 7.23591Z" fill="black"/>
<path fill-rule="evenodd" clip-rule="evenodd" d="M8.19349 6.11405C7.64153 6.41008 7.43572 6.96127 7.67514 7.50247L7.81198 7.81188L6.0603 9.57694C4.02489 11.6278 4.00203 11.661 4.00005 12.56C3.99889 13.0882 4.0174 13.1758 4.21686 13.5845C4.4103 13.981 4.6268 14.2233 6.13784 15.7344C7.91917 17.5158 8.17178 17.7133 8.66983 17.7133C9.28192 17.7133 9.71888 17.0629 9.53011 16.4328C9.46383 16.2116 9.19233 15.9145 7.90925 14.6588C7.06152 13.8292 6.31771 13.0749 6.25637 12.9826C6.11646 12.7723 6.11281 12.4537 6.24728 12.1872C6.35857 11.9666 9.07573 9.19691 9.18081 9.19691C9.21564 9.19691 9.66419 9.61363 10.1776 10.1229C11.129 11.0668 11.3886 11.246 11.8045 11.246C12.2795 11.246 12.7542 10.8976 12.8712 10.4631C12.9971 9.99559 12.8398 9.78454 10.9616 7.90108C10.0226 6.95948 9.16243 6.14549 9.05012 6.09215C8.77587 5.96204 8.46204 5.97004 8.19349 6.11405ZM14.9429 7.23591C14.5334 7.42038 14.2783 7.97068 14.3993 8.40886C14.45 8.59244 14.8257 9.00667 16.1309 10.3179C17.785 11.9795 17.7978 11.9946 17.7978 12.2638C17.7978 12.413 17.7659 12.5979 17.727 12.6749C17.6881 12.7518 17.0048 13.4694 16.2087 14.2696L14.7611 15.7245L13.8302 14.8103C13.3182 14.3076 12.7841 13.8408 12.6432 13.7731C12.2723 13.5949 11.8454 13.6156 11.5412 13.8264C11.0745 14.1498 10.9464 14.5762 11.1717 15.0559C11.3443 15.4233 14.5292 18.6299 14.8997 18.8092C15.3708 19.0373 15.8626 18.8872 16.201 18.4121C16.4061 18.1239 16.4285 17.7888 16.2669 17.4234L16.1303 17.1147L17.8505 15.3809C19.3652 13.8544 19.5966 13.5942 19.7873 13.2035C19.9752 12.8184 20.0033 12.698 19.9997 12.2922C19.9962 11.8888 19.964 11.7608 19.7649 11.3592C19.5569 10.9398 19.3614 10.7222 17.7855 9.15682C16.8238 8.20152 15.9463 7.3739 15.8355 7.31774C15.538 7.16675 15.1711 7.13313 14.9429 7.23591Z" fill="url(#paint0_linear_583_12420)"/>
<path fill-rule="evenodd" clip-rule="evenodd" d="M1 12C1 18.0751 5.92487 23 12 23C18.0751 23 23 18.0751 23 12C23 5.92487 18.0751 1 12 1C5.92487 1 1 5.92487 1 12ZM12 0C5.37258 0 0 5.37258 0 12C0 18.6274 5.37258 24 12 24C18.6274 24 24 18.6274 24 12C24 5.37258 18.6274 0 12 0Z" fill="#E2E6EE"/>
<defs>
<linearGradient id="paint0_linear_583_12420" x1="5.98501" y1="7.05179" x2="17.1587" y2="17.4251" gradientUnits="userSpaceOnUse">
<stop stop-color="#3BA6FC"/>
<stop offset="0.536458" stop-color="#AA02FF"/>
<stop offset="1" stop-color="#EA8A65"/>
</linearGradient>
</defs>
</svg>
