<svg width="24" height="24" viewBox="0 0 24 24" fill="none" xmlns="http://www.w3.org/2000/svg">
<path d="M11.9953 0C18.6257 0 24 5.37321 24 12.0024C24 18.6315 18.6257 24 12 24C5.36954 24 3.11002e-06 18.6268 3.11002e-06 12.0024C-0.00471944 5.37321 5.36954 0 11.9953 0Z" fill="white"/>
<path d="M19.7139 9.26904L16.371 4.40014C15.846 3.63702 14.6588 4.04213 14.6976 4.96927C14.7332 5.8144 15.0486 6.70893 15.8036 7.80668L15.804 7.8087L15.8032 7.81057L15.8014 7.81156L15.7993 7.8113C15.4904 7.58074 10.834 4.07967 5.29895 5.94384H5.2927C4.68183 6.17307 4.36997 6.67336 4.52458 7.25995C4.66768 7.80306 5.22395 8.12912 5.77693 8.03723C6.95263 7.84127 8.11945 7.74806 9.26687 7.84884C10.4143 7.94963 11.5367 8.24407 12.5818 8.7582C13.6269 9.27232 14.5736 9.99989 15.4437 10.8332C16.4223 11.7695 17.6366 13.7664 17.6366 13.7664C17.7077 13.8929 17.8212 13.9903 17.9571 14.0412C18.0929 14.0921 18.2424 14.0934 18.379 14.0447C18.708 13.9268 18.8612 13.547 18.7376 13.2213C18.4796 12.5404 18.1638 11.883 17.7938 11.256L17.793 11.2539L17.7937 11.2517L17.7958 11.2506L17.7981 11.2511C18.2073 11.4052 18.5859 11.5973 19.034 11.4922C19.3995 11.4062 19.7202 11.1572 19.8692 10.8088C19.9771 10.5603 20.0195 10.2882 19.9923 10.0186C19.9651 9.74902 19.8692 9.49092 19.7139 9.26904Z" fill="url(#paint0_linear_583_12437)"/>
<path d="M4.28634 14.6472L7.62922 19.5161C8.15424 20.2792 9.34146 19.8741 9.30262 18.947C9.26711 18.1018 8.95164 17.2073 8.19668 16.1096C8.19633 16.1089 8.19618 16.1083 8.19626 16.1076C8.19634 16.1068 8.19664 16.1062 8.19712 16.1057C8.19759 16.1051 8.19823 16.1048 8.19892 16.1047C8.19961 16.1046 8.20032 16.1046 8.20096 16.1049C8.50984 16.3355 13.1663 19.8366 18.7013 17.9724H18.7076C19.3184 17.7432 19.6303 17.2429 19.4757 16.6563C19.3326 16.1132 18.7763 15.7871 18.2234 15.879C17.0476 16.075 15.8808 16.1682 14.7334 16.0674C13.586 15.9666 12.4636 15.6722 11.4185 15.1581C10.3734 14.6439 9.42664 13.9164 8.55656 13.0831C7.5779 12.1467 6.36372 10.1498 6.36372 10.1498C6.29256 10.0233 6.17904 9.92599 6.0432 9.87504C5.90736 9.82414 5.75793 9.82291 5.62126 9.8715C5.2923 9.98942 5.139 10.3692 5.26269 10.6949C5.52065 11.3758 5.8364 12.0333 6.20648 12.6602C6.20702 12.6608 6.20731 12.6616 6.20732 12.6624C6.20733 12.6632 6.20705 12.6639 6.20652 12.6646C6.20599 12.6652 6.20527 12.6655 6.20447 12.6657C6.20367 12.6658 6.20286 12.6656 6.2022 12.6651C5.79298 12.511 5.41434 12.319 4.9663 12.4241C4.60083 12.51 4.28009 12.759 4.13107 13.1074C4.02319 13.356 3.98081 13.628 4.008 13.8976C4.03518 14.1672 4.13102 14.4253 4.28634 14.6472Z" fill="url(#paint1_linear_583_12437)"/>
<path fill-rule="evenodd" clip-rule="evenodd" d="M1 12.0016L1 12.0024C1 18.0746 5.9219 23 12 23C18.0739 23 23 18.0788 23 12.0024C23 5.92568 18.0736 1 11.9953 1C5.92176 1 0.995674 5.9254 1 12.0016ZM3.11002e-06 12.0024C3.11002e-06 18.6268 5.36954 24 12 24C18.6257 24 24 18.6315 24 12.0024C24 5.37321 18.6257 0 11.9953 0C5.36954 0 -0.00471944 5.37321 3.11002e-06 12.0024Z" fill="#E2E6EE"/>
<defs>
<linearGradient id="paint0_linear_583_12437" x1="20.8215" y1="18.6913" x2="1.1932" y2="-5.45334" gradientUnits="userSpaceOnUse">
<stop offset="0.15" stop-color="#B32EFF"/>
<stop offset="0.42" stop-color="#CE60D3"/>
<stop offset="0.65" stop-color="#E185B3"/>
<stop offset="0.84" stop-color="#EE9C9F"/>
<stop offset="0.96" stop-color="#F2A498"/>
</linearGradient>
<linearGradient id="paint1_linear_583_12437" x1="3.17874" y1="5.22495" x2="22.8071" y2="29.3696" gradientUnits="userSpaceOnUse">
<stop offset="0.15" stop-color="#B32EFF"/>
<stop offset="0.42" stop-color="#CE60D3"/>
<stop offset="0.65" stop-color="#E185B3"/>
<stop offset="0.84" stop-color="#EE9C9F"/>
<stop offset="0.96" stop-color="#F2A498"/>
</linearGradient>
</defs>
</svg>
