<svg width="24" height="24" viewBox="0 0 24 24" fill="none" xmlns="http://www.w3.org/2000/svg">
<g clip-path="url(#clip0_583_12465)">
<path d="M11.9953 0C18.6257 0 24 5.37321 24 12.0024C24 18.6315 18.6257 24 12 24C5.36954 24 3.11002e-06 18.6268 3.11002e-06 12.0024C-0.00471944 5.37321 5.36954 0 11.9953 0Z" fill="#624CED"/>
<path fill-rule="evenodd" clip-rule="evenodd" d="M8.36797 8.21935C7.32429 8.71143 6.32674 10.0261 6.66208 10.4678C6.99639 10.9082 7.32458 10.8026 8.16195 9.98525C9.15488 9.01616 9.29459 8.9977 10.0866 9.73092L10.6385 10.2419L11.0517 9.82257L11.465 9.40331L10.9573 8.88928C10.0714 7.99225 9.28262 7.78812 8.36797 8.21935ZM13.9255 8.19034C13.6971 8.30394 12.3063 9.61477 10.3932 11.5197C7.08512 14.8135 6.89371 14.9663 6.25261 14.8256C5.22126 14.5991 4.87594 13.3544 5.6183 12.5394L5.81225 12.3265L6.0775 12.5806L6.34276 12.8347V11.8751V10.9155H5.37942H4.41598L4.66955 11.169L4.92304 11.4225L4.612 11.8048C3.16506 13.5834 4.45705 16.2545 6.67753 16.0752C7.59395 16.0013 7.83219 15.81 11.2365 12.4162C15.0081 8.65605 14.6961 8.8353 15.7336 9.83284C16.4847 10.5549 16.6404 10.6229 16.9747 10.3746C17.4253 10.0396 17.3607 9.74194 16.6883 9.05478C15.7093 8.05413 14.7825 7.7642 13.9255 8.19034ZM17.4579 11.6867V12.6463L17.7217 12.3936L17.9856 12.1408L18.3413 12.5052C19.089 13.2709 18.8203 14.4934 17.8399 14.7872C17.1744 14.9866 16.9173 14.8204 15.0772 13.0014L13.403 11.3463L12.9793 11.77L12.5556 12.1937L14.3715 13.9944C16.0931 15.7016 16.2162 15.8035 16.7422 15.9564C19.2767 16.6932 21.0457 13.7609 19.2997 11.7172L18.8827 11.2291L19.1336 10.9781L19.3847 10.7271H18.4212H17.4579V11.6867Z" fill="white"/>
<path fill-rule="evenodd" clip-rule="evenodd" d="M0.976565 12.0016L0.976566 12.0024C0.976566 18.074 5.9014 23 11.9845 23C18.0635 23 22.9925 18.0782 22.9925 12.0024C22.9925 5.9263 18.0632 1 11.9798 1C5.90127 1 0.972234 5.92603 0.976565 12.0016ZM-0.0234344 12.0024C-0.0234344 18.6268 5.34968 24 11.9845 24C18.6147 24 23.9925 18.6315 23.9925 12.0024C23.9925 5.37321 18.6147 0 11.9798 0C5.34968 0 -0.0281601 5.37321 -0.0234344 12.0024Z" fill="#E2E6EE"/>
</g>
<defs>
<clipPath id="clip0_583_12465">
<rect width="24" height="24" fill="white"/>
</clipPath>
</defs>
</svg>
