<svg width="24" height="24" viewBox="0 0 24 24" fill="none" xmlns="http://www.w3.org/2000/svg">
<path d="M11.9953 0C18.6257 0 24 5.37321 24 12.0024C24 18.6315 18.6257 24 12 24C5.36954 24 3.11002e-06 18.6268 3.11002e-06 12.0024C-0.00471944 5.37321 5.36954 0 11.9953 0Z" fill="black"/>
<path fill-rule="evenodd" clip-rule="evenodd" d="M7.76544 1.53812C4.32026 3.07584 0.908698 7.18444 1.19236 9.45431L1.25938 9.99105L2.34372 9.4724C2.94011 9.18723 3.67204 8.84101 3.97024 8.70322C5.59892 7.95036 8.06623 5.46494 8.76736 3.87096C8.89923 3.57118 9.1393 3.07082 9.30087 2.75927C10.2852 0.860729 9.925 0.574248 7.76544 1.53812ZM14.1754 1.61465C14.2958 1.93253 14.5263 2.44771 14.6879 2.75927C14.8494 3.07082 15.0896 3.57118 15.2214 3.87096C15.7415 5.05329 17.988 7.53504 19.1565 8.2181C20.0971 8.76798 21.8426 9.59188 22.4301 9.76324C23.7018 10.1341 21.9105 6.00561 19.94 4.02467C17.7761 1.84902 13.6046 0.105067 14.1754 1.61465ZM1.16851 14.6352C1.84752 18.2582 5.50221 21.9849 9.19438 22.819L9.99615 23L9.82028 22.3839C9.72353 22.0451 9.47612 21.4446 9.2705 21.0498C9.06472 20.6548 8.81269 20.16 8.71034 19.9501C8.21415 18.9315 7.88494 18.5007 6.67481 17.2848C5.33066 15.9343 4.90711 15.6038 3.97024 15.1745C3.67204 15.0381 2.88177 14.6583 2.21403 14.3306L1 13.7351L1.16851 14.6352ZM21.7535 14.3212C21.0974 14.6535 20.3168 15.0372 20.0185 15.1741C19.0938 15.5986 18.6713 15.9278 17.3172 17.2793C15.9835 18.6106 15.6551 19.0355 15.2119 20.0046C15.0748 20.3044 14.7304 21.0402 14.4468 21.6398L13.9308 22.7299L14.4647 22.7972C16.5727 23.0637 20.8446 19.6137 22.2004 16.5505C22.5422 15.778 23.1345 13.5908 22.9725 13.6996C22.958 13.7092 22.4095 13.9889 21.7535 14.3212Z" fill="#999999"/>
<path fill-rule="evenodd" clip-rule="evenodd" d="M10.8709 6.71352C10.7039 6.96977 10.567 7.29142 10.567 7.42851C10.567 8.401 8.31205 10.3926 6.55597 10.9712C5.46883 11.3296 5.3327 13.0337 6.35977 13.4248C7.69559 13.9332 8.02352 14.1129 8.74381 14.7313C9.62262 15.4856 10.5641 16.7174 10.5748 17.1264C10.6106 18.5022 12.956 18.6552 13.3627 17.3082C13.5085 16.8251 14.1892 15.9508 15.0643 15.1226C15.9395 14.2944 16.8632 13.6502 17.3738 13.5122C18.5946 13.1821 18.6821 11.3575 17.4953 10.9793C15.6609 10.3944 13.9641 8.79117 13.3627 7.07423C13.0466 6.17217 11.3814 5.93086 10.8709 6.71352Z" fill="#F2F2F2"/>
<path fill-rule="evenodd" clip-rule="evenodd" d="M1 12.0016L1 12.0024C1 18.0746 5.9219 23 12 23C18.0739 23 23 18.0788 23 12.0024C23 5.92568 18.0736 1 11.9953 1C5.92176 1 0.995674 5.9254 1 12.0016ZM3.11002e-06 12.0024C3.11002e-06 18.6268 5.36954 24 12 24C18.6257 24 24 18.6315 24 12.0024C24 5.37321 18.6257 0 11.9953 0C5.36954 0 -0.00471944 5.37321 3.11002e-06 12.0024Z" fill="#E2E6EE"/>
</svg>
