<svg width="24" height="24" viewBox="0 0 24 24" fill="none" xmlns="http://www.w3.org/2000/svg">
<path d="M11.9953 0C18.6257 0 24 5.37321 24 12.0024C24 18.6315 18.6257 24 12 24C5.36954 24 3.11002e-06 18.6268 3.11002e-06 12.0024C-0.00471944 5.37321 5.36954 0 11.9953 0Z" fill="#00FF00"/>
<g clip-path="url(#clip0_583_12426)">
<path d="M10.9336 11.9331L11.2136 11.6516V10.6603L10.9336 10.3789H10.5472L10.2803 10.6603V11.6516L10.5472 11.9331H10.9336Z" fill="black"/>
<path d="M13.4539 11.9198L13.7205 11.6384V10.6603L13.4539 10.3789H13.0671L12.7871 10.6603V11.6384L13.0671 11.9198H13.4539Z" fill="black"/>
<path d="M19.7602 9.6952L19.3734 9.64157L17.9868 10.7133L17.9334 11.102L17.8712 11.1557H17.4936L17.2136 11.4371V11.8122L17.4669 12.0669V12.201L17.2 12.4824L17.2136 14.2379L17.4936 14.5057L17.5067 14.6398L17.514 14.6457L17.2534 14.9077V15.2964L17.1335 15.4169H15.1733L15.0533 15.2964V13.3264L15 13.2731L14.7733 13.0453V12.9112L14.7535 12.8909L15.0266 12.6161V12.241L15.0062 12.2204L15.0533 12.2142L15.1334 12.1205L15.5202 12.0805L16.4535 10.8742L16.4147 10.4976L16.5069 10.4054L16.5039 10.3687L16.5069 10.365L16.4952 10.2563L16.4934 10.2309L16.7734 9.94984L16.7467 7.69835L16.4667 7.43051V7.40369L16.4802 7.28318L16.3734 7.14907L16.4133 6.76035L15.4668 5.55451L15.08 5.5141L15.023 5.43768L15.0266 5.434V5.05851L14.7601 4.77707H14.3869L14.2534 4.67016V4.28144L13.9599 4H10.0401L9.74658 4.28144V4.67016L9.61351 4.77707H9.23988L8.97337 5.05851V5.434L8.97703 5.43768L8.91998 5.5141L8.5332 5.55451L7.58671 6.76035L7.62656 7.14907L7.52017 7.28318L7.53333 7.40369V7.43051L7.2533 7.69835L7.22661 9.94984L7.50665 10.2309L7.49349 10.4054L7.59768 10.5098L7.56002 10.8742L8.49335 12.0805L8.88014 12.1205L8.96019 12.2142L8.99458 12.219L8.97337 12.241V12.6161L9.23988 12.8975L9.2267 12.9112V13.0453L9.00002 13.2731L8.94667 13.3264V15.2964L8.82675 15.4169H6.86652L6.74661 15.2964V14.9077L6.4801 14.6398L6.49326 14.5057L6.77329 14.2379L6.78682 12.4824L6.51995 12.201L6.53201 12.0683L6.78682 11.8122V11.4371L6.50679 11.1557H6.12877L6.06663 11.102L6.01325 10.7133L4.6266 9.64157L4.23982 9.6952L4 10.0031L4.05337 10.3918L5.44002 11.4639L5.82681 11.4103L5.85605 11.4342L5.85349 11.4371V11.8122L6.12 12.0937H6.13353V12.1741L5.85349 12.4556L5.82681 14.2111L6.09332 14.4925V14.6263H6.08015L5.81328 14.9077V15.2964L6.08015 15.5642H6.46657L6.58685 15.6851V16.0735L6.85336 16.3417H8.81323L9.09326 16.0735V15.6851L9.21356 15.5642H9.61351L9.87998 15.2964V13.3264L9.64016 13.0453L9.62665 12.8975L9.90667 12.6161V12.241L9.62665 11.9596H9.25081L9.18686 11.8791L9.2267 11.4908L8.27985 10.2845L7.89343 10.2445L7.89234 10.2431L7.89343 10.2309L8.17347 9.96307L8.18663 7.72517L7.92012 7.44374L7.92378 7.40148L7.93328 7.39009L8.32007 7.35004L9.2534 6.14421L9.21356 5.75549L9.24462 5.71507H9.62665L9.90667 5.434V5.05851L10.0401 4.95159H13.9599L14.0933 5.05851V5.434L14.3733 5.71507H14.7558L14.7868 5.75549L14.7466 6.14421L15.68 7.35004L16.0667 7.39009L16.0762 7.40148L16.0802 7.44374L15.8133 7.72517L15.8269 9.96307L16.1066 10.2309L16.108 10.2456L15.7333 10.2845L14.7868 11.4908L14.8267 11.8791L14.7558 11.9688L14.7466 11.9596H14.3602L14.0933 12.241V12.6161L14.3602 12.8975H14.3733L14.3602 13.0453L14.1335 13.3264V15.2964L14.4 15.5642H14.7868L14.9067 15.6851V16.0735L15.1868 16.3417H17.1467L17.4135 16.0735V15.6851L17.5334 15.5642H17.9202L18.1867 15.2964V14.9077L17.9202 14.6263H17.8935V14.4925L18.16 14.2111L18.1333 12.4556L17.8533 12.1741V12.0937H17.88L18.1469 11.8122V11.4371L18.144 11.4342L18.1736 11.4103L18.56 11.4639L19.9466 10.3918L20 10.0031L19.7602 9.6952Z" fill="black"/>
<path d="M10.7868 15.4844L10.5067 15.7658V16.1545L10.3868 16.275H10L8.13339 18.111V18.4861L8.01348 18.6066H6.0536L5.93333 18.4861V18.0974L5.65329 17.8163H5.26687L5 18.0974V18.4861L5.26687 18.7543H5.65329L5.77357 18.8748V19.2636L6.04008 19.5314H8.00032L8.27999 19.2636V18.8748L8.3999 18.7543L8.41342 18.7676H8.80023L10.6669 16.9316V16.5432L10.7736 16.4224H11.1469L11.4536 16.1545V15.7658L11.1736 15.4844H10.7868Z" fill="black"/>
<path d="M18.3735 17.8163L18.0935 18.0974V18.4861L17.9736 18.6066H16.0133L15.8935 18.4861V18.111L14.0268 16.275H13.64L13.5201 16.1545V15.7658L13.2401 15.4844H12.8533L12.5732 15.7658V16.1545L12.88 16.4224H13.2536L13.36 16.5432V16.9316L15.2266 18.7676H15.6134L15.6269 18.7543L15.7468 18.8748V19.2636L16.0269 19.5314H17.9868L18.2533 19.2636V18.8748L18.3735 18.7543H18.7599L19.0268 18.4861V18.0974L18.7599 17.8163H18.3735Z" fill="black"/>
</g>
<path fill-rule="evenodd" clip-rule="evenodd" d="M1 12.0016L1 12.0024C1 18.0746 5.9219 23 12 23C18.0739 23 23 18.0788 23 12.0024C23 5.92568 18.0736 1 11.9953 1C5.92176 1 0.995674 5.9254 1 12.0016ZM3.11002e-06 12.0024C3.11002e-06 18.6268 5.36954 24 12 24C18.6257 24 24 18.6315 24 12.0024C24 5.37321 18.6257 0 11.9953 0C5.36954 0 -0.00471944 5.37321 3.11002e-06 12.0024Z" fill="#E2E6EE"/>
<defs>
<clipPath id="clip0_583_12426">
<rect width="16" height="15.5308" fill="white" transform="translate(4 4)"/>
</clipPath>
</defs>
</svg>
